<svg id="_0_Fool" data-name="0 Fool" xmlns="http://www.w3.org/2000/svg" viewBox="0 0 261.45 434.55"><defs><style>.cls-1{fill:#292b3f;}.cls-2{fill:none;stroke:#34e89e;stroke-miterlimit:10;stroke-width:2px;}.cls-3{fill:#34e89e;}</style></defs><title>0-en</title><g id="Calque_2" data-name="Calque 2"><rect class="cls-1" width="261.45" height="434.55" rx="15.57"/></g><path class="cls-2" d="M409.83,463.93V613.54a2.33,2.33,0,0,1-2.33,2.33H204.33a2.33,2.33,0,0,1-2.33-2.33v-382a2.33,2.33,0,0,1,2.33-2.33H407.5a2.33,2.33,0,0,1,2.33,2.33V460.38" transform="translate(-175.28 -206.09)"/><line class="cls-2" x1="26.72" y1="366.51" x2="234.55" y2="366.51"/><line class="cls-2" x1="149.79" y1="258.09" x2="239.74" y2="258.09"/><path class="cls-2" d="M378.15,452.42a20.77,20.77,0,0,0-19.29-12.71A20.51,20.51,0,0,0,338.09,460h-13" transform="translate(-175.28 -206.09)"/><path class="cls-2" d="M373.08,460c0-4.75,4.22-8.6,9.42-8.6s9.42,3.85,9.42,8.6" transform="translate(-175.28 -206.09)"/><path class="cls-2" d="M391.92,460.24a4.62,4.62,0,0,1,9.23,0h12.76" transform="translate(-175.28 -206.09)"/><circle class="cls-2" cx="209.8" cy="166.93" r="8.98"/><line class="cls-2" x1="209.8" y1="157.95" x2="209.8" y2="175.91"/><circle class="cls-2" cx="197.04" cy="126.88" r="8.98"/><line class="cls-2" x1="197.04" y1="117.9" x2="197.04" y2="135.87"/><circle class="cls-2" cx="172.5" cy="90" r="8.98"/><line class="cls-2" x1="172.5" y1="81.01" x2="172.5" y2="98.98"/><circle class="cls-2" cx="130.64" cy="73.65" r="8.98"/><line class="cls-2" x1="130.64" y1="64.66" x2="130.64" y2="82.63"/><circle class="cls-2" cx="89.6" cy="89.78" r="8.98"/><line class="cls-2" x1="89.6" y1="80.8" x2="89.6" y2="98.76"/><circle class="cls-2" cx="64.48" cy="126.38" r="8.98"/><line class="cls-2" x1="64.48" y1="117.4" x2="64.48" y2="135.37"/><circle class="cls-2" cx="52.3" cy="167.25" r="8.98"/><line class="cls-2" x1="52.3" y1="158.27" x2="52.3" y2="176.24"/><ellipse class="cls-2" cx="130.64" cy="43.69" rx="3.06" ry="4.37"/><line class="cls-2" x1="120.68" y1="157.47" x2="120.68" y2="152.17"/><line class="cls-2" x1="120.68" y1="150.89" x2="120.68" y2="148.15"/><line class="cls-2" x1="141.23" y1="157.47" x2="141.23" y2="152.17"/><line class="cls-2" x1="141.23" y1="150.89" x2="141.23" y2="148.15"/><circle class="cls-2" cx="131.1" cy="157.65" r="4.88"/><circle class="cls-2" cx="145.07" cy="161.5" r="2.14"/><circle class="cls-2" cx="117.25" cy="161.5" r="2.14"/><path class="cls-2" d="M365.14,520.89a13.12,13.12,0,0,1,22.18,9.5" transform="translate(-175.28 -206.09)"/><path class="cls-2" d="M386.62,526.17a7.81,7.81,0,0,1,6.94-4.44c4.33,0,7.92,3.84,7.92,8.43" transform="translate(-175.28 -206.09)"/><path class="cls-2" d="M401.4,531.06a4.75,4.75,0,0,1,4.54-4.93,4.43,4.43,0,0,1,3.75,2.17" transform="translate(-175.28 -206.09)"/><path class="cls-2" d="M322.36,530.63a8.91,8.91,0,0,1,17.81,0" transform="translate(-175.28 -206.09)"/><circle class="cls-2" cx="89.57" cy="136.01" r="4.33"/><path class="cls-2" d="M285.49,342.94v-3.45c0-2.73,0-2.74,0-2.89a10.58,10.58,0,0,0-2.72-6.43,10.29,10.29,0,0,0-8.39-3.19c-4.66.47-8.75,4.58-9.66,10.13" transform="translate(-175.28 -206.09)"/><path class="cls-2" d="M297.32,342.89c0-.85.07-2.09.08-3.57a34.41,34.41,0,0,0-.08-4.09,14.13,14.13,0,0,0-2-5.44,17.25,17.25,0,0,0-5.19-5.7,16.84,16.84,0,0,0-8.26-2.81c-6.94-.27-12.48,4.94-15.06,9.53a18.51,18.51,0,0,0-2.2,6.6" transform="translate(-175.28 -206.09)"/><path class="cls-2" d="M306.62,342.87c0-.79,0-2,0-3.44-.12-4.26-.2-6.89-1.28-9.77a18.68,18.68,0,0,0-3.64-5.81,21.15,21.15,0,0,0-7-5.55,19.69,19.69,0,0,0-10.91-1.92,20.53,20.53,0,0,0-11.56,5.68,24.82,24.82,0,0,0-7.55,15.49" transform="translate(-175.28 -206.09)"/><path class="cls-2" d="M327.79,342.9v-6.34a10.49,10.49,0,0,1,2.73-6.42A10.26,10.26,0,0,1,338.9,327c4.66.47,8.75,4.57,9.66,10.12" transform="translate(-175.28 -206.09)"/><path class="cls-2" d="M316,342.86c0-.86-.07-2.09-.08-3.57a34.41,34.41,0,0,1,.08-4.09,14.17,14.17,0,0,1,2-5.44,17.32,17.32,0,0,1,5.19-5.71,17.06,17.06,0,0,1,8.26-2.81c6.94-.26,12.48,4.95,15.06,9.54a18.51,18.51,0,0,1,2.2,6.6" transform="translate(-175.28 -206.09)"/><path class="cls-2" d="M306.67,342.84c0-.79-.05-2,0-3.45.11-4.25.19-6.88,1.27-9.76a18.56,18.56,0,0,1,3.64-5.81,21.26,21.26,0,0,1,7-5.55,19.71,19.71,0,0,1,10.92-1.92A20.43,20.43,0,0,1,341.07,322a24.82,24.82,0,0,1,7.55,15.49" transform="translate(-175.28 -206.09)"/><circle class="cls-2" cx="173.28" cy="136.01" r="4.33"/><path class="cls-2" d="M340.11,529.59a3.88,3.88,0,0,1,4.05-3.63,3.82,3.82,0,0,1,4,3.63" transform="translate(-175.28 -206.09)"/><path class="cls-2" d="M332.42,521.55A18.91,18.91,0,0,1,349.06,512c10.37,0,18.77,8,18.77,17.84" transform="translate(-175.28 -206.09)"/><path class="cls-2" d="M314.22,525.6a9.18,9.18,0,0,1,1.52,5h12.2" transform="translate(-175.28 -206.09)"/><path class="cls-2" d="M290.53,530.63c0-4.27,3-7.94,7.37-9.61" transform="translate(-175.28 -206.09)"/><path class="cls-2" d="M269.05,530.36a4.11,4.11,0,0,1,8.21,0" transform="translate(-175.28 -206.09)"/><path class="cls-2" d="M242.92,529.9a4.09,4.09,0,0,1,4.1-4.1c2.26,0,4.49,2.61,4.49,4.88" transform="translate(-175.28 -206.09)"/><path class="cls-2" d="M251.51,530.68a8.87,8.87,0,0,1,8.77-9,8.59,8.59,0,0,1,8.77,8.65" transform="translate(-175.28 -206.09)"/><path class="cls-2" d="M202,530.1a13.23,13.23,0,0,1,26.46,0" transform="translate(-175.28 -206.09)"/><path class="cls-2" d="M227.65,525.8a8.2,8.2,0,0,1,7.19-4.09,7.9,7.9,0,0,1,8.12,7.65c0,.18,0,.36,0,.54" transform="translate(-175.28 -206.09)"/><path class="cls-2" d="M261,522.05a18.74,18.74,0,0,1,33.87,1.17" transform="translate(-175.28 -206.09)"/><path class="cls-2" d="M283.9,601" transform="translate(-175.28 -206.09)"/><path class="cls-2" d="M302.77,572.6V546.47h14.89v9.78a4.73,4.73,0,0,0,1.34,3.3,21,21,0,0,0,2.57,2.24,25.26,25.26,0,0,0,4.77,2.64,14.84,14.84,0,0,0,5.19,1.61,4.47,4.47,0,0,0,2.73-.42,3.13,3.13,0,0,0,1.44-1.53,3,3,0,0,0-.85-3.32,2.76,2.76,0,0,0-2-.68c-1.46.14-2.13,1.92-2.34,1.8s.18-1.45,1.15-2.55a5,5,0,0,1,3-1.71,5.06,5.06,0,0,1,3.19.57,5.88,5.88,0,0,1,2.52,3.39,9.27,9.27,0,0,1-1.7,9.15,12.24,12.24,0,0,1-2.09,1.86" transform="translate(-175.28 -206.09)"/><path class="cls-2" d="M302.77,546.81h-7.71v10.68a16.79,16.79,0,0,1-3.49,4,18.73,18.73,0,0,1-5.78,3.19c-3.27,1.3-4.94,1.24-5.58,1.19-1.06-.07-2.44-.19-3.1-1.23a3.1,3.1,0,0,1-.13-2.55c.11-.31.53-1.52,1.45-1.75,1.37-.34,2.66,1.86,3.1,1.58s0-2.46-1.57-3.62a4.58,4.58,0,0,0-3.62-.64c-2.61.61-3.75,3.29-4,4a9,9,0,0,0,.55,7.57,12.29,12.29,0,0,0,2.79,3.37" transform="translate(-175.28 -206.09)"/><line class="cls-2" x1="128.98" y1="340.38" x2="111.95" y2="272.17"/><line class="cls-2" x1="122.3" y1="340.72" x2="124.53" y2="322.58"/><line class="cls-2" x1="139.83" y1="340.38" x2="130.72" y2="274.34"/><line class="cls-2" x1="137.61" y1="324.27" x2="149.79" y2="272.17"/><path class="cls-2" d="M306,480.43a90.79,90.79,0,0,1-11.74-.52c-1.94-.2-2.95-.41-5.11-.59l-.92-.07a9.66,9.66,0,0,1-9-9.65h0a41.61,41.61,0,0,1,2.37-13.85l3.67-10.39h41.36l3.67,10.39a42.6,42.6,0,0,1,1.3,4.44" transform="translate(-175.28 -206.09)"/><path class="cls-2" d="M332.35,464a41.21,41.21,0,0,1,.37,5.56h0a9.66,9.66,0,0,1-9,9.65l-.92.07c-2.16.18-3.17.39-5.11.59a90.79,90.79,0,0,1-11.74.52l-.09-12.34" transform="translate(-175.28 -206.09)"/><path class="cls-2" d="M332.35,464" transform="translate(-175.28 -206.09)"/><polyline class="cls-2" points="124.06 239.28 116.98 253.34 110.04 239.28"/><polyline class="cls-2" points="124.06 239.28 131 253.34 138.09 239.28"/><polyline class="cls-2" points="138.09 239.28 145.02 253.34 151.69 240.1"/><line class="cls-2" x1="116.98" y1="253.34" x2="116.98" y2="239.28"/><line class="cls-2" x1="131" y1="253.34" x2="131" y2="239.28"/><line class="cls-2" x1="145.02" y1="253.34" x2="145.02" y2="239.28"/><line class="cls-2" x1="109.65" y1="240.39" x2="104.43" y2="196.13"/><path class="cls-2" d="M305.46,384.85v24l-14.69,15.69a.37.37,0,0,1-.64-.27l.89-22.06,7.41-13.78v-3.58" transform="translate(-175.28 -206.09)"/><circle class="cls-2" cx="115.2" cy="224.15" r="4.51"/><circle class="cls-2" cx="89.39" cy="200.63" r="4.51"/><polyline class="cls-2" points="92.13 197.06 102.3 187.02 123.15 182.34"/><line class="cls-2" x1="115.74" y1="196.13" x2="92.55" y2="197.06"/><path class="cls-2" d="M263.14,411l-3.95,3.41-20.12-17.19a8.86,8.86,0,0,0-11-.41l-.85.62,27.64,27.94a7.35,7.35,0,0,0,10.54-.08l15.16-15.84" transform="translate(-175.28 -206.09)"/><line class="cls-2" x1="59.01" y1="198.45" x2="65.46" y2="192.5"/><path class="cls-2" d="M202,463.93V613.54a2.33,2.33,0,0,0,2.33,2.33H407.5a2.33,2.33,0,0,0,2.33-2.33v-382a2.33,2.33,0,0,0-2.33-2.33H204.33a2.33,2.33,0,0,0-2.33,2.33V460.38" transform="translate(-175.28 -206.09)"/><line class="cls-2" x1="151.63" y1="240.39" x2="156.85" y2="196.13"/><path class="cls-2" d="M306.37,384.85v24l14.69,15.69a.37.37,0,0,0,.64-.27l-.89-22.06-7.41-13.78v-3.58" transform="translate(-175.28 -206.09)"/><circle class="cls-2" cx="146.08" cy="224.15" r="4.51"/><circle class="cls-2" cx="171.88" cy="200.63" r="4.51"/><polyline class="cls-2" points="169.15 197.06 158.98 187.02 138.13 182.34"/><line class="cls-2" x1="145.53" y1="196.13" x2="168.72" y2="197.06"/><path class="cls-2" d="M348.69,411l3.95,3.41,20.12-17.19a8.86,8.86,0,0,1,11-.41l.85.62L357,425.32a7.35,7.35,0,0,1-10.54-.08L331.28,409.4" transform="translate(-175.28 -206.09)"/><line class="cls-2" x1="202.26" y1="198.45" x2="195.82" y2="192.5"/><rect class="cls-2" x="108.94" y="136.76" width="44.89" height="6.18"/><path class="cls-2" d="M326.51,349v10.32h0a5,5,0,0,1,5,5v.31a4.62,4.62,0,0,1-4.62,4.62h0a15.39,15.39,0,0,1-15.39,15.55H301.05a15.39,15.39,0,0,1-15.4-15.55h0a4.62,4.62,0,0,1-4.62-4.62v-.31a5,5,0,0,1,5-5h0V349" transform="translate(-175.28 -206.09)"/><path class="cls-2" d="M303.84,373.32c-.22-.13-.77-.5-1.85-1.25a11.4,11.4,0,0,0-1.28-.86,3.54,3.54,0,0,0-3.35.16,3,3,0,0,0-1.12,2.43c.06,1.71,1.67,2.83,2.65,3.51a12.55,12.55,0,0,0,7.41,2,14.68,14.68,0,0,0,7.74-2.17,4.8,4.8,0,0,0,2.17-2.81,2.94,2.94,0,0,0-.11-2,3,3,0,0,0-2-1.53c-1.35-.3-2.18,1-3.32,1.66-2.4,1.47-1.69.94-2.72,1.31A5.35,5.35,0,0,1,303.84,373.32Z" transform="translate(-175.28 -206.09)"/><path class="cls-3" d="M258.49,593h-2.62v7.35h-1.61V593h-2.62v-1.33h6.85Z" transform="translate(-175.28 -206.09)"/><path class="cls-3" d="M274.14,591.66v8.68h-1.62v-3.79h-4.07v3.79h-1.62v-8.68h1.62v3.73h4.07v-3.73Z" transform="translate(-175.28 -206.09)"/><path class="cls-3" d="M284.9,593v2.4h3v1.24h-3v2.46h3.85v1.29h-5.47v-8.68h5.47V593Z" transform="translate(-175.28 -206.09)"/><path class="cls-3" d="M309.11,593v2.56h3.25v1.29h-3.25v3.54h-1.62v-8.68H313V593Z" transform="translate(-175.28 -206.09)"/><path class="cls-3" d="M329.76,596a4.84,4.84,0,0,1-.32,1.77,4.14,4.14,0,0,1-.89,1.4,3.91,3.91,0,0,1-1.38.93,4.78,4.78,0,0,1-1.81.33,4.71,4.71,0,0,1-1.79-.33,4,4,0,0,1-1.39-.93,4.32,4.32,0,0,1-.9-1.4,5.21,5.21,0,0,1,0-3.54,4.32,4.32,0,0,1,.9-1.4,4,4,0,0,1,1.39-.93,4.71,4.71,0,0,1,1.79-.33,5,5,0,0,1,1.25.15,4.79,4.79,0,0,1,1.07.43,4.08,4.08,0,0,1,.87.68,4.47,4.47,0,0,1,.66.89,4.57,4.57,0,0,1,.41,1.07A5.28,5.28,0,0,1,329.76,596Zm-1.65,0a4.2,4.2,0,0,0-.19-1.28,2.81,2.81,0,0,0-.55-1,2.29,2.29,0,0,0-.86-.61,3.23,3.23,0,0,0-2.29,0,2.29,2.29,0,0,0-.86.61,2.66,2.66,0,0,0-.55,1,4.41,4.41,0,0,0,0,2.56,2.66,2.66,0,0,0,.55,1,2.38,2.38,0,0,0,.86.6,3.23,3.23,0,0,0,2.29,0,2.38,2.38,0,0,0,.86-.6,2.81,2.81,0,0,0,.55-1A4.2,4.2,0,0,0,328.11,596Z" transform="translate(-175.28 -206.09)"/><path class="cls-3" d="M346.65,596a4.84,4.84,0,0,1-.31,1.77,4.14,4.14,0,0,1-.89,1.4,4,4,0,0,1-1.39.93,4.73,4.73,0,0,1-1.8.33,4.68,4.68,0,0,1-1.79-.33,4,4,0,0,1-1.39-.93,4,4,0,0,1-.9-1.4,5.06,5.06,0,0,1,0-3.54,4,4,0,0,1,.9-1.4,4,4,0,0,1,1.39-.93,4.68,4.68,0,0,1,1.79-.33,5,5,0,0,1,1.24.15,4.43,4.43,0,0,1,1.07.43,3.85,3.85,0,0,1,.87.68,4.11,4.11,0,0,1,.66.89,4.17,4.17,0,0,1,.41,1.07A4.78,4.78,0,0,1,346.65,596ZM345,596a3.91,3.91,0,0,0-.19-1.28,2.66,2.66,0,0,0-.55-1,2.22,2.22,0,0,0-.86-.61,2.93,2.93,0,0,0-1.14-.21,3,3,0,0,0-1.14.21,2.33,2.33,0,0,0-.87.61,2.66,2.66,0,0,0-.55,1,4.41,4.41,0,0,0,0,2.56,2.66,2.66,0,0,0,.55,1,2.42,2.42,0,0,0,.87.6,3,3,0,0,0,1.14.21,2.93,2.93,0,0,0,1.14-.21,2.3,2.3,0,0,0,.86-.6,2.66,2.66,0,0,0,.55-1A3.91,3.91,0,0,0,345,596Z" transform="translate(-175.28 -206.09)"/><path class="cls-3" d="M360.36,599v1.33h-5.09v-8.68h1.62V599Z" transform="translate(-175.28 -206.09)"/></svg>