<svg id="_0_Fou" data-name="0 Fou" xmlns="http://www.w3.org/2000/svg" viewBox="0 0 261.45 434.55"><defs><style>.cls-1{fill:#292b3f;}.cls-2{fill:none;stroke:#34e89e;stroke-miterlimit:10;stroke-width:2px;}.cls-3{fill:#34e89e;}</style></defs><title>0-fr</title><rect class="cls-1" width="261.45" height="434.55" rx="15.57"/><path class="cls-2" d="M686.36,463.93V613.54a2.33,2.33,0,0,1-2.33,2.33H480.86a2.33,2.33,0,0,1-2.33-2.33v-382a2.33,2.33,0,0,1,2.33-2.33H684a2.33,2.33,0,0,1,2.33,2.33V460.38" transform="translate(-451.64 -206.09)"/><line class="cls-2" x1="26.88" y1="366.51" x2="234.71" y2="366.51"/><line class="cls-2" x1="149.95" y1="258.09" x2="239.9" y2="258.09"/><path class="cls-2" d="M654.68,452.42a20.78,20.78,0,0,0-19.29-12.71c-11.48,0-20.78,9.06-20.78,20.24h-13" transform="translate(-451.64 -206.09)"/><path class="cls-2" d="M649.61,460c0-4.75,4.22-8.6,9.42-8.6s9.42,3.85,9.42,8.6" transform="translate(-451.64 -206.09)"/><path class="cls-2" d="M668.45,460.24a4.62,4.62,0,0,1,9.23,0h12.76" transform="translate(-451.64 -206.09)"/><circle class="cls-2" cx="209.96" cy="166.93" r="8.98"/><line class="cls-2" x1="209.96" y1="157.95" x2="209.96" y2="175.91"/><circle class="cls-2" cx="197.2" cy="126.88" r="8.98"/><line class="cls-2" x1="197.2" y1="117.9" x2="197.2" y2="135.87"/><circle class="cls-2" cx="172.66" cy="90" r="8.98"/><line class="cls-2" x1="172.66" y1="81.01" x2="172.66" y2="98.98"/><circle class="cls-2" cx="130.8" cy="73.65" r="8.98"/><line class="cls-2" x1="130.8" y1="64.66" x2="130.8" y2="82.63"/><circle class="cls-2" cx="89.76" cy="89.78" r="8.98"/><line class="cls-2" x1="89.76" y1="80.8" x2="89.76" y2="98.76"/><circle class="cls-2" cx="64.64" cy="126.38" r="8.98"/><line class="cls-2" x1="64.64" y1="117.4" x2="64.64" y2="135.37"/><circle class="cls-2" cx="52.46" cy="167.25" r="8.98"/><line class="cls-2" x1="52.46" y1="158.27" x2="52.46" y2="176.24"/><ellipse class="cls-2" cx="130.8" cy="43.69" rx="3.06" ry="4.37"/><line class="cls-2" x1="120.84" y1="157.47" x2="120.84" y2="152.17"/><line class="cls-2" x1="120.84" y1="150.89" x2="120.84" y2="148.15"/><line class="cls-2" x1="141.39" y1="157.47" x2="141.39" y2="152.17"/><line class="cls-2" x1="141.39" y1="150.89" x2="141.39" y2="148.15"/><circle class="cls-2" cx="131.26" cy="157.65" r="4.88"/><circle class="cls-2" cx="145.23" cy="161.5" r="2.14"/><circle class="cls-2" cx="117.41" cy="161.5" r="2.14"/><path class="cls-2" d="M641.66,520.89a13.13,13.13,0,0,1,22.19,9.5" transform="translate(-451.64 -206.09)"/><path class="cls-2" d="M663.15,526.17a7.79,7.79,0,0,1,6.94-4.44c4.33,0,7.92,3.84,7.92,8.43" transform="translate(-451.64 -206.09)"/><path class="cls-2" d="M677.93,531.06a4.75,4.75,0,0,1,4.53-4.93,4.43,4.43,0,0,1,3.76,2.17" transform="translate(-451.64 -206.09)"/><path class="cls-2" d="M598.89,530.63a8.91,8.91,0,0,1,17.81,0" transform="translate(-451.64 -206.09)"/><circle class="cls-2" cx="89.73" cy="136.01" r="4.33"/><path class="cls-2" d="M562,342.94V336.6a10.59,10.59,0,0,0-2.73-6.43,10.26,10.26,0,0,0-8.38-3.19c-4.67.47-8.76,4.58-9.66,10.13" transform="translate(-451.64 -206.09)"/><path class="cls-2" d="M573.85,342.89c0-.85.07-2.09.08-3.57a36.8,36.8,0,0,0-.08-4.09,14.3,14.3,0,0,0-2-5.44,17.36,17.36,0,0,0-5.19-5.7,16.84,16.84,0,0,0-8.26-2.81c-6.94-.27-12.49,4.94-15.06,9.53a18.51,18.51,0,0,0-2.2,6.6" transform="translate(-451.64 -206.09)"/><path class="cls-2" d="M583.14,342.87c0-.79,0-2,0-3.44-.11-4.26-.19-6.89-1.27-9.77a18.68,18.68,0,0,0-3.64-5.81,21.26,21.26,0,0,0-7-5.55,19.71,19.71,0,0,0-10.92-1.92,20.49,20.49,0,0,0-11.55,5.68,24.82,24.82,0,0,0-7.55,15.49" transform="translate(-451.64 -206.09)"/><path class="cls-2" d="M604.32,342.9v-3.44c0-2.73,0-2.74,0-2.9a10.53,10.53,0,0,1,2.72-6.42,10.29,10.29,0,0,1,8.39-3.19c4.66.47,8.75,4.57,9.66,10.12" transform="translate(-451.64 -206.09)"/><path class="cls-2" d="M592.49,342.86c0-.86-.07-2.09-.09-3.57a36.05,36.05,0,0,1,.09-4.09,14,14,0,0,1,2-5.44,17.32,17.32,0,0,1,5.19-5.71,17.05,17.05,0,0,1,8.25-2.81c7-.26,12.49,4.95,15.07,9.54a18.71,18.71,0,0,1,2.2,6.6" transform="translate(-451.64 -206.09)"/><path class="cls-2" d="M583.19,342.84c0-.79,0-2,0-3.45.12-4.25.19-6.88,1.28-9.76a18.56,18.56,0,0,1,3.64-5.81,21,21,0,0,1,7-5.55A19.67,19.67,0,0,1,606,316.35,20.47,20.47,0,0,1,617.6,322a24.82,24.82,0,0,1,7.55,15.49" transform="translate(-451.64 -206.09)"/><circle class="cls-2" cx="173.44" cy="136.01" r="4.33"/><path class="cls-2" d="M616.64,529.59a3.87,3.87,0,0,1,4-3.63,3.82,3.82,0,0,1,4,3.63" transform="translate(-451.64 -206.09)"/><path class="cls-2" d="M609,521.55A18.9,18.9,0,0,1,625.59,512c10.36,0,18.77,8,18.77,17.84" transform="translate(-451.64 -206.09)"/><path class="cls-2" d="M590.75,525.6a9.18,9.18,0,0,1,1.52,5h12.19" transform="translate(-451.64 -206.09)"/><path class="cls-2" d="M567.06,530.63c0-4.27,3-7.94,7.37-9.61" transform="translate(-451.64 -206.09)"/><path class="cls-2" d="M545.58,530.36a4.1,4.1,0,1,1,8.2,0" transform="translate(-451.64 -206.09)"/><path class="cls-2" d="M519.44,529.9a4.1,4.1,0,0,1,4.11-4.1c2.26,0,4.49,2.61,4.49,4.88" transform="translate(-451.64 -206.09)"/><path class="cls-2" d="M528,530.68a8.87,8.87,0,0,1,8.77-9,8.6,8.6,0,0,1,8.77,8.65" transform="translate(-451.64 -206.09)"/><path class="cls-2" d="M478.53,530.1a13.23,13.23,0,1,1,26.45,0" transform="translate(-451.64 -206.09)"/><path class="cls-2" d="M504.18,525.8a8.18,8.18,0,0,1,7.18-4.09,7.89,7.89,0,0,1,8.12,7.65,4.87,4.87,0,0,1,0,.54" transform="translate(-451.64 -206.09)"/><path class="cls-2" d="M537.56,522.05a18.74,18.74,0,0,1,33.87,1.17" transform="translate(-451.64 -206.09)"/><path class="cls-2" d="M560.42,601" transform="translate(-451.64 -206.09)"/><path class="cls-2" d="M632.55,597.38" transform="translate(-451.64 -206.09)"/><path class="cls-2" d="M579.29,572.6V546.47h14.9v9.78a4.69,4.69,0,0,0,1.34,3.3,21,21,0,0,0,2.57,2.24,25.26,25.26,0,0,0,4.77,2.64,14.78,14.78,0,0,0,5.19,1.61,4.44,4.44,0,0,0,2.72-.42,3.14,3.14,0,0,0,1.45-1.53,3,3,0,0,0-.85-3.32,2.76,2.76,0,0,0-2-.68c-1.46.14-2.14,1.92-2.34,1.8s.17-1.45,1.15-2.55a5,5,0,0,1,3-1.71,5.07,5.07,0,0,1,3.19.57,5.88,5.88,0,0,1,2.52,3.39,9.27,9.27,0,0,1-1.71,9.15A11.88,11.88,0,0,1,613,572.6" transform="translate(-451.64 -206.09)"/><path class="cls-2" d="M579.29,546.81h-7.7v10.68a16.79,16.79,0,0,1-3.49,4,18.66,18.66,0,0,1-5.79,3.19c-3.26,1.3-4.93,1.24-5.57,1.19-1.06-.07-2.45-.19-3.11-1.23a3.09,3.09,0,0,1-.12-2.55c.1-.31.53-1.52,1.44-1.75,1.38-.34,2.67,1.86,3.11,1.58s0-2.46-1.58-3.62a4.56,4.56,0,0,0-3.61-.64c-2.61.61-3.76,3.29-4,4a9,9,0,0,0,.56,7.57,11.94,11.94,0,0,0,2.79,3.37" transform="translate(-451.64 -206.09)"/><line class="cls-2" x1="129.14" y1="340.38" x2="112.11" y2="272.17"/><line class="cls-2" x1="122.46" y1="340.72" x2="124.69" y2="322.58"/><line class="cls-2" x1="139.99" y1="340.38" x2="130.88" y2="274.34"/><line class="cls-2" x1="137.77" y1="324.27" x2="149.95" y2="272.17"/><path class="cls-2" d="M582.53,480.43a91.07,91.07,0,0,1-11.75-.52c-1.93-.2-2.94-.41-5.1-.59l-.92-.07a9.66,9.66,0,0,1-9-9.65h0a41.62,41.62,0,0,1,2.38-13.85l3.67-10.39h41.36l3.67,10.39a42.55,42.55,0,0,1,1.29,4.44" transform="translate(-451.64 -206.09)"/><path class="cls-2" d="M608.88,464a42.91,42.91,0,0,1,.37,5.56h0a9.66,9.66,0,0,1-9,9.65l-.91.07c-2.16.18-3.18.39-5.11.59a90.79,90.79,0,0,1-11.74.52l-.09-12.34" transform="translate(-451.64 -206.09)"/><path class="cls-2" d="M608.88,464" transform="translate(-451.64 -206.09)"/><polyline class="cls-2" points="124.22 239.28 117.14 253.34 110.2 239.28"/><polyline class="cls-2" points="124.22 239.28 131.16 253.34 138.25 239.28"/><polyline class="cls-2" points="138.25 239.28 145.18 253.34 151.85 240.1"/><line class="cls-2" x1="117.14" y1="253.34" x2="117.14" y2="239.28"/><line class="cls-2" x1="131.16" y1="253.34" x2="131.16" y2="239.28"/><line class="cls-2" x1="145.18" y1="253.34" x2="145.18" y2="239.28"/><line class="cls-2" x1="109.81" y1="240.39" x2="104.59" y2="196.13"/><path class="cls-2" d="M582,384.85v24L567.3,424.54a.37.37,0,0,1-.65-.27l.9-22.06,7.4-13.78v-3.58" transform="translate(-451.64 -206.09)"/><circle class="cls-2" cx="115.36" cy="224.15" r="4.51"/><circle class="cls-2" cx="89.55" cy="200.63" r="4.51"/><polyline class="cls-2" points="92.29 197.06 102.46 187.02 123.31 182.34"/><line class="cls-2" x1="115.9" y1="196.13" x2="92.71" y2="197.06"/><path class="cls-2" d="M539.66,411l-3.94,3.41L515.6,397.17a8.87,8.87,0,0,0-11-.41l-.84.62,27.63,27.94a7.36,7.36,0,0,0,10.55-.08l15.16-15.84" transform="translate(-451.64 -206.09)"/><line class="cls-2" x1="59.17" y1="198.45" x2="65.62" y2="192.5"/><path class="cls-2" d="M478.53,463.93V613.54a2.33,2.33,0,0,0,2.33,2.33H684a2.33,2.33,0,0,0,2.33-2.33v-382a2.33,2.33,0,0,0-2.33-2.33H480.86a2.33,2.33,0,0,0-2.33,2.33V460.38" transform="translate(-451.64 -206.09)"/><line class="cls-2" x1="151.79" y1="240.39" x2="157.01" y2="196.13"/><path class="cls-2" d="M582.9,384.85v24l14.68,15.69a.37.37,0,0,0,.65-.27l-.89-22.06-7.41-13.78v-3.58" transform="translate(-451.64 -206.09)"/><circle class="cls-2" cx="146.24" cy="224.15" r="4.51"/><circle class="cls-2" cx="172.04" cy="200.63" r="4.51"/><polyline class="cls-2" points="169.31 197.06 159.14 187.02 138.29 182.34"/><line class="cls-2" x1="145.69" y1="196.13" x2="168.88" y2="197.06"/><path class="cls-2" d="M625.22,411l3.95,3.41,20.11-17.19a8.87,8.87,0,0,1,11-.41l.84.62-27.63,27.94a7.36,7.36,0,0,1-10.55-.08L607.81,409.4" transform="translate(-451.64 -206.09)"/><line class="cls-2" x1="202.42" y1="198.45" x2="195.98" y2="192.5"/><rect class="cls-2" x="109.1" y="136.76" width="44.89" height="6.18"/><path class="cls-2" d="M603,349v10.32h0a5,5,0,0,1,5,5v.31a4.62,4.62,0,0,1-4.62,4.62h0a15.39,15.39,0,0,1-15.39,15.55H577.57a15.39,15.39,0,0,1-15.39-15.55h0a4.62,4.62,0,0,1-4.62-4.62v-.31a5,5,0,0,1,5-5h0V349" transform="translate(-451.64 -206.09)"/><path class="cls-2" d="M580.37,373.32c-.23-.13-.77-.5-1.85-1.25a12.79,12.79,0,0,0-1.28-.86,3.54,3.54,0,0,0-3.35.16,3,3,0,0,0-1.12,2.43c.05,1.71,1.67,2.83,2.65,3.51a12.52,12.52,0,0,0,7.4,2,14.64,14.64,0,0,0,7.74-2.17,4.79,4.79,0,0,0,2.18-2.81,3,3,0,0,0-.12-2,3,3,0,0,0-2-1.53c-1.34-.3-2.17,1-3.32,1.66-2.39,1.47-1.69.94-2.71,1.31A5.35,5.35,0,0,1,580.37,373.32Z" transform="translate(-451.64 -206.09)"/><path class="cls-2" d="M543.05,611.05" transform="translate(-451.64 -206.09)"/><path class="cls-3" d="M549.64,599v1.33h-5.09v-8.68h1.62V599Z" transform="translate(-451.64 -206.09)"/><path class="cls-3" d="M559.61,593v2.4h3v1.24h-3v2.46h3.85v1.29H558v-8.68h5.47V593Z" transform="translate(-451.64 -206.09)"/><path class="cls-3" d="M583.82,593v2.56h3.26v1.29h-3.26v3.54H582.2v-8.68h5.48V593Z" transform="translate(-451.64 -206.09)"/><path class="cls-3" d="M604.47,596a4.84,4.84,0,0,1-.31,1.77,4,4,0,0,1-.9,1.4,3.91,3.91,0,0,1-1.38.93,5.07,5.07,0,0,1-3.6,0,3.91,3.91,0,0,1-1.38-.93,4,4,0,0,1-.9-1.4,5.06,5.06,0,0,1,0-3.54,4,4,0,0,1,.9-1.4,3.91,3.91,0,0,1,1.38-.93,4.73,4.73,0,0,1,1.8-.33,5,5,0,0,1,1.24.15,4.61,4.61,0,0,1,1.07.43,4.12,4.12,0,0,1,1.53,1.57,4.17,4.17,0,0,1,.41,1.07A5.28,5.28,0,0,1,604.47,596Zm-1.65,0a3.91,3.91,0,0,0-.19-1.28,2.66,2.66,0,0,0-.55-1,2.22,2.22,0,0,0-.86-.61,3,3,0,0,0-1.14-.21,2.9,2.9,0,0,0-1.14.21,2.33,2.33,0,0,0-.87.61,2.66,2.66,0,0,0-.55,1,4.41,4.41,0,0,0,0,2.56,2.66,2.66,0,0,0,.55,1,2.42,2.42,0,0,0,.87.6,2.9,2.9,0,0,0,1.14.21,3,3,0,0,0,1.14-.21,2.3,2.3,0,0,0,.86-.6,2.66,2.66,0,0,0,.55-1A3.91,3.91,0,0,0,602.82,596Z" transform="translate(-451.64 -206.09)"/><path class="cls-3" d="M616.59,599a2.15,2.15,0,0,0,.83-.16,1.56,1.56,0,0,0,.62-.44,1.89,1.89,0,0,0,.39-.68,2.83,2.83,0,0,0,.14-.9v-5.2h1.61v5.2a4,4,0,0,1-.25,1.43,3.2,3.2,0,0,1-1.84,1.88,4,4,0,0,1-1.5.26,4,4,0,0,1-1.51-.26,3.25,3.25,0,0,1-1.85-1.88,4.17,4.17,0,0,1-.24-1.43v-5.2h1.61v5.19a2.84,2.84,0,0,0,.13.9,1.94,1.94,0,0,0,.39.69,1.67,1.67,0,0,0,.63.44A2.17,2.17,0,0,0,616.59,599Z" transform="translate(-451.64 -206.09)"/></svg>