<svg id="_1_Magician" data-name="1 Magician" xmlns="http://www.w3.org/2000/svg" viewBox="0 0 267.21 444.13"><defs><style>.cls-1{fill:#292b3f;}.cls-2{fill:none;stroke:#34e89e;stroke-miterlimit:10;stroke-width:2px;}.cls-3{fill:#34e89e;}</style></defs><title>1-en</title><rect class="cls-1" width="267.21" height="444.13" rx="15.57"/><path class="cls-2" d="M412.51,345.68" transform="translate(-172.4 -201.33)"/><path class="cls-2" d="M412.51,345.68v272a2.38,2.38,0,0,1-2.38,2.38H202.49a2.39,2.39,0,0,1-2.39-2.38V227.27a2.39,2.39,0,0,1,2.39-2.38H410.13a2.38,2.38,0,0,1,2.38,2.38v115" transform="translate(-172.4 -201.33)"/><line class="cls-2" x1="158.11" y1="144.54" x2="245.2" y2="144.54"/><path class="cls-2" d="M378.86,334a20.88,20.88,0,0,0-40.09,7.3H331" transform="translate(-172.4 -201.33)"/><path class="cls-2" d="M373.48,342.74a10.22,10.22,0,1,1,20.44,0" transform="translate(-172.4 -201.33)"/><path class="cls-2" d="M393.92,342a4.47,4.47,0,0,1,8.93,0H417.6" transform="translate(-172.4 -201.33)"/><line class="cls-2" x1="65.46" y1="111.66" x2="109.55" y2="111.66"/><line class="cls-2" x1="21.24" y1="111.66" x2="54.35" y2="111.66"/><path class="cls-2" d="M223.22,290.19A20.87,20.87,0,0,0,211,308.37H193.63" transform="translate(-172.4 -201.33)"/><path class="cls-2" d="M251.1,301.06a20.89,20.89,0,0,0-14.37-12.17" transform="translate(-172.4 -201.33)"/><path class="cls-2" d="M245.73,309.85a10.22,10.22,0,0,1,20.43,0" transform="translate(-172.4 -201.33)"/><path class="cls-2" d="M266.16,309.16a4.48,4.48,0,0,1,8.94,0h7.78" transform="translate(-172.4 -201.33)"/><line class="cls-2" x1="133.25" y1="40.02" x2="133.25" y2="50.67"/><path class="cls-2" d="M232,259.92c.83-.56,3.73-2.64,3.78-5.59,0-1.38-.59-2.54-1.75-4.71a26.78,26.78,0,0,0-2.38-3.73h-.45a26.78,26.78,0,0,0-2.38,3.73c-1.16,2.17-1.77,3.33-1.75,4.71,0,2.95,2.95,5,3.79,5.59" transform="translate(-172.4 -201.33)"/><line class="cls-2" x1="59.01" y1="52.87" x2="59.01" y2="73.05"/><path class="cls-2" d="M227.39,268.6c.2-1,.81-4.51-1.22-6.64-1-1-2.21-1.4-4.56-2.14a26.59,26.59,0,0,0-4.31-1l-.32.31a27.72,27.72,0,0,0,.91,4.33c.71,2.36,1.08,3.61,2.07,4.59,2.1,2.06,5.63,1.51,6.61,1.33" transform="translate(-172.4 -201.33)"/><line class="cls-2" x1="50.57" y1="63.58" x2="59.01" y2="72.17"/><ellipse class="cls-2" cx="59.02" cy="71.63" rx="5.32" ry="3.75"/><polyline class="cls-2" points="53.7 71.63 53.7 88.03 50.29 84.19 50.57 90.09 53.81 93.32 55.72 157.73"/><polyline class="cls-2" points="64.34 87.56 64.34 107.44 67.99 103.41 67.37 109.61 63.56 115.43 62.55 157.73"/><line class="cls-2" x1="64.34" y1="71.63" x2="64.34" y2="87.55"/><line class="cls-2" x1="49.11" y1="216.1" x2="26.92" y2="216.11"/><path class="cls-2" d="M220.53,417.44" transform="translate(-172.4 -201.33)"/><line class="cls-2" x1="76.71" y1="216.11" x2="64.27" y2="216.11"/><path class="cls-2" d="M250.08,417.44" transform="translate(-172.4 -201.33)"/><path class="cls-2" d="M199.32,441.19H300.56a.29.29,0,0,0,.22-.47l-19-23.28h-8.65" transform="translate(-172.4 -201.33)"/><polyline class="cls-2" points="128.45 239.7 128.45 247.74 26.92 247.74"/><path class="cls-2" d="M281.76,417.44l4.65-17.39,38.82.6a.56.56,0,0,0,.44-.92L288,354.87l-8.23,1.25,6.69,43.64" transform="translate(-172.4 -201.33)"/><line class="cls-2" x1="118.75" y1="198.79" x2="118.75" y2="210.52"/><line class="cls-2" x1="122.56" y1="198.85" x2="122.56" y2="226.35"/><line class="cls-2" x1="141.19" y1="199.14" x2="134.43" y2="191.03"/><line class="cls-2" x1="147.24" y1="199.23" x2="131.17" y2="181.56"/><line class="cls-2" x1="153.92" y1="198.85" x2="160.59" y2="155.72"/><line class="cls-2" x1="133.84" y1="175.27" x2="152.46" y2="154.36"/><path class="cls-2" d="M282.27,372.62l-17.2,17.48a8.72,8.72,0,0,1-12.43,0l-27.3-27.74a1.2,1.2,0,0,1,.33-1.93l1.08-.51a10.14,10.14,0,0,1,11,1.41l19,16.2a3,3,0,0,0,4.18-.22l18.82-19.87" transform="translate(-172.4 -201.33)"/><path class="cls-2" d="M263.67,449.07h0a20.24,20.24,0,0,1,10.22,17.23l1.66,93.38h5V461.25A30.24,30.24,0,0,0,278,449.07h0" transform="translate(-172.4 -201.33)"/><path class="cls-2" d="M366.93,461.42c.84-.56,3.74-2.64,3.79-5.59,0-1.38-.6-2.54-1.75-4.71a26.69,26.69,0,0,0-2.39-3.73h-.44a26.69,26.69,0,0,0-2.39,3.73c-1.15,2.17-1.77,3.33-1.74,4.71,0,2.95,2.95,5,3.78,5.59" transform="translate(-172.4 -201.33)"/><path class="cls-2" d="M372.75,472.89c1,.18,4.52.73,6.62-1.34,1-1,1.35-2.23,2.05-4.59a26.6,26.6,0,0,0,.91-4.33l-.32-.31a26.79,26.79,0,0,0-4.31,1c-2.35.74-3.6,1.14-4.55,2.14-2,2.13-1.42,5.65-1.21,6.64" transform="translate(-172.4 -201.33)"/><path class="cls-2" d="M372.75,485.93c1,.18,4.52.73,6.62-1.34,1-1,1.35-2.23,2.05-4.59a26.6,26.6,0,0,0,.91-4.33l-.32-.31a26.79,26.79,0,0,0-4.31,1c-2.35.74-3.6,1.14-4.55,2.14-2,2.13-1.42,5.65-1.21,6.64" transform="translate(-172.4 -201.33)"/><path class="cls-2" d="M372.75,499.59c1,.19,4.52.73,6.62-1.34,1-1,1.35-2.23,2.05-4.59a26.39,26.39,0,0,0,.91-4.33L382,489a27.93,27.93,0,0,0-4.31,1c-2.35.74-3.6,1.14-4.55,2.14-2,2.14-1.42,5.66-1.21,6.64" transform="translate(-172.4 -201.33)"/><path class="cls-2" d="M360.62,471.52c.23-1,1-4.47-1-6.68-.91-1-2.15-1.47-4.47-2.29a27.1,27.1,0,0,0-4.28-1.13l-.33.3a27.47,27.47,0,0,0,.77,4.36c.62,2.38.95,3.65,1.9,4.66,2,2.13,5.57,1.7,6.57,1.55" transform="translate(-172.4 -201.33)"/><path class="cls-2" d="M360.62,485.34c.23-1,1-4.47-1-6.68-.91-1-2.15-1.47-4.47-2.29a27.1,27.1,0,0,0-4.28-1.13l-.33.3a27.47,27.47,0,0,0,.77,4.36c.62,2.38.95,3.65,1.9,4.66,2,2.13,5.57,1.7,6.57,1.55" transform="translate(-172.4 -201.33)"/><path class="cls-2" d="M360.62,499c.23-1,1-4.47-1-6.67-.91-1-2.15-1.48-4.47-2.3a27.1,27.1,0,0,0-4.28-1.13l-.33.3a27.47,27.47,0,0,0,.77,4.36c.62,2.38.95,3.65,1.9,4.66,2,2.13,5.57,1.71,6.57,1.55" transform="translate(-172.4 -201.33)"/><line class="cls-2" x1="193.97" y1="254.3" x2="193.97" y2="309.72"/><polyline class="cls-2" points="183.35 293.88 193.97 303.98 204.61 293.88"/><polyline class="cls-2" points="183.35 280.07 193.97 290.16 204.61 280.07"/><polyline class="cls-2" points="183.84 266.38 193.97 276.85 204.61 266.38"/><path class="cls-2" d="M402.88,461.42c.84-.56,3.74-2.64,3.79-5.59,0-1.38-.59-2.54-1.75-4.71a26.78,26.78,0,0,0-2.38-3.73h-.45a26.78,26.78,0,0,0-2.38,3.73c-1.16,2.17-1.77,3.33-1.75,4.71.05,2.95,3,5,3.78,5.59" transform="translate(-172.4 -201.33)"/><path class="cls-2" d="M408.7,472.89c1,.18,4.52.73,6.62-1.34,1-1,1.36-2.23,2.06-4.59a26.4,26.4,0,0,0,.9-4.33l-.31-.31a26.87,26.87,0,0,0-4.32,1c-2.34.74-3.59,1.14-4.55,2.14-2,2.13-1.42,5.65-1.21,6.64" transform="translate(-172.4 -201.33)"/><path class="cls-2" d="M408.7,485.93c1,.18,4.52.73,6.62-1.34,1-1,1.36-2.23,2.06-4.59a26.4,26.4,0,0,0,.9-4.33l-.31-.31a26.87,26.87,0,0,0-4.32,1c-2.34.74-3.59,1.14-4.55,2.14-2,2.13-1.42,5.65-1.21,6.64" transform="translate(-172.4 -201.33)"/><path class="cls-2" d="M408.7,499.59c1,.19,4.52.73,6.62-1.34,1-1,1.36-2.23,2.06-4.59a26.19,26.19,0,0,0,.9-4.33L418,489a28,28,0,0,0-4.32,1c-2.34.74-3.59,1.14-4.55,2.14-2,2.14-1.42,5.66-1.21,6.64" transform="translate(-172.4 -201.33)"/><path class="cls-2" d="M396.57,471.52c.24-1,1-4.47-1-6.68-.92-1-2.16-1.47-4.48-2.29a26.82,26.82,0,0,0-4.28-1.13l-.32.3a26.17,26.17,0,0,0,.76,4.36c.62,2.38.95,3.65,1.9,4.66,2,2.13,5.58,1.7,6.57,1.55" transform="translate(-172.4 -201.33)"/><path class="cls-2" d="M396.57,485.34c.24-1,1-4.47-1-6.68-.92-1-2.16-1.47-4.48-2.29a26.82,26.82,0,0,0-4.28-1.13l-.32.3a26.17,26.17,0,0,0,.76,4.36c.62,2.38.95,3.65,1.9,4.66,2,2.13,5.58,1.7,6.57,1.55" transform="translate(-172.4 -201.33)"/><path class="cls-2" d="M396.57,499c.24-1,1-4.47-1-6.67-.92-1-2.16-1.48-4.48-2.3a26.82,26.82,0,0,0-4.28-1.13l-.32.3a26.17,26.17,0,0,0,.76,4.36c.62,2.38.95,3.65,1.9,4.66,2,2.13,5.58,1.71,6.57,1.55" transform="translate(-172.4 -201.33)"/><line class="cls-2" x1="229.92" y1="254.3" x2="229.92" y2="309.72"/><polyline class="cls-2" points="219.3 293.88 229.92 303.98 240.57 293.88"/><polyline class="cls-2" points="219.3 280.07 229.92 290.16 240.57 280.07"/><polyline class="cls-2" points="219.79 266.38 229.92 276.85 240.57 266.38"/><path class="cls-2" d="M280.55,514.85c1.46-1.36,3.34-3.17,5.48-5.35,5.59-5.71,9.49-10.46,10.82-12.11A171.1,171.1,0,0,0,310.94,477c1.65-2.79,3.94-6.68,6.52-12.11a108.32,108.32,0,0,0,7-17.93,98.5,98.5,0,0,0,3.26-16.53,105.31,105.31,0,0,0,.35-16.3A113.2,113.2,0,0,0,326.34,400" transform="translate(-172.4 -201.33)"/><ellipse class="cls-2" cx="88.71" cy="211.04" rx="13.16" ry="12.36"/><path class="cls-2" d="M261.37,400.82l6.76,21.4a.19.19,0,0,1-.28.21L248.59,409a.05.05,0,0,1,0-.09l24.47-.45a.15.15,0,0,1,.09.28l-18.93,13.76a.13.13,0,0,1-.2-.14l6.8-21.53A.27.27,0,0,1,261.37,400.82Z" transform="translate(-172.4 -201.33)"/><rect class="cls-2" x="43.42" y="218.51" width="5.12" height="18.98" rx="2.51"/><polyline class="cls-2" points="48.54 223.99 103.73 224.45 109.09 228.99 103.85 232.95 48.54 232.95"/><line class="cls-2" x1="48.54" y1="228.47" x2="101.87" y2="228.88"/><ellipse class="cls-2" cx="23.07" cy="228.82" rx="2.47" ry="5.12"/><line class="cls-2" x1="23.07" y1="223.69" x2="43.42" y2="223.69"/><line class="cls-2" x1="23.07" y1="233.94" x2="43.42" y2="233.94"/><line class="cls-2" x1="28.81" y1="223.69" x2="33.25" y2="233.94"/><line class="cls-2" x1="32.74" y1="223.75" x2="37.18" y2="234"/><line class="cls-2" x1="36.11" y1="223.69" x2="40.55" y2="233.94"/><line class="cls-2" x1="40" y1="223.75" x2="43.3" y2="231.38"/><line class="cls-2" x1="24.7" y1="224.2" x2="29.14" y2="234.44"/><ellipse class="cls-2" cx="56.23" cy="184.66" rx="12.15" ry="5.74"/><path class="cls-2" d="M216.48,386c0,12,5.43,21.63,12.14,21.63S240.77,398,240.77,386" transform="translate(-172.4 -201.33)"/><path class="cls-2" d="M236.67,417.44c2.18,1,3.54,2.46,3.54,4.06s-1.15,2.82-3,3.82" transform="translate(-172.4 -201.33)"/><path class="cls-2" d="M236.67,417.44" transform="translate(-172.4 -201.33)"/><path class="cls-2" d="M218.73,419.48a7.39,7.39,0,0,1,2.78-2" transform="translate(-172.4 -201.33)"/><path class="cls-2" d="M218.45,419.89a3.71,3.71,0,0,1,.28-.41" transform="translate(-172.4 -201.33)"/><path class="cls-2" d="M225.55,416.23a15.87,15.87,0,0,0-4,1.21" transform="translate(-172.4 -201.33)"/><path class="cls-2" d="M236.67,417.44l-.4-.18a16.88,16.88,0,0,0-4.38-1.14" transform="translate(-172.4 -201.33)"/><path class="cls-2" d="M225.34,406.86V421l.16.07a7.24,7.24,0,0,0,6.46-.34h0V406.86" transform="translate(-172.4 -201.33)"/><line class="cls-2" x1="56.02" y1="164.15" x2="56.42" y2="178.93"/><line class="cls-2" x1="62.29" y1="170.53" x2="62.09" y2="179.64"/><path class="cls-2" d="M330,376.6l21.58,53.71a7,7,0,0,0,7.38,4.31l2.55-.34L337,363a10.1,10.1,0,0,0-6.94-6.48l-16.5-4.43v-4.46" transform="translate(-172.4 -201.33)"/><line class="cls-2" x1="125.51" y1="124.24" x2="125.51" y2="129.89"/><line class="cls-2" x1="142.58" y1="124.24" x2="142.58" y2="129.89"/><line class="cls-2" x1="133.84" y1="130.99" x2="133.84" y2="135.53"/><path class="cls-2" d="M303,339.27l1.36.83a3.63,3.63,0,0,0,3.81-.06l1.19-.77" transform="translate(-172.4 -201.33)"/><path class="cls-2" d="M288.25,507.19,289.77,521c.14,1.32.23,2.65.27,4l.41,14.19h-1.6a10.14,10.14,0,0,0-8.3,4.31h0" transform="translate(-172.4 -201.33)"/><polyline class="cls-2" points="108.16 345.66 126.73 345.66 126.36 293.66"/><path class="cls-2" d="M309.39,479.59V547h18.49a1.2,1.2,0,0,0,1-1.92l-.71-1A12.7,12.7,0,0,0,317.93,539h0c-.08-2.18-.12-5.13,0-8.62.05-1.53.21-5.39.93-11.76,1.21-10.7,2.19-12,2.68-17.46a59.82,59.82,0,0,0-1.28-18.4c.6-2,1.42-4.91,2.21-8.5,1.12-5.13,1.6-9,1.86-11.18.85-6.88,2-21.78,3.38-32.6" transform="translate(-172.4 -201.33)"/><path class="cls-2" d="M318.52,518.72a24.6,24.6,0,0,0,17.34-23.5h0l-1.48-15.84-6.2-61.94" transform="translate(-172.4 -201.33)"/><line class="cls-2" x1="126.15" y1="318.47" x2="137.32" y2="318.47"/><path class="cls-2" d="M298.54,519.8" transform="translate(-172.4 -201.33)"/><line class="cls-2" x1="108.16" y1="318.47" x2="117.44" y2="318.47"/><path class="cls-2" d="M290.45,350.8h31.91a8.83,8.83,0,0,0,8.83-8.6l.62-23.66a26,26,0,0,0-25.17-26.62h0a24,24,0,0,0-24.69,24V342.3A8.51,8.51,0,0,0,290.45,350.8Z" transform="translate(-172.4 -201.33)"/><line class="cls-2" x1="34.44" y1="309.72" x2="26.92" y2="309.72"/><line class="cls-2" x1="102.29" y1="309.72" x2="91.38" y2="309.72"/><line class="cls-2" x1="240.57" y1="309.72" x2="157.95" y2="309.72"/><polyline class="cls-2" points="115.57 153.54 127.29 150.75 127.29 146.28"/><path class="cls-2" d="M324.86,332.81l.59-.47a3.82,3.82,0,0,0-.59-6.4h0V316h-8.33a9.94,9.94,0,0,1-9.95-10h0a10.52,10.52,0,0,1-10.52,10.52h-7.82v9.7l-1,.55a3,3,0,0,0,.1,5.24l1.36.71h0a16.94,16.94,0,0,0,16.94,16.71h1.2l1.58,0a16.69,16.69,0,0,0,16.4-16.68Z" transform="translate(-172.4 -201.33)"/><path class="cls-2" d="M252.72,490.17c-.76.23.22,3.41-1,7a11.53,11.53,0,0,1-1.63,3,23,23,0,0,1-3.73-5.58c-2.54-5.41-4-14.06.12-18.87,1.3-1.53,3-2.46,2.79-2.79-.33-.57-5.58,2-6,2.21-3.74,1.83-7.9,3.91-11.88,8.19a32.6,32.6,0,0,0-3.26,4.15,41,41,0,0,0-3.61-2.56c-2.57-1.63-6.09-3.47-6.4-3s2.17,1.55,3.72,4.43c2.17,4,1.14,8.55.7,10.48-.14.63-.87,2.4-2.33,5.94-.74,1.8-1,2.32-1.51,2.44-1.45.34-4-2.56-4-5.36,0-1.34.65-2.09.47-2.21-.64-.39-5.39,4-7.34,10.13a19.84,19.84,0,0,0,.93,14.44,20.18,20.18,0,0,0,7,7.68c6.5,4.65,13.37,5,17.58,5.24a39.75,39.75,0,0,0,15.95-2.32c4.2-1.61,8.72-3.33,11.65-7.92a20.66,20.66,0,0,0,2.79-9.78,28.83,28.83,0,0,0-.93-10c-.43-1.55-.78-4.63-3-7.3-3.4-4.14-1.77-2-5.59-6.23C253.63,490.92,253.13,490.05,252.72,490.17Z" transform="translate(-172.4 -201.33)"/><path class="cls-2" d="M235.3,512.91c-1.36,0-1.9,1.91-3.3,4.58-1.57,3-1.93,5.5-.78,7.61a5.3,5.3,0,0,0,3.34,2.56,4.9,4.9,0,0,0,4.12-.93,5.34,5.34,0,0,0,1.55-4c0-.94-.11-2-1.48-5C237.07,513.88,236.23,512.92,235.3,512.91Z" transform="translate(-172.4 -201.33)"/><ellipse class="cls-2" cx="257.86" cy="544.16" rx="3.65" ry="2.48" transform="translate(-508.38 442.59) rotate(-74.18)"/><ellipse class="cls-2" cx="212.98" cy="543.88" rx="2.48" ry="3.65" transform="translate(-415.8 -21.98) rotate(-30)"/><line class="cls-2" x1="38.76" y1="339.39" x2="51.77" y2="332.52"/><line class="cls-2" x1="42.41" y1="345.71" x2="62.24" y2="333.84"/><line class="cls-2" x1="84.47" y1="346.34" x2="64.34" y2="333.84"/><line class="cls-2" x1="86.46" y1="339.32" x2="74.4" y2="332.27"/><path class="cls-2" d="M311.64,322.07A3.45,3.45,0,0,1,313,321a4.43,4.43,0,0,1,4.6,1.05" transform="translate(-172.4 -201.33)"/><path class="cls-2" d="M294.93,321.89a3.44,3.44,0,0,1,1.34-1.1,4.39,4.39,0,0,1,4.6,1" transform="translate(-172.4 -201.33)"/><path class="cls-2" d="M240.23,493.31c-.46-.57-3.86,1.22-6.43,3-2.84,2-6.53,4.46-9.25,9.38a20.62,20.62,0,0,0-2.85,13.39,14.86,14.86,0,0,0,4,8.61,14.3,14.3,0,0,0,9.67,4.08,14.57,14.57,0,0,0,9.43-3.32,13.68,13.68,0,0,0,4.77-7.39,13.84,13.84,0,0,0-.58-7.86c-1.58-4.72-5.1-8.08-5.82-7.69-.29.16,0,.82-.41,2.27-.25.84-.49,1.65-1.1,1.92-.93.41-2.25-.59-2.92-1.34a6.75,6.75,0,0,1-1.39-4.25,12.15,12.15,0,0,1,.58-5.12c.32-.93,1-2.4,1.51-3.55C240.11,493.92,240.4,493.52,240.23,493.31Z" transform="translate(-172.4 -201.33)"/><path class="cls-2" d="M306.21,276.2c-1.23,1.42-1.78,2.21-3.3,3.77-2.33,2.4-3.2,2.77-3.73,2.95a6.81,6.81,0,0,1-4.27-.08,6.72,6.72,0,0,1-4.31-3.69c-1.07-2.74.46-5.29.9-6a6.46,6.46,0,0,1,3.65-3.15c2.42-.65,4.64.82,6.05,1.75,3.05,2,2.84,3.56,6.91,7.45a16,16,0,0,0,4.69,3.46c1.43.61,4,1.71,6.33.58a6.53,6.53,0,0,0,3-3.42,7,7,0,0,0,.5-5.39,6.79,6.79,0,0,0-3.33-3.69c-3.74-1.89-7.86.48-8.43.82C309.61,272.3,308.47,273.6,306.21,276.2Z" transform="translate(-172.4 -201.33)"/><path class="cls-2" d="M200.27,574.9a30.45,30.45,0,0,0,10.21-4.2l3.72-2.4a30.34,30.34,0,0,1,29.88-1.73l11.57,5.7a30.35,30.35,0,0,0,31.29-2.69h0a30.35,30.35,0,0,1,32.87-1.87l6.82,3.87a30.33,30.33,0,0,0,30.76-.47l7.29-4.43a30.33,30.33,0,0,1,34.11,1.75l.06,0a30.36,30.36,0,0,0,13.39,5.76" transform="translate(-172.4 -201.33)"/><path class="cls-2" d="M200.15,581.54a30.42,30.42,0,0,0,10.22-4.2l3.71-2.4A30.34,30.34,0,0,1,244,573.21l11.57,5.7a30.37,30.37,0,0,0,31.3-2.69h0a30.33,30.33,0,0,1,32.86-1.87l6.83,3.87a30.36,30.36,0,0,0,30.76-.46l7.28-4.44a30.35,30.35,0,0,1,34.12,1.75l.06,0a30.36,30.36,0,0,0,13.39,5.76" transform="translate(-172.4 -201.33)"/><path class="cls-3" d="M228.51,596.73h-2.68v7.51h-1.65v-7.51h-2.67v-1.36h7Z" transform="translate(-172.4 -201.33)"/><path class="cls-3" d="M244.51,595.37v8.87h-1.66v-3.88h-4.16v3.88H237v-8.87h1.66v3.81h4.16v-3.81Z" transform="translate(-172.4 -201.33)"/><path class="cls-3" d="M255.49,596.68v2.46h3.11v1.27h-3.11v2.51h3.94v1.32h-5.59v-8.87h5.59v1.31Z" transform="translate(-172.4 -201.33)"/><path class="cls-3" d="M288.2,595.37v8.87h-1.45v-5.73a6.46,6.46,0,0,1,0-.74l-2.68,5a.63.63,0,0,1-.59.36h-.23a.62.62,0,0,1-.58-.36l-2.71-5,0,.4c0,.13,0,.25,0,.36v5.73h-1.45v-8.87H280a.37.37,0,0,1,.15,0,.21.21,0,0,1,.11.08.57.57,0,0,1,.11.14l2.65,4.93c.07.13.13.26.19.4l.18.43c.06-.15.11-.3.18-.44s.12-.27.19-.4l2.62-4.92a.4.4,0,0,1,.11-.14.2.2,0,0,1,.12-.08.32.32,0,0,1,.14,0h1.43Z" transform="translate(-172.4 -201.33)"/><path class="cls-3" d="M305.14,604.24h-1.28a.56.56,0,0,1-.35-.11.6.6,0,0,1-.2-.27l-.66-1.81H299l-.66,1.81a.58.58,0,0,1-.19.26.51.51,0,0,1-.35.12h-1.29l3.49-8.87h1.68Zm-2.92-3.35-1.08-2.95c-.05-.13-.11-.29-.16-.47s-.12-.37-.17-.58c-.06.21-.11.4-.17.59a4.87,4.87,0,0,1-.17.47l-1.07,2.94Z" transform="translate(-172.4 -201.33)"/><path class="cls-3" d="M320.72,599.79v3.59a5,5,0,0,1-1.43.73,5.8,5.8,0,0,1-1.64.22,5.52,5.52,0,0,1-2-.33,4.55,4.55,0,0,1-1.51-.94,4.29,4.29,0,0,1-1-1.43,5.31,5.31,0,0,1,0-3.66,4.39,4.39,0,0,1,.92-1.44,4.2,4.2,0,0,1,1.45-.93,5.3,5.3,0,0,1,1.92-.33,5.42,5.42,0,0,1,1,.09,5.53,5.53,0,0,1,.87.23,4.16,4.16,0,0,1,.73.37,4.71,4.71,0,0,1,.61.47l-.47.75a.48.48,0,0,1-.29.22.59.59,0,0,1-.39-.09l-.4-.24a4.68,4.68,0,0,0-.45-.2l-.56-.14a3.94,3.94,0,0,0-.72-.05,3,3,0,0,0-1.18.22,2.33,2.33,0,0,0-.91.63,2.68,2.68,0,0,0-.57,1,3.7,3.7,0,0,0-.21,1.28,4.08,4.08,0,0,0,.22,1.36,2.9,2.9,0,0,0,.61,1,2.59,2.59,0,0,0,1,.63,3.26,3.26,0,0,0,1.24.22,3.38,3.38,0,0,0,.88-.1,4.81,4.81,0,0,0,.75-.28V601h-1.11a.33.33,0,0,1-.25-.09.29.29,0,0,1-.09-.22v-.93Z" transform="translate(-172.4 -201.33)"/><path class="cls-3" d="M331.33,604.24h-1.65v-8.87h1.65Z" transform="translate(-172.4 -201.33)"/><path class="cls-3" d="M346.76,602.15a.33.33,0,0,1,.24.1l.65.71a3.62,3.62,0,0,1-1.33,1,5.09,5.09,0,0,1-3.66,0,4,4,0,0,1-1.35-.94,4.2,4.2,0,0,1-.86-1.43,5.66,5.66,0,0,1-.29-1.83,5,5,0,0,1,.32-1.83,4.27,4.27,0,0,1,.89-1.43,4,4,0,0,1,1.39-.93,4.45,4.45,0,0,1,1.78-.34,4.38,4.38,0,0,1,1.71.32,3.85,3.85,0,0,1,1.28.84l-.55.76a.49.49,0,0,1-.12.13.38.38,0,0,1-.41,0,1.35,1.35,0,0,1-.21-.13L346,597a1.5,1.5,0,0,0-.36-.17,2.43,2.43,0,0,0-.47-.13,2.78,2.78,0,0,0-.61-.05,2.75,2.75,0,0,0-1.09.21,2.34,2.34,0,0,0-.85.61,2.84,2.84,0,0,0-.55,1,4.16,4.16,0,0,0-.2,1.32,3.87,3.87,0,0,0,.21,1.33,3.19,3.19,0,0,0,.58,1,2.6,2.6,0,0,0,.85.61,2.67,2.67,0,0,0,1.06.21,5.32,5.32,0,0,0,.6,0,2,2,0,0,0,.51-.12,2.11,2.11,0,0,0,.43-.2,2.94,2.94,0,0,0,.41-.31.51.51,0,0,1,.13-.09A.35.35,0,0,1,346.76,602.15Z" transform="translate(-172.4 -201.33)"/><path class="cls-3" d="M357.8,604.24h-1.66v-8.87h1.66Z" transform="translate(-172.4 -201.33)"/><path class="cls-3" d="M374.74,604.24h-1.28a.56.56,0,0,1-.35-.11.6.6,0,0,1-.2-.27l-.66-1.81h-3.68l-.66,1.81a.58.58,0,0,1-.19.26.51.51,0,0,1-.35.12h-1.29l3.49-8.87h1.68Zm-2.92-3.35-1.08-2.95c-.05-.13-.11-.29-.16-.47s-.12-.37-.17-.58c-.06.21-.11.4-.17.59a4.87,4.87,0,0,1-.17.47L369,600.89Z" transform="translate(-172.4 -201.33)"/><path class="cls-3" d="M390.49,595.37v8.87h-.85a.67.67,0,0,1-.33-.07.71.71,0,0,1-.25-.22L384.43,598a6.75,6.75,0,0,1,0,.75v5.45H383v-8.87h1.05a.4.4,0,0,1,.13,0,.28.28,0,0,1,.12.08l.12.13,4.65,5.94,0-.42c0-.14,0-.27,0-.39v-5.39Z" transform="translate(-172.4 -201.33)"/></svg>