<svg id="_1_Magicien" data-name="1 Magicien" xmlns="http://www.w3.org/2000/svg" viewBox="0 0 261.61 434.59"><defs><style>.cls-1{fill:#292b3f;}.cls-2{fill:none;stroke:#34e89e;stroke-miterlimit:10;stroke-width:2px;}.cls-3{fill:#34e89e;}</style></defs><title>1-fr</title><rect class="cls-1" width="261.45" height="434.55" rx="15.57"/><path class="cls-2" d="M686.28,463.23V612.84a2.33,2.33,0,0,1-2.33,2.33H480.78a2.33,2.33,0,0,1-2.33-2.33v-382a2.33,2.33,0,0,1,2.33-2.33H684a2.33,2.33,0,0,1,2.33,2.33V459.68" transform="translate(-451.56 -205.39)"/><line class="cls-2" x1="26.88" y1="366.51" x2="234.71" y2="366.51"/><line class="cls-2" x1="149.95" y1="258.09" x2="239.9" y2="258.09"/><path class="cls-2" d="M654.6,451.72A20.78,20.78,0,0,0,635.31,439c-11.48,0-20.78,9.06-20.78,20.24h-13" transform="translate(-451.56 -205.39)"/><path class="cls-2" d="M649.53,459.25c0-4.75,4.22-8.6,9.42-8.6s9.42,3.85,9.42,8.6" transform="translate(-451.56 -205.39)"/><path class="cls-2" d="M668.37,459.54a4.62,4.62,0,0,1,9.23,0h12.76" transform="translate(-451.56 -205.39)"/><circle class="cls-2" cx="209.96" cy="166.93" r="8.98"/><line class="cls-2" x1="209.96" y1="157.95" x2="209.96" y2="175.91"/><circle class="cls-2" cx="197.2" cy="126.88" r="8.98"/><line class="cls-2" x1="197.2" y1="117.9" x2="197.2" y2="135.87"/><circle class="cls-2" cx="172.66" cy="90" r="8.98"/><line class="cls-2" x1="172.66" y1="81.01" x2="172.66" y2="98.98"/><circle class="cls-2" cx="130.8" cy="73.65" r="8.98"/><line class="cls-2" x1="130.8" y1="64.66" x2="130.8" y2="82.63"/><circle class="cls-2" cx="89.76" cy="89.78" r="8.98"/><line class="cls-2" x1="89.76" y1="80.8" x2="89.76" y2="98.76"/><circle class="cls-2" cx="64.64" cy="126.38" r="8.98"/><line class="cls-2" x1="64.64" y1="117.4" x2="64.64" y2="135.37"/><circle class="cls-2" cx="52.46" cy="167.25" r="8.98"/><line class="cls-2" x1="52.46" y1="158.27" x2="52.46" y2="176.24"/><ellipse class="cls-2" cx="130.8" cy="43.69" rx="3.06" ry="4.37"/><line class="cls-2" x1="120.84" y1="157.47" x2="120.84" y2="152.17"/><line class="cls-2" x1="120.84" y1="150.89" x2="120.84" y2="148.15"/><line class="cls-2" x1="141.39" y1="157.47" x2="141.39" y2="152.17"/><line class="cls-2" x1="141.39" y1="150.89" x2="141.39" y2="148.15"/><circle class="cls-2" cx="131.26" cy="157.65" r="4.88"/><circle class="cls-2" cx="145.23" cy="161.5" r="2.14"/><circle class="cls-2" cx="117.41" cy="161.5" r="2.14"/><path class="cls-2" d="M641.58,520.19a13.13,13.13,0,0,1,22.19,9.5" transform="translate(-451.56 -205.39)"/><path class="cls-2" d="M663.07,525.47A7.79,7.79,0,0,1,670,521c4.33,0,7.92,3.84,7.92,8.43" transform="translate(-451.56 -205.39)"/><path class="cls-2" d="M677.85,530.36a4.75,4.75,0,0,1,4.53-4.93,4.43,4.43,0,0,1,3.76,2.17" transform="translate(-451.56 -205.39)"/><path class="cls-2" d="M598.81,529.93a8.91,8.91,0,0,1,17.81,0" transform="translate(-451.56 -205.39)"/><circle class="cls-2" cx="89.73" cy="136.01" r="4.33"/><path class="cls-2" d="M561.94,342.24V335.9a10.59,10.59,0,0,0-2.73-6.43,10.26,10.26,0,0,0-8.38-3.19c-4.67.47-8.75,4.58-9.66,10.13" transform="translate(-451.56 -205.39)"/><path class="cls-2" d="M573.77,342.19c0-.85.07-2.09.08-3.57a36.8,36.8,0,0,0-.08-4.09,14.3,14.3,0,0,0-2-5.44,17.25,17.25,0,0,0-5.19-5.7,16.84,16.84,0,0,0-8.26-2.81c-6.94-.27-12.49,4.95-15.06,9.53a18.55,18.55,0,0,0-2.2,6.61" transform="translate(-451.56 -205.39)"/><path class="cls-2" d="M583.06,342.17c0-.79,0-2,0-3.44-.11-4.25-.19-6.89-1.27-9.77a18.68,18.68,0,0,0-3.64-5.81,21.26,21.26,0,0,0-7-5.55,19.71,19.71,0,0,0-10.92-1.92,20.49,20.49,0,0,0-11.55,5.68,24.85,24.85,0,0,0-7.55,15.49" transform="translate(-451.56 -205.39)"/><path class="cls-2" d="M604.24,342.2v-3.44c0-2.73,0-2.74,0-2.9a10.53,10.53,0,0,1,2.72-6.42,10.29,10.29,0,0,1,8.39-3.19c4.66.47,8.75,4.57,9.66,10.12" transform="translate(-451.56 -205.39)"/><path class="cls-2" d="M592.41,342.16c0-.86-.07-2.09-.09-3.57a36.05,36.05,0,0,1,.09-4.09,14,14,0,0,1,2-5.44,17.44,17.44,0,0,1,5.19-5.71,17,17,0,0,1,8.25-2.8c7-.27,12.49,4.94,15.07,9.53a18.71,18.71,0,0,1,2.2,6.6" transform="translate(-451.56 -205.39)"/><path class="cls-2" d="M583.11,342.14c0-.79,0-2,0-3.45.12-4.25.19-6.88,1.28-9.76a18.56,18.56,0,0,1,3.64-5.81,21,21,0,0,1,7-5.55A19.67,19.67,0,0,1,606,315.65a20.53,20.53,0,0,1,11.56,5.68,24.82,24.82,0,0,1,7.55,15.49" transform="translate(-451.56 -205.39)"/><circle class="cls-2" cx="173.44" cy="136.01" r="4.33"/><path class="cls-2" d="M616.56,528.89a3.87,3.87,0,0,1,4-3.63,3.82,3.82,0,0,1,4,3.63" transform="translate(-451.56 -205.39)"/><path class="cls-2" d="M608.87,520.85a18.9,18.9,0,0,1,16.64-9.59c10.36,0,18.77,8,18.77,17.84" transform="translate(-451.56 -205.39)"/><path class="cls-2" d="M590.67,524.9a9.2,9.2,0,0,1,1.52,5h12.19" transform="translate(-451.56 -205.39)"/><path class="cls-2" d="M567,529.93c0-4.27,3-7.94,7.37-9.61" transform="translate(-451.56 -205.39)"/><path class="cls-2" d="M545.5,529.66a4.1,4.1,0,0,1,8.2,0" transform="translate(-451.56 -205.39)"/><path class="cls-2" d="M519.36,529.2a4.1,4.1,0,0,1,4.11-4.1c2.26,0,4.49,2.61,4.49,4.88" transform="translate(-451.56 -205.39)"/><path class="cls-2" d="M528,530a8.87,8.87,0,0,1,8.77-9,8.6,8.6,0,0,1,8.77,8.65" transform="translate(-451.56 -205.39)"/><path class="cls-2" d="M478.45,529.4a13.23,13.23,0,1,1,26.45,0" transform="translate(-451.56 -205.39)"/><path class="cls-2" d="M504.1,525.1a8.18,8.18,0,0,1,7.18-4.09,7.89,7.89,0,0,1,8.12,7.65,4.87,4.87,0,0,1,0,.54" transform="translate(-451.56 -205.39)"/><path class="cls-2" d="M537.48,521.35a18.74,18.74,0,0,1,33.87,1.17" transform="translate(-451.56 -205.39)"/><line class="cls-2" x1="75.9" y1="387.83" x2="83.88" y2="387.83"/><line class="cls-2" x1="79.89" y1="387.83" x2="79.89" y2="395.91"/><line class="cls-2" x1="91.86" y1="386.94" x2="91.86" y2="395.91"/><line class="cls-2" x1="98.88" y1="386.94" x2="98.88" y2="395.91"/><line class="cls-2" x1="91.86" y1="390.86" x2="98.88" y2="390.86"/><path class="cls-2" d="M560.34,600.28" transform="translate(-451.56 -205.39)"/><polyline class="cls-2" points="113.88 394.91 108.75 394.91 108.75 387.92 113.88 387.92"/><line class="cls-2" x1="108.76" y1="391.41" x2="113.88" y2="391.41"/><circle class="cls-2" cx="150.12" cy="391.29" r="4.2"/><circle class="cls-2" cx="167.04" cy="391.29" r="4.2"/><polyline class="cls-2" points="186.03 394.79 180.91 394.79 180.91 386.94"/><path class="cls-2" d="M632.47,596.68" transform="translate(-451.56 -205.39)"/><polyline class="cls-2" points="131.89 395.91 131.89 387.92 137.01 387.92"/><line class="cls-2" x1="131.89" y1="391.41" x2="137.01" y2="391.41"/><path class="cls-2" d="M579.21,571.9V545.77h14.9v9.78a4.69,4.69,0,0,0,1.34,3.3,21,21,0,0,0,2.57,2.24,24.72,24.72,0,0,0,4.77,2.64,14.78,14.78,0,0,0,5.19,1.61,4.44,4.44,0,0,0,2.72-.42,3.14,3.14,0,0,0,1.45-1.53,3,3,0,0,0-.85-3.32,2.76,2.76,0,0,0-2-.68c-1.46.14-2.14,1.92-2.34,1.8s.17-1.45,1.15-2.55a5,5,0,0,1,3-1.71,5.07,5.07,0,0,1,3.19.57,5.88,5.88,0,0,1,2.52,3.39,9.3,9.3,0,0,1-1.71,9.16A12.17,12.17,0,0,1,613,571.9" transform="translate(-451.56 -205.39)"/><path class="cls-2" d="M579.21,546.11h-7.7v10.68a16.79,16.79,0,0,1-3.49,4,18.66,18.66,0,0,1-5.79,3.19,12.46,12.46,0,0,1-5.57,1.2c-1.06-.08-2.45-.2-3.11-1.24a3.09,3.09,0,0,1-.12-2.55c.1-.31.53-1.52,1.44-1.75,1.38-.34,2.67,1.87,3.11,1.58s0-2.46-1.58-3.62a4.56,4.56,0,0,0-3.61-.64c-2.61.61-3.76,3.29-4,4a9,9,0,0,0,.56,7.57,11.94,11.94,0,0,0,2.79,3.37" transform="translate(-451.56 -205.39)"/><line class="cls-2" x1="129.14" y1="340.38" x2="112.11" y2="272.17"/><line class="cls-2" x1="122.46" y1="340.72" x2="124.69" y2="322.58"/><line class="cls-2" x1="139.99" y1="340.38" x2="130.88" y2="274.34"/><line class="cls-2" x1="137.77" y1="324.27" x2="149.95" y2="272.17"/><path class="cls-2" d="M582.45,479.73a93.48,93.48,0,0,1-11.75-.51c-1.93-.21-2.94-.42-5.1-.6l-.92-.07a9.66,9.66,0,0,1-9-9.65h0a41.62,41.62,0,0,1,2.38-13.85l3.67-10.39h41.36l3.67,10.39a42.55,42.55,0,0,1,1.29,4.44" transform="translate(-451.56 -205.39)"/><path class="cls-2" d="M608.8,463.34a41.21,41.21,0,0,1,.37,5.56h0a9.66,9.66,0,0,1-9,9.65l-.91.07c-2.16.18-3.18.39-5.11.6a93.18,93.18,0,0,1-11.74.51l-.09-12.34" transform="translate(-451.56 -205.39)"/><path class="cls-2" d="M608.8,463.34" transform="translate(-451.56 -205.39)"/><polyline class="cls-2" points="124.22 239.28 117.14 253.34 110.2 239.28"/><polyline class="cls-2" points="124.22 239.28 131.16 253.34 138.25 239.28"/><polyline class="cls-2" points="138.25 239.28 145.18 253.34 151.85 240.1"/><line class="cls-2" x1="117.14" y1="253.34" x2="117.14" y2="239.28"/><line class="cls-2" x1="131.16" y1="253.34" x2="131.16" y2="239.28"/><line class="cls-2" x1="145.18" y1="253.34" x2="145.18" y2="239.28"/><line class="cls-2" x1="109.81" y1="240.39" x2="104.59" y2="196.13"/><path class="cls-2" d="M581.91,384.15v24l-14.69,15.69a.37.37,0,0,1-.65-.27l.9-22.06,7.4-13.78v-3.58" transform="translate(-451.56 -205.39)"/><circle class="cls-2" cx="115.36" cy="224.15" r="4.51"/><circle class="cls-2" cx="89.55" cy="200.63" r="4.51"/><polyline class="cls-2" points="92.29 197.06 102.46 187.02 123.31 182.34"/><line class="cls-2" x1="115.9" y1="196.13" x2="92.71" y2="197.06"/><path class="cls-2" d="M539.58,410.25l-3.94,3.41-20.12-17.19a8.87,8.87,0,0,0-11-.41l-.84.62,27.63,27.95a7.37,7.37,0,0,0,10.55-.09L557,408.7" transform="translate(-451.56 -205.39)"/><line class="cls-2" x1="59.17" y1="198.45" x2="65.62" y2="192.5"/><path class="cls-2" d="M478.45,463.23V612.84a2.33,2.33,0,0,0,2.33,2.33H684a2.33,2.33,0,0,0,2.33-2.33v-382a2.33,2.33,0,0,0-2.33-2.33H480.78a2.33,2.33,0,0,0-2.33,2.33V459.68" transform="translate(-451.56 -205.39)"/><line class="cls-2" x1="151.79" y1="240.39" x2="157.01" y2="196.13"/><path class="cls-2" d="M582.82,384.15v24l14.68,15.69a.37.37,0,0,0,.65-.27l-.89-22.06-7.41-13.78v-3.58" transform="translate(-451.56 -205.39)"/><circle class="cls-2" cx="146.24" cy="224.15" r="4.51"/><circle class="cls-2" cx="172.04" cy="200.63" r="4.51"/><polyline class="cls-2" points="169.31 197.06 159.14 187.02 138.29 182.34"/><line class="cls-2" x1="145.69" y1="196.13" x2="168.88" y2="197.06"/><path class="cls-2" d="M625.14,410.25l4,3.41,20.12-17.19a8.86,8.86,0,0,1,11-.41l.84.62-27.63,27.95a7.37,7.37,0,0,1-10.55-.09L607.73,408.7" transform="translate(-451.56 -205.39)"/><line class="cls-2" x1="202.42" y1="198.45" x2="195.98" y2="192.5"/><rect class="cls-2" x="109.1" y="136.76" width="44.89" height="6.18"/><path class="cls-2" d="M603,348.32v10.32h0a5,5,0,0,1,5,5V364a4.62,4.62,0,0,1-4.62,4.62h0A15.39,15.39,0,0,1,588,384.15H577.49A15.39,15.39,0,0,1,562.1,368.6h0a4.62,4.62,0,0,1-4.62-4.62v-.31a5,5,0,0,1,5-5h0V348.32" transform="translate(-451.56 -205.39)"/><path class="cls-2" d="M580.29,372.62c-.23-.13-.77-.5-1.85-1.25a12.79,12.79,0,0,0-1.28-.86,3.54,3.54,0,0,0-3.35.16,3,3,0,0,0-1.12,2.43c0,1.71,1.67,2.83,2.65,3.51a12.52,12.52,0,0,0,7.4,2,14.64,14.64,0,0,0,7.74-2.17,4.79,4.79,0,0,0,2.18-2.81,3,3,0,0,0-.12-2,3,3,0,0,0-2-1.53c-1.34-.3-2.17,1-3.32,1.66-2.39,1.47-1.69.94-2.71,1.31A5.35,5.35,0,0,1,580.29,372.62Z" transform="translate(-451.56 -205.39)"/><path class="cls-2" d="M615.37,649.51" transform="translate(-451.56 -205.39)"/><rect class="cls-1" x="0.16" y="0.03" width="261.45" height="434.55" rx="15.57"/><path class="cls-2" d="M686.66,346.65" transform="translate(-451.56 -205.39)"/><path class="cls-2" d="M686.66,346.65V612.82a2.33,2.33,0,0,1-2.33,2.33H481.16a2.33,2.33,0,0,1-2.33-2.33v-382a2.33,2.33,0,0,1,2.33-2.33H684.33a2.33,2.33,0,0,1,2.33,2.33V343.35" transform="translate(-451.56 -205.39)"/><line class="cls-2" x1="154.86" y1="141.46" x2="240.07" y2="141.46"/><path class="cls-2" d="M653.73,335.18a20.42,20.42,0,0,0-39.22,7.14h-7.63" transform="translate(-451.56 -205.39)"/><path class="cls-2" d="M648.47,343.78a10,10,0,0,1,20,0" transform="translate(-451.56 -205.39)"/><path class="cls-2" d="M668.47,343.1a4.38,4.38,0,0,1,8.74,0h14.43" transform="translate(-451.56 -205.39)"/><line class="cls-2" x1="64.21" y1="109.28" x2="107.35" y2="109.28"/><line class="cls-2" x1="20.94" y1="109.28" x2="53.34" y2="109.28"/><path class="cls-2" d="M501.45,292.36a20.46,20.46,0,0,0-11.94,17.79h-17" transform="translate(-451.56 -205.39)"/><path class="cls-2" d="M528.74,303a20.45,20.45,0,0,0-14.07-11.91" transform="translate(-451.56 -205.39)"/><path class="cls-2" d="M523.48,311.6a10,10,0,0,1,20,0" transform="translate(-451.56 -205.39)"/><path class="cls-2" d="M543.47,310.92a4.38,4.38,0,0,1,8.74,0h7.62" transform="translate(-451.56 -205.39)"/><line class="cls-2" x1="130.53" y1="39.19" x2="130.53" y2="49.61"/><path class="cls-2" d="M510,262.75c.82-.55,3.66-2.59,3.7-5.47,0-1.36-.58-2.49-1.71-4.62a26.29,26.29,0,0,0-2.33-3.64h-.44a27.27,27.27,0,0,0-2.33,3.64c-1.13,2.13-1.73,3.26-1.71,4.62.05,2.88,2.89,4.92,3.7,5.47" transform="translate(-451.56 -205.39)"/><line class="cls-2" x1="57.9" y1="51.76" x2="57.9" y2="71.51"/><path class="cls-2" d="M505.53,271.23c.2-1,.79-4.4-1.2-6.49-.93-1-2.15-1.37-4.45-2.09a26.08,26.08,0,0,0-4.22-1l-.31.3a26.32,26.32,0,0,0,.89,4.24c.69,2.31,1.05,3.53,2,4.48,2.05,2,5.51,1.49,6.47,1.31" transform="translate(-451.56 -205.39)"/><line class="cls-2" x1="49.64" y1="62.25" x2="57.9" y2="70.64"/><ellipse class="cls-2" cx="57.91" cy="70.12" rx="5.2" ry="3.67"/><polyline class="cls-2" points="52.71 70.11 52.71 86.17 49.36 82.41 49.64 88.18 52.8 91.34 54.68 154.37"/><polyline class="cls-2" points="63.11 85.7 63.11 105.15 66.68 101.22 66.07 107.28 62.35 112.97 61.36 154.37"/><line class="cls-2" x1="63.11" y1="70.12" x2="63.11" y2="85.7"/><line class="cls-2" x1="48.21" y1="211.48" x2="26.5" y2="211.48"/><path class="cls-2" d="M498.82,416.87" transform="translate(-451.56 -205.39)"/><line class="cls-2" x1="75.21" y1="211.48" x2="63.05" y2="211.48"/><path class="cls-2" d="M527.73,416.87" transform="translate(-451.56 -205.39)"/><path class="cls-2" d="M478.07,440.11h99.05a.28.28,0,0,0,.22-.46l-18.61-22.78h-8.46" transform="translate(-451.56 -205.39)"/><polyline class="cls-2" points="125.84 234.57 125.84 242.43 26.5 242.43"/><path class="cls-2" d="M558.73,416.87l4.55-17,38,.59a.55.55,0,0,0,.43-.9l-36.9-43.89-8,1.22,6.55,42.7" transform="translate(-451.56 -205.39)"/><line class="cls-2" x1="116.35" y1="194.54" x2="116.35" y2="206.01"/><line class="cls-2" x1="120.07" y1="194.6" x2="120.07" y2="221.51"/><line class="cls-2" x1="138.3" y1="194.88" x2="131.69" y2="186.95"/><line class="cls-2" x1="144.23" y1="194.97" x2="128.5" y2="177.68"/><line class="cls-2" x1="150.76" y1="194.6" x2="157.29" y2="152.39"/><line class="cls-2" x1="131.11" y1="171.53" x2="149.33" y2="151.06"/><path class="cls-2" d="M559.23,373,542.4,390.12a8.52,8.52,0,0,1-12.16,0L503.53,363a1.18,1.18,0,0,1,.32-1.89l1-.51A9.94,9.94,0,0,1,515.65,362l18.6,15.85a3,3,0,0,0,4.08-.22l18.42-19.44" transform="translate(-451.56 -205.39)"/><path class="cls-2" d="M541,447.82h0a19.82,19.82,0,0,1,10,16.85L552.65,556h4.9v-96.3A29.61,29.61,0,0,0,555,447.82h0" transform="translate(-451.56 -205.39)"/><path class="cls-2" d="M642.07,459.9c.81-.54,3.65-2.58,3.7-5.46,0-1.36-.58-2.49-1.71-4.62a25.61,25.61,0,0,0-2.34-3.64h-.43a26.53,26.53,0,0,0-2.34,3.64c-1.12,2.13-1.73,3.26-1.7,4.62,0,2.88,2.88,4.92,3.7,5.46" transform="translate(-451.56 -205.39)"/><path class="cls-2" d="M647.76,471.12c1,.18,4.42.72,6.47-1.31,1-.95,1.33-2.18,2-4.49a26.24,26.24,0,0,0,.89-4.23l-.31-.31a26.77,26.77,0,0,0-4.22,1c-2.29.72-3.52,1.11-4.45,2.09-2,2.09-1.39,5.54-1.19,6.5" transform="translate(-451.56 -205.39)"/><path class="cls-2" d="M647.76,483.88c1,.18,4.42.72,6.47-1.31,1-.95,1.33-2.18,2-4.49a26.11,26.11,0,0,0,.89-4.24l-.31-.3a26.77,26.77,0,0,0-4.22,1c-2.29.72-3.52,1.11-4.45,2.09-2,2.09-1.39,5.54-1.19,6.5" transform="translate(-451.56 -205.39)"/><path class="cls-2" d="M647.76,497.25c1,.18,4.42.71,6.47-1.31,1-.95,1.33-2.18,2-4.49a26.11,26.11,0,0,0,.89-4.24l-.31-.3a26.55,26.55,0,0,0-4.22,1c-2.29.73-3.52,1.12-4.45,2.1-2,2.09-1.39,5.53-1.19,6.49" transform="translate(-451.56 -205.39)"/><path class="cls-2" d="M635.89,469.78c.23-.95.94-4.37-1-6.53-.9-1-2.11-1.44-4.38-2.24a26.85,26.85,0,0,0-4.19-1.11l-.32.3a27.1,27.1,0,0,0,.75,4.26c.6,2.33.93,3.57,1.86,4.56,2,2.09,5.45,1.67,6.42,1.52" transform="translate(-451.56 -205.39)"/><path class="cls-2" d="M635.89,483.3c.23-.95.94-4.37-1-6.53-.9-1-2.11-1.44-4.38-2.24a26.85,26.85,0,0,0-4.19-1.11l-.32.3a27.1,27.1,0,0,0,.75,4.26c.6,2.33.93,3.57,1.86,4.56,2,2.09,5.45,1.67,6.42,1.52" transform="translate(-451.56 -205.39)"/><path class="cls-2" d="M635.89,496.67c.23-.95.94-4.38-1-6.53-.9-1-2.11-1.44-4.38-2.24a26.85,26.85,0,0,0-4.19-1.11l-.32.3a27.1,27.1,0,0,0,.75,4.26c.6,2.33.93,3.57,1.86,4.55,2,2.1,5.45,1.68,6.42,1.53" transform="translate(-451.56 -205.39)"/><line class="cls-2" x1="189.94" y1="248.85" x2="189.94" y2="303.08"/><polyline class="cls-2" points="179.56 287.58 189.94 297.46 200.36 287.58"/><polyline class="cls-2" points="179.56 274.06 189.94 283.94 200.36 274.06"/><polyline class="cls-2" points="180.03 260.67 189.94 270.91 200.36 260.67"/><path class="cls-2" d="M677.24,459.9c.82-.54,3.66-2.58,3.71-5.46,0-1.36-.58-2.49-1.71-4.62a26.53,26.53,0,0,0-2.34-3.64h-.43a26.53,26.53,0,0,0-2.34,3.64c-1.13,2.13-1.73,3.26-1.71,4.62.05,2.88,2.89,4.92,3.71,5.46" transform="translate(-451.56 -205.39)"/><path class="cls-2" d="M682.94,471.12c1,.18,4.42.72,6.47-1.31,1-.95,1.33-2.18,2-4.49a26.24,26.24,0,0,0,.89-4.23l-.31-.31a26.28,26.28,0,0,0-4.22,1c-2.3.72-3.52,1.11-4.45,2.09-2,2.09-1.39,5.54-1.19,6.5" transform="translate(-451.56 -205.39)"/><path class="cls-2" d="M682.94,483.88c1,.18,4.42.72,6.47-1.31,1-.95,1.33-2.18,2-4.49a26.11,26.11,0,0,0,.89-4.24l-.31-.3a26.28,26.28,0,0,0-4.22,1c-2.3.72-3.52,1.11-4.45,2.09-2,2.09-1.39,5.54-1.19,6.5" transform="translate(-451.56 -205.39)"/><path class="cls-2" d="M682.94,497.25c1,.18,4.42.71,6.47-1.31,1-.95,1.33-2.18,2-4.49a26.11,26.11,0,0,0,.89-4.24l-.31-.3a26.08,26.08,0,0,0-4.22,1c-2.3.73-3.52,1.12-4.45,2.1-2,2.09-1.39,5.53-1.19,6.49" transform="translate(-451.56 -205.39)"/><path class="cls-2" d="M671.06,469.78c.24-.95,1-4.37-1-6.53-.9-1-2.11-1.44-4.38-2.24a26.49,26.49,0,0,0-4.18-1.11l-.32.3a25.77,25.77,0,0,0,.74,4.26c.61,2.33.93,3.57,1.87,4.56,2,2.09,5.45,1.67,6.42,1.52" transform="translate(-451.56 -205.39)"/><path class="cls-2" d="M671.06,483.3c.24-.95,1-4.37-1-6.53-.9-1-2.11-1.44-4.38-2.24a26.49,26.49,0,0,0-4.18-1.11l-.32.3A25.77,25.77,0,0,0,662,478c.61,2.33.93,3.57,1.87,4.56,2,2.09,5.45,1.67,6.42,1.52" transform="translate(-451.56 -205.39)"/><path class="cls-2" d="M671.06,496.67c.24-.95,1-4.38-1-6.53-.9-1-2.11-1.44-4.38-2.24a26.49,26.49,0,0,0-4.18-1.11l-.32.3a25.77,25.77,0,0,0,.74,4.26c.61,2.33.93,3.57,1.87,4.55,2,2.1,5.45,1.68,6.42,1.53" transform="translate(-451.56 -205.39)"/><line class="cls-2" x1="225.12" y1="248.85" x2="225.12" y2="303.08"/><polyline class="cls-2" points="214.73 287.58 225.12 297.46 235.54 287.58"/><polyline class="cls-2" points="214.73 274.06 225.12 283.94 235.54 274.06"/><polyline class="cls-2" points="215.21 260.67 225.12 270.91 235.54 260.67"/><path class="cls-2" d="M557.55,512.18c1.42-1.33,3.26-3.1,5.35-5.24,5.48-5.59,9.29-10.23,10.6-11.85a166.1,166.1,0,0,0,13.78-19.93c1.62-2.73,3.86-6.54,6.38-11.85a106.21,106.21,0,0,0,6.84-17.54,97.71,97.71,0,0,0,3.19-16.18,104.19,104.19,0,0,0,.34-15.95,111.54,111.54,0,0,0-1.68-13.83" transform="translate(-451.56 -205.39)"/><ellipse class="cls-2" cx="86.96" cy="206.52" rx="12.87" ry="12.1"/><path class="cls-2" d="M538.78,400.61l6.61,20.94a.18.18,0,0,1-.27.2L526.28,408.6a0,0,0,0,1,0-.08l24-.45a.15.15,0,0,1,.09.28l-18.52,13.46a.13.13,0,0,1-.2-.14l6.65-21.06A.27.27,0,0,1,538.78,400.61Z" transform="translate(-451.56 -205.39)"/><rect class="cls-2" x="42.64" y="213.84" width="5.01" height="18.57" rx="2.51"/><polyline class="cls-2" points="47.66 219.19 101.66 219.65 106.9 224.09 101.77 227.96 47.66 227.96"/><line class="cls-2" x1="47.66" y1="223.58" x2="99.83" y2="223.98"/><ellipse class="cls-2" cx="22.73" cy="223.92" rx="2.42" ry="5.01"/><line class="cls-2" x1="22.73" y1="218.91" x2="42.64" y2="218.91"/><line class="cls-2" x1="22.73" y1="228.93" x2="42.64" y2="228.93"/><line class="cls-2" x1="28.35" y1="218.91" x2="32.69" y2="228.93"/><line class="cls-2" x1="32.19" y1="218.96" x2="36.54" y2="228.99"/><line class="cls-2" x1="35.49" y1="218.91" x2="39.84" y2="228.93"/><line class="cls-2" x1="39.3" y1="218.96" x2="42.53" y2="226.42"/><line class="cls-2" x1="24.33" y1="219.4" x2="28.67" y2="229.42"/><ellipse class="cls-2" cx="55.17" cy="180.72" rx="11.89" ry="5.61"/><path class="cls-2" d="M494.85,386.14c0,11.68,5.32,21.16,11.89,21.16s11.88-9.48,11.88-21.16" transform="translate(-451.56 -205.39)"/><path class="cls-2" d="M514.61,416.87c2.13,1,3.46,2.4,3.46,4s-1.12,2.76-3,3.74" transform="translate(-451.56 -205.39)"/><path class="cls-2" d="M514.61,416.87" transform="translate(-451.56 -205.39)"/><path class="cls-2" d="M497.06,418.86a7.46,7.46,0,0,1,2.72-2" transform="translate(-451.56 -205.39)"/><path class="cls-2" d="M496.78,419.26a4.85,4.85,0,0,1,.28-.4" transform="translate(-451.56 -205.39)"/><path class="cls-2" d="M503.73,415.69a15.7,15.7,0,0,0-4,1.17" transform="translate(-451.56 -205.39)"/><path class="cls-2" d="M514.61,416.87l-.39-.18a16.59,16.59,0,0,0-4.29-1.11" transform="translate(-451.56 -205.39)"/><path class="cls-2" d="M503.52,406.51v13.85l.16.07a7.07,7.07,0,0,0,6.32-.34h0V406.51" transform="translate(-451.56 -205.39)"/><line class="cls-2" x1="54.97" y1="160.65" x2="55.36" y2="175.1"/><line class="cls-2" x1="61.11" y1="166.89" x2="60.91" y2="175.8"/><path class="cls-2" d="M605.89,376.91,627,429.46a6.83,6.83,0,0,0,7.23,4.22l2.5-.33L612.8,363.6a9.87,9.87,0,0,0-6.8-6.35l-16.13-4.33v-4.37" transform="translate(-451.56 -205.39)"/><line class="cls-2" x1="122.96" y1="121.6" x2="122.96" y2="127.13"/><line class="cls-2" x1="139.67" y1="121.6" x2="139.67" y2="127.13"/><line class="cls-2" x1="131.11" y1="128.2" x2="131.11" y2="132.65"/><path class="cls-2" d="M579.46,340.39l1.34.8a3.54,3.54,0,0,0,3.72-.05l1.17-.75" transform="translate(-451.56 -205.39)"/><path class="cls-2" d="M565.07,504.68l1.49,13.54c.14,1.29.23,2.59.27,3.89l.4,13.88h-1.57a9.92,9.92,0,0,0-8.11,4.22h0" transform="translate(-451.56 -205.39)"/><polyline class="cls-2" points="105.98 338.24 124.16 338.24 123.8 287.36"/><path class="cls-2" d="M585.76,477.68v65.95h18.1a1.18,1.18,0,0,0,.95-1.88l-.7-1a12.44,12.44,0,0,0-10-5h0c-.07-2.14-.12-5,0-8.43,0-1.5.2-5.28.91-11.51,1.19-10.47,2.14-11.77,2.62-17.09a58.31,58.31,0,0,0-1.25-18c.58-1.94,1.39-4.8,2.16-8.32,1.1-5,1.56-8.83,1.82-10.93.83-6.73,2-21.32,3.31-31.9" transform="translate(-451.56 -205.39)"/><path class="cls-2" d="M594.69,516a24.05,24.05,0,0,0,17-23h0l-1.44-15.5-6.07-60.61" transform="translate(-451.56 -205.39)"/><line class="cls-2" x1="123.59" y1="311.64" x2="134.52" y2="311.64"/><path class="cls-2" d="M575.15,517" transform="translate(-451.56 -205.39)"/><line class="cls-2" x1="105.98" y1="311.64" x2="115.07" y2="311.64"/><path class="cls-2" d="M567.23,351.66h31.23a8.65,8.65,0,0,0,8.64-8.41l.6-23.14a25.4,25.4,0,0,0-24.63-26.05h0a23.44,23.44,0,0,0-24.15,23.44v25.85A8.31,8.31,0,0,0,567.23,351.66Z" transform="translate(-451.56 -205.39)"/><line class="cls-2" x1="33.86" y1="303.08" x2="26.5" y2="303.08"/><line class="cls-2" x1="100.24" y1="303.08" x2="89.56" y2="303.08"/><line class="cls-2" x1="235.54" y1="303.08" x2="154.71" y2="303.08"/><polyline class="cls-2" points="113.24 150.27 124.71 147.53 124.71 143.16"/><path class="cls-2" d="M600.9,334.06l.58-.45a3.74,3.74,0,0,0-.58-6.27h0v-9.68h-8.15a9.74,9.74,0,0,1-9.74-9.74h0a10.29,10.29,0,0,1-10.29,10.29h-7.65v9.49l-.94.54a2.92,2.92,0,0,0,.1,5.12l1.33.7h0a16.58,16.58,0,0,0,16.58,16.35h1.17l1.54,0a16.32,16.32,0,0,0,16-16.32Z" transform="translate(-451.56 -205.39)"/><path class="cls-2" d="M530.32,488c-.74.23.21,3.34-1,6.84a11.39,11.39,0,0,1-1.6,3,22.71,22.71,0,0,1-3.65-5.47c-2.49-5.29-3.89-13.75.12-18.46,1.27-1.49,2.92-2.41,2.73-2.73-.33-.56-5.46,1.94-5.92,2.17-3.66,1.78-7.73,3.82-11.62,8a30.73,30.73,0,0,0-3.19,4.06c-.8-.63-2-1.53-3.53-2.51-2.52-1.59-6-3.39-6.27-3s2.13,1.52,3.65,4.33c2.12,3.93,1.11,8.37.68,10.26-.14.62-.85,2.35-2.28,5.81-.72,1.76-1,2.27-1.48,2.39-1.41.33-3.92-2.51-3.87-5.24,0-1.32.63-2.06.45-2.17-.62-.38-5.27,3.94-7.17,9.91a19.41,19.41,0,0,0,.91,14.13,19.85,19.85,0,0,0,6.83,7.52c6.36,4.55,13.08,4.91,17.21,5.13a38.79,38.79,0,0,0,15.6-2.28c4.11-1.57,8.53-3.26,11.4-7.75a20.26,20.26,0,0,0,2.73-9.57,28.18,28.18,0,0,0-.91-9.8c-.42-1.52-.76-4.53-2.91-7.14-3.32-4.06-1.73-2-5.47-6.1C531.2,488.77,530.72,487.91,530.32,488Z" transform="translate(-451.56 -205.39)"/><path class="cls-2" d="M513.28,510.28c-1.34,0-1.87,1.87-3.24,4.49-1.53,2.94-1.89,5.37-.76,7.44a5.2,5.2,0,0,0,3.27,2.51,4.82,4.82,0,0,0,4-.92,5.14,5.14,0,0,0,1.52-3.95c0-.92-.1-1.93-1.44-4.93C515,511.23,514.18,510.29,513.28,510.28Z" transform="translate(-451.56 -205.39)"/><ellipse class="cls-2" cx="535.34" cy="540.85" rx="3.57" ry="2.43" transform="translate(-582.52 703.11) rotate(-74.18)"/><ellipse class="cls-2" cx="491.43" cy="540.59" rx="2.43" ry="3.57" transform="translate(-656.02 112.76) rotate(-30)"/><line class="cls-2" x1="38.08" y1="332.11" x2="50.81" y2="325.39"/><line class="cls-2" x1="41.65" y1="338.29" x2="61.06" y2="326.68"/><line class="cls-2" x1="82.81" y1="338.9" x2="63.11" y2="326.68"/><line class="cls-2" x1="84.75" y1="332.03" x2="72.96" y2="325.14"/><path class="cls-2" d="M588,323.55a3.29,3.29,0,0,1,1.31-1.08,4.31,4.31,0,0,1,4.5,1" transform="translate(-451.56 -205.39)"/><path class="cls-2" d="M571.62,323.38a3.29,3.29,0,0,1,1.31-1.08,4.31,4.31,0,0,1,4.5,1" transform="translate(-451.56 -205.39)"/><path class="cls-2" d="M518.1,491.11c-.46-.57-3.78,1.19-6.29,2.9-2.79,1.9-6.4,4.36-9.06,9.17-1.05,1.9-3.78,6.83-2.79,13.1a14.58,14.58,0,0,0,3.87,8.44,14,14,0,0,0,9.46,4,14.28,14.28,0,0,0,9.23-3.24,13.37,13.37,0,0,0,4.67-7.24,13.57,13.57,0,0,0-.57-7.69c-1.55-4.62-5-7.9-5.7-7.52-.28.15,0,.81-.4,2.22-.24.83-.48,1.62-1.08,1.88-.9.4-2.2-.58-2.85-1.31a6.52,6.52,0,0,1-1.36-4.15,12,12,0,0,1,.57-5,36.63,36.63,0,0,1,1.48-3.47C518,491.7,518.26,491.31,518.1,491.11Z" transform="translate(-451.56 -205.39)"/><path class="cls-2" d="M582.65,278.68c-1.2,1.38-1.74,2.15-3.23,3.68-2.28,2.35-3.13,2.71-3.64,2.89a6.67,6.67,0,0,1-4.18-.08,6.54,6.54,0,0,1-4.22-3.61c-1-2.68.45-5.17.88-5.88a6.35,6.35,0,0,1,3.57-3.08c2.37-.64,4.54.8,5.92,1.71,3,2,2.78,3.48,6.76,7.29a15.47,15.47,0,0,0,4.6,3.38c1.39.6,3.86,1.67,6.19.57a6.45,6.45,0,0,0,2.92-3.34,6.92,6.92,0,0,0,.49-5.28,6.68,6.68,0,0,0-3.26-3.61c-3.66-1.84-7.69.47-8.24.8C586,274.85,584.87,276.13,582.65,278.68Z" transform="translate(-451.56 -205.39)"/><path class="cls-2" d="M479,570.93a29.7,29.7,0,0,0,10-4.11l3.63-2.35a29.73,29.73,0,0,1,29.24-1.69l11.32,5.58a29.66,29.66,0,0,0,30.62-2.64h0A29.69,29.69,0,0,1,596,563.9l6.67,3.79a29.71,29.71,0,0,0,30.1-.46l7.13-4.34a29.7,29.7,0,0,1,33.38,1.71l.06,0a29.58,29.58,0,0,0,13.1,5.64" transform="translate(-451.56 -205.39)"/><path class="cls-2" d="M478.88,577.43a29.9,29.9,0,0,0,10-4.11l3.63-2.35a29.72,29.72,0,0,1,29.24-1.69l11.32,5.58a29.68,29.68,0,0,0,30.62-2.64h0a29.7,29.7,0,0,1,32.15-1.83l6.68,3.79a29.71,29.71,0,0,0,30.1-.45l7.13-4.34a29.68,29.68,0,0,1,33.38,1.71l0,0a29.67,29.67,0,0,0,13.11,5.64" transform="translate(-451.56 -205.39)"/><path class="cls-3" d="M514.68,599v1.33h-5.09v-8.68h1.62V599Z" transform="translate(-451.56 -205.39)"/><path class="cls-3" d="M524.65,593v2.4h3v1.24h-3v2.46h3.85v1.29H523v-8.68h5.47V593Z" transform="translate(-451.56 -205.39)"/><path class="cls-3" d="M556.65,591.66v8.68h-1.42v-5.61a6.24,6.24,0,0,1,0-.72l-2.63,4.92a.6.6,0,0,1-.57.36h-.22a.6.6,0,0,1-.57-.36L548.62,594a2.56,2.56,0,0,1,0,.39c0,.13,0,.25,0,.35v5.61h-1.43v-8.68h1.41a.32.32,0,0,1,.14,0,.21.21,0,0,1,.11.08.39.39,0,0,1,.1.14l2.6,4.82c.07.13.13.26.19.39l.17.42c.06-.14.11-.29.17-.42a3.73,3.73,0,0,1,.2-.4l2.56-4.81a.39.39,0,0,1,.1-.14.28.28,0,0,1,.12-.08.32.32,0,0,1,.14,0h1.4Z" transform="translate(-451.56 -205.39)"/><path class="cls-3" d="M573.22,600.34H572a.53.53,0,0,1-.34-.11.57.57,0,0,1-.2-.26l-.65-1.77h-3.59l-.65,1.77a.5.5,0,0,1-.19.25.49.49,0,0,1-.34.12h-1.26l3.42-8.68h1.64Zm-2.85-3.28-1.06-2.88c0-.13-.1-.28-.16-.46s-.11-.37-.17-.57c-.05.2-.1.4-.16.57s-.11.34-.16.47l-1,2.87Z" transform="translate(-451.56 -205.39)"/><path class="cls-3" d="M588.47,596v3.51a4.68,4.68,0,0,1-1.41.71,5.46,5.46,0,0,1-1.59.22,5.39,5.39,0,0,1-1.93-.33,4.4,4.4,0,0,1-1.47-.91,4.15,4.15,0,0,1-.94-1.41,4.7,4.7,0,0,1-.33-1.78,4.91,4.91,0,0,1,.32-1.79,4,4,0,0,1,.9-1.41,4.17,4.17,0,0,1,1.42-.91,5.8,5.8,0,0,1,2.86-.24,5,5,0,0,1,.85.23,3.72,3.72,0,0,1,.72.36,4.54,4.54,0,0,1,.6.46l-.47.73a.43.43,0,0,1-.28.22.56.56,0,0,1-.38-.09l-.39-.23a2.94,2.94,0,0,0-.44-.2c-.17,0-.35-.1-.55-.14a4.79,4.79,0,0,0-.7,0,2.89,2.89,0,0,0-1.16.22,2.4,2.4,0,0,0-.88.61,2.68,2.68,0,0,0-.57,1,3.87,3.87,0,0,0-.2,1.26,3.67,3.67,0,0,0,.22,1.33,2.74,2.74,0,0,0,.6,1,2.49,2.49,0,0,0,.93.62,3.36,3.36,0,0,0,1.22.21,3.15,3.15,0,0,0,.85-.1,3.89,3.89,0,0,0,.74-.28V597.2h-1.09a.32.32,0,0,1-.24-.09.27.27,0,0,1-.09-.21V596Z" transform="translate(-451.56 -205.39)"/><path class="cls-3" d="M598.85,600.34h-1.62v-8.68h1.62Z" transform="translate(-451.56 -205.39)"/><path class="cls-3" d="M614,598.29a.37.37,0,0,1,.23.1l.64.69a3.58,3.58,0,0,1-1.3,1,4.53,4.53,0,0,1-1.85.34,4.35,4.35,0,0,1-1.74-.33,4,4,0,0,1-1.32-.91,4,4,0,0,1-.83-1.41,5.12,5.12,0,0,1-.3-1.78,4.91,4.91,0,0,1,.32-1.79,4.11,4.11,0,0,1,.88-1.4,4,4,0,0,1,1.35-.92,4.61,4.61,0,0,1,1.74-.32,4.23,4.23,0,0,1,1.68.31,4.09,4.09,0,0,1,1.25.81l-.54.75a.49.49,0,0,1-.12.13.33.33,0,0,1-.21,0,.31.31,0,0,1-.18,0l-.21-.12-.27-.17a1.92,1.92,0,0,0-.35-.16,3.52,3.52,0,0,0-.45-.13,3.67,3.67,0,0,0-.61,0,2.61,2.61,0,0,0-1.06.21,2.36,2.36,0,0,0-.83.6,2.5,2.5,0,0,0-.54,1,4,4,0,0,0-.2,1.29,3.73,3.73,0,0,0,.21,1.3,3,3,0,0,0,.56,1,2.49,2.49,0,0,0,.84.6,2.53,2.53,0,0,0,1,.21,5.32,5.32,0,0,0,.6,0,2.5,2.5,0,0,0,.49-.11,2.71,2.71,0,0,0,.42-.2,2.87,2.87,0,0,0,.4-.31.57.57,0,0,1,.13-.08A.23.23,0,0,1,614,598.29Z" transform="translate(-451.56 -205.39)"/><path class="cls-3" d="M624.75,600.34h-1.62v-8.68h1.62Z" transform="translate(-451.56 -205.39)"/><path class="cls-3" d="M635.5,593v2.4h3v1.24h-3v2.46h3.86v1.29h-5.48v-8.68h5.48V593Z" transform="translate(-451.56 -205.39)"/><path class="cls-3" d="M655.3,591.66v8.68h-.83a.63.63,0,0,1-.32-.07.68.68,0,0,1-.25-.21l-4.53-5.78c0,.26,0,.51,0,.73v5.33H648v-8.68h1l.13,0a.28.28,0,0,1,.11.08.51.51,0,0,1,.12.13l4.55,5.81,0-.42c0-.13,0-.26,0-.37v-5.28Z" transform="translate(-451.56 -205.39)"/></svg>