<svg id="_2_Haute_Pretresse" data-name="2 Haute Pretresse" xmlns="http://www.w3.org/2000/svg" viewBox="0 0 267.21 444.13"><defs><style>.cls-1{fill:#292b3f;}.cls-2{fill:none;stroke:#34e89e;stroke-miterlimit:10;stroke-width:2px;}.cls-3{fill:#34e89e;}</style></defs><title>2-fr</title><rect class="cls-1" width="267.21" height="444.13" rx="15.57"/><path class="cls-2" d="M689,554.44V617a2.38,2.38,0,0,1-2.38,2.38H478.93a2.38,2.38,0,0,1-2.38-2.38V554.24" transform="translate(-448.84 -200.61)"/><path class="cls-2" d="M476.55,253v-26.4a2.39,2.39,0,0,1,2.38-2.38H686.58a2.39,2.39,0,0,1,2.38,2.38v26.38" transform="translate(-448.84 -200.61)"/><line class="cls-2" x1="128.3" y1="40.31" x2="128.3" y2="50.96"/><line class="cls-2" x1="139.01" y1="40.31" x2="139.01" y2="50.96"/><path class="cls-2" d="M577.61,499.57l-1.27,1.26a16.73,16.73,0,0,1-4.55,3.2h0a6.61,6.61,0,0,1-5,.15h0a12.85,12.85,0,0,1-5.18-3.6l-1-1.09v-.06l1-1.09a12.77,12.77,0,0,1,5.18-3.61h0a6.66,6.66,0,0,1,5,.15h0a17.84,17.84,0,0,1,4.78,3.12l1,1.14.23.23Z" transform="translate(-448.84 -200.61)"/><circle class="cls-2" cx="120.28" cy="298.69" r="2.87"/><path class="cls-2" d="M590.37,509.26l-1.27,1.25a16.55,16.55,0,0,1-4.55,3.21h0a6.59,6.59,0,0,1-5,.15h0a12.81,12.81,0,0,1-5.19-3.6l-1-1.1v-.05l1-1.1a12.81,12.81,0,0,1,5.19-3.6h0a6.59,6.59,0,0,1,5,.15h0a17.6,17.6,0,0,1,4.78,3.12l1,1.14.23.23Z" transform="translate(-448.84 -200.61)"/><circle class="cls-2" cx="133.04" cy="308.38" r="2.87"/><path class="cls-2" d="M577.44,519.22l-1.27,1.26a17,17,0,0,1-4.55,3.21h0a6.64,6.64,0,0,1-5,.14h0a12.81,12.81,0,0,1-5.19-3.6l-.95-1.09v-.06l.95-1.09a12.74,12.74,0,0,1,5.19-3.61h0a6.64,6.64,0,0,1,5,.15h0a17.84,17.84,0,0,1,4.78,3.12l1,1.14.23.23Z" transform="translate(-448.84 -200.61)"/><circle class="cls-2" cx="120.11" cy="318.34" r="2.87"/><path class="cls-2" d="M554.13,505.08c.3-.14.6-.27.91-.39h0a6.66,6.66,0,0,1,5,.15h0a18,18,0,0,1,4.78,3.12l1,1.14.23.23-.2.21-1.27,1.25a17,17,0,0,1-4.55,3.21h0a6.66,6.66,0,0,1-5,.14h0a12.73,12.73,0,0,1-3.36-1.87" transform="translate(-448.84 -200.61)"/><circle class="cls-2" cx="108.54" cy="308.65" r="2.87"/><path class="cls-2" d="M560.75,485.82a17.26,17.26,0,0,1,3.35,2.41l1,1.13.23.24-.2.2-1.27,1.25a17,17,0,0,1-4.55,3.21h0a6.29,6.29,0,0,1-1.69.49" transform="translate(-448.84 -200.61)"/><path class="cls-2" d="M559.52,489.4v.13a2.84,2.84,0,0,1-.69,1.86" transform="translate(-448.84 -200.61)"/><path class="cls-2" d="M565.48,529l-1.26,1.25a16.92,16.92,0,0,1-4.55,3.21h0a6.61,6.61,0,0,1-5,.15h0a12.88,12.88,0,0,1-5.19-3.6l-1-1.1v-.06l1-1.09a12.88,12.88,0,0,1,5.19-3.6h0a6.61,6.61,0,0,1,5,.15h0a17.75,17.75,0,0,1,4.78,3.12l1,1.13.24.24Z" transform="translate(-448.84 -200.61)"/><circle class="cls-2" cx="108.15" cy="328.14" r="2.87"/><path class="cls-2" d="M543.91,533.59a6.68,6.68,0,0,1,3.14.55h0a17.79,17.79,0,0,1,4.78,3.13l1,1.13.24.23-.21.21-1.26,1.25a17.14,17.14,0,0,1-4.55,3.21h0a6.66,6.66,0,0,1-5,.14h0a12.1,12.1,0,0,1-1.28-.56" transform="translate(-448.84 -200.61)"/><path class="cls-2" d="M543.36,535.88a2.87,2.87,0,1,1-1.43,4.19" transform="translate(-448.84 -200.61)"/><path class="cls-2" d="M565.38,548.48l-1.27,1.25a17,17,0,0,1-4.55,3.21h0a6.66,6.66,0,0,1-5,.15h0a12.87,12.87,0,0,1-5.18-3.61l-1-1.09v-.06l1-1.09a12.85,12.85,0,0,1,5.18-3.6h0a6.66,6.66,0,0,1,5,.14h0a17.63,17.63,0,0,1,4.78,3.13l1,1.13.23.23Z" transform="translate(-448.84 -200.61)"/><circle class="cls-2" cx="108.05" cy="347.59" r="2.87"/><path class="cls-2" d="M577.44,538.84l-1.27,1.25a17,17,0,0,1-4.55,3.21h0a6.64,6.64,0,0,1-5,.14h0a12.72,12.72,0,0,1-5.19-3.6l-.95-1.09v-.06l.95-1.09a12.81,12.81,0,0,1,5.19-3.6h0a6.64,6.64,0,0,1,5,.14h0a17.63,17.63,0,0,1,4.78,3.13l1,1.13.23.23Z" transform="translate(-448.84 -200.61)"/><circle class="cls-2" cx="120.11" cy="337.95" r="2.87"/><path class="cls-2" d="M590.37,548.32l-1.27,1.25a16.55,16.55,0,0,1-4.55,3.21h0a6.59,6.59,0,0,1-5,.15h0a12.81,12.81,0,0,1-5.19-3.6l-1-1.1v-.05l1-1.1a12.81,12.81,0,0,1,5.19-3.6h0a6.59,6.59,0,0,1,5,.15h0a17.6,17.6,0,0,1,4.78,3.12l1,1.14.23.23Z" transform="translate(-448.84 -200.61)"/><circle class="cls-2" cx="133.04" cy="347.44" r="2.87"/><path class="cls-2" d="M590.37,528.79,589.1,530a16.55,16.55,0,0,1-4.55,3.21h0a6.59,6.59,0,0,1-5,.15h0a12.81,12.81,0,0,1-5.19-3.6l-1-1.1v-.05l1-1.1a12.81,12.81,0,0,1,5.19-3.6h0a6.59,6.59,0,0,1,5,.15h0a17.6,17.6,0,0,1,4.78,3.12l1,1.14.23.23Z" transform="translate(-448.84 -200.61)"/><circle class="cls-2" cx="133.04" cy="327.91" r="2.87"/><path class="cls-2" d="M615.29,548.32,614,549.57a16.55,16.55,0,0,1-4.55,3.21h0a6.61,6.61,0,0,1-5,.15h0a13,13,0,0,1-5.19-3.6l-.94-1.1v-.05l.94-1.1a13,13,0,0,1,5.19-3.6h0a6.61,6.61,0,0,1,5,.15h0a17.75,17.75,0,0,1,4.78,3.12l1,1.14.23.23Z" transform="translate(-448.84 -200.61)"/><circle class="cls-2" cx="157.95" cy="347.44" r="2.87"/><path class="cls-2" d="M603.21,538.68,602,539.93a16.7,16.7,0,0,1-4.55,3.21h0a6.61,6.61,0,0,1-5,.15h0a12.88,12.88,0,0,1-5.19-3.6l-1-1.1v-.05l1-1.1a12.88,12.88,0,0,1,5.19-3.6h0a6.61,6.61,0,0,1,5,.15h0a17.75,17.75,0,0,1,4.78,3.12l1,1.14.24.23Z" transform="translate(-448.84 -200.61)"/><circle class="cls-2" cx="145.88" cy="337.79" r="2.87"/><path class="cls-2" d="M615.18,528.79,613.91,530a16.55,16.55,0,0,1-4.55,3.21h0a6.59,6.59,0,0,1-5,.15h0a12.81,12.81,0,0,1-5.19-3.6l-.95-1.1v-.05l.95-1.1a12.81,12.81,0,0,1,5.19-3.6h0a6.59,6.59,0,0,1,5,.15h0a17.6,17.6,0,0,1,4.78,3.12l1,1.14.23.23Z" transform="translate(-448.84 -200.61)"/><circle class="cls-2" cx="157.85" cy="327.91" r="2.87"/><path class="cls-2" d="M622.86,542a11.56,11.56,0,0,1-2,1.15h0a6.59,6.59,0,0,1-5,.15h0a12.81,12.81,0,0,1-5.19-3.6l-1-1.1v-.05l1-1.1a12.81,12.81,0,0,1,5.19-3.6h0a6.59,6.59,0,0,1,4.23-.14" transform="translate(-448.84 -200.61)"/><circle class="cls-2" cx="169.31" cy="337.79" r="2.87"/><path class="cls-2" d="M622.54,540.75l-.06.1" transform="translate(-448.84 -200.61)"/><path class="cls-2" d="M619.91,533.76l.2.08" transform="translate(-448.84 -200.61)"/><path class="cls-2" d="M622.48,540.85a.75.75,0,0,1-.07.12" transform="translate(-448.84 -200.61)"/><path class="cls-2" d="M603.21,519.22,602,520.48a17.14,17.14,0,0,1-4.55,3.21h0a6.66,6.66,0,0,1-5,.14h0a12.88,12.88,0,0,1-5.19-3.6l-1-1.09v-.06l1-1.09a12.8,12.8,0,0,1,5.19-3.61h0a6.66,6.66,0,0,1,5,.15h0a18,18,0,0,1,4.78,3.12l1,1.14.24.23Z" transform="translate(-448.84 -200.61)"/><circle class="cls-2" cx="145.88" cy="318.34" r="2.87"/><path class="cls-2" d="M612.47,512a14,14,0,0,1-3.21,2.05h0a6.66,6.66,0,0,1-5,.14h0a13,13,0,0,1-5.19-3.6l-.94-1.09v-.06l.94-1.09a13,13,0,0,1,5.19-3.61h0a6.66,6.66,0,0,1,5,.15h0c.29.13.57.26.85.41" transform="translate(-448.84 -200.61)"/><circle class="cls-2" cx="157.74" cy="308.65" r="2.87"/><path class="cls-2" d="M611.56,509.26c0,.11,0,.22,0,.33" transform="translate(-448.84 -200.61)"/><path class="cls-2" d="M611.56,509.26" transform="translate(-448.84 -200.61)"/><path class="cls-2" d="M603.36,499.57l-1.26,1.26a16.88,16.88,0,0,1-4.55,3.2h0a6.61,6.61,0,0,1-5,.15h0a13,13,0,0,1-5.19-3.6l-1-1.09v-.06l1-1.09a12.87,12.87,0,0,1,5.19-3.61h0a6.66,6.66,0,0,1,5,.15h0a18,18,0,0,1,4.78,3.12l1,1.14.23.23Z" transform="translate(-448.84 -200.61)"/><circle class="cls-2" cx="146.03" cy="298.69" r="2.87"/><path class="cls-2" d="M606.6,494.8a6.69,6.69,0,0,1-1.76-.39h0a12.8,12.8,0,0,1-5.19-3.61l-.95-1.09v-.06l.95-1.09a12.85,12.85,0,0,1,3.73-2.95" transform="translate(-448.84 -200.61)"/><path class="cls-2" d="M605.63,491.94a2.87,2.87,0,0,1-1.32-2.41,2.83,2.83,0,0,1,.17-1" transform="translate(-448.84 -200.61)"/><path class="cls-2" d="M606.48,494.45a5,5,0,0,1-2.91-8.33" transform="translate(-448.84 -200.61)"/><path class="cls-2" d="M603.57,486.12l0-.06" transform="translate(-448.84 -200.61)"/><path class="cls-2" d="M590.83,489.8l-1.27,1.25a17,17,0,0,1-4.55,3.21h0a6.64,6.64,0,0,1-5,.15h0a12.74,12.74,0,0,1-5.19-3.61l-.95-1.09v-.06l.95-1.09A12.81,12.81,0,0,1,580,485h0a6.64,6.64,0,0,1,5,.14h0a17.87,17.87,0,0,1,4.78,3.13l1,1.13.23.24Z" transform="translate(-448.84 -200.61)"/><circle class="cls-2" cx="133.5" cy="288.91" r="2.87"/><path class="cls-2" d="M601.84,481.17a16.55,16.55,0,0,1-4.55,3.21h0a6.61,6.61,0,0,1-5,.15h0a12.85,12.85,0,0,1-5.18-3.6l-1-1.09v-.06l1-1.09a12.77,12.77,0,0,1,5.18-3.61h0a6.61,6.61,0,0,1,5,.15h0a17.85,17.85,0,0,1,3.07,1.74" transform="translate(-448.84 -200.61)"/><circle class="cls-2" cx="145.78" cy="279.04" r="2.87"/><path class="cls-2" d="M564.16,476.25a12.48,12.48,0,0,1,2.34-1.17h0a6.61,6.61,0,0,1,5,.15h0a18,18,0,0,1,4.78,3.12l1,1.14.23.23-.2.2-1.27,1.25a16.7,16.7,0,0,1-4.55,3.21h0a6.61,6.61,0,0,1-5,.15h0a12.79,12.79,0,0,1-4.31-2.69" transform="translate(-448.84 -200.61)"/><circle class="cls-2" cx="120" cy="279.04" r="2.87"/><path class="cls-2" d="M590.37,470.34l-1.27,1.25a17,17,0,0,1-4.55,3.21h0a6.64,6.64,0,0,1-5,.14h0a12.81,12.81,0,0,1-5.19-3.6l-1-1.09v-.06l1-1.09a12.83,12.83,0,0,1,5.19-3.61h0a6.64,6.64,0,0,1,5,.15h0a17.84,17.84,0,0,1,4.78,3.12l1,1.14.23.23Z" transform="translate(-448.84 -200.61)"/><circle class="cls-2" cx="133.04" cy="269.45" r="2.87"/><path class="cls-2" d="M596.27,465.36a6.66,6.66,0,0,1-3.39-.34h0a12.85,12.85,0,0,1-5.18-3.6l-1-1.09v-.06l1-1.1a12.85,12.85,0,0,1,5.18-3.6" transform="translate(-448.84 -200.61)"/><path class="cls-2" d="M595.33,463h-.1a2.87,2.87,0,0,1-1.69-5.19" transform="translate(-448.84 -200.61)"/><path class="cls-2" d="M571.36,455.61l.26.11h0a17.6,17.6,0,0,1,4.78,3.12l1,1.14.23.23-.2.2-1.27,1.25a16.55,16.55,0,0,1-4.55,3.21h0a6.59,6.59,0,0,1-3.69.5" transform="translate(-448.84 -200.61)"/><path class="cls-2" d="M570.59,457.78A2.87,2.87,0,0,1,569,463h-.16" transform="translate(-448.84 -200.61)"/><path class="cls-2" d="M590.27,450.54,589,451.8a17,17,0,0,1-4.55,3.21h0a6.66,6.66,0,0,1-5,.14h0a13,13,0,0,1-5.19-3.6l-.94-1.09v-.06l.94-1.09a12.87,12.87,0,0,1,5.19-3.61h0a6.66,6.66,0,0,1,5,.15h0a18,18,0,0,1,4.78,3.12l1,1.14.23.23Z" transform="translate(-448.84 -200.61)"/><circle class="cls-2" cx="132.93" cy="249.66" r="2.87"/><path class="cls-2" d="M581.47,426.76a6.23,6.23,0,0,1,1.36.15" transform="translate(-448.84 -200.61)"/><path class="cls-2" d="M585.83,435.53a13,13,0,0,1-1.73,1h0a6.66,6.66,0,0,1-5,.15h0c-.32-.12-.63-.25-.94-.4" transform="translate(-448.84 -200.61)"/><path class="cls-2" d="M580.79,428.94a3.38,3.38,0,0,1,.63-.07,2.88,2.88,0,1,1-2.23,4.68" transform="translate(-448.84 -200.61)"/><path class="cls-2" d="M506,332.08l-2.24,2.24a30.1,30.1,0,0,1-8.06,5.74h0a11.68,11.68,0,0,1-8.88.26h0a22.63,22.63,0,0,1-9.18-6.45L476,331.92v-.1l1.68-2a22.7,22.7,0,0,1,9.18-6.44h0a11.63,11.63,0,0,1,8.88.26h0a31.41,31.41,0,0,1,8.46,5.59l1.79,2,.41.41Z" transform="translate(-448.84 -200.61)"/><ellipse class="cls-2" cx="42.13" cy="130.98" rx="5.08" ry="5.14"/><ellipse class="cls-2" cx="42.13" cy="130.98" rx="8.8" ry="8.89"/><path class="cls-2" d="M597.79,295l-2.24,2.24a29.9,29.9,0,0,1-8,5.74h0a11.66,11.66,0,0,1-8.89.26h0a22.77,22.77,0,0,1-9.18-6.44l-1.68-2v-.1l1.68-1.95a22.79,22.79,0,0,1,9.18-6.45h0a11.7,11.7,0,0,1,8.89.26h0A31.3,31.3,0,0,1,596,292.2l1.78,2,.41.42Z" transform="translate(-448.84 -200.61)"/><ellipse class="cls-2" cx="133.92" cy="93.91" rx="5.08" ry="5.14"/><ellipse class="cls-2" cx="133.92" cy="93.91" rx="8.8" ry="8.89"/><path class="cls-2" d="M581.78,426l-45,128.66c.84.4,2.08,1,3.61,1.63a82.31,82.31,0,0,0,19,5.12A159.47,159.47,0,0,0,592.05,563c7.8-.41,13.65-.75,21.3-3a71.73,71.73,0,0,0,14-5.82L582.45,426" transform="translate(-448.84 -200.61)"/><polyline class="cls-2" points="76.99 213.26 76.69 261.39 112 223.32"/><rect class="cls-2" x="112" y="216.93" width="43.78" height="8.44"/><path class="cls-2" d="M561.62,426l-2,6.58a109.79,109.79,0,0,0-3,12.62l-13.4,74.95-6.54,34.79" transform="translate(-448.84 -200.61)"/><line class="cls-2" x1="129.5" y1="225.37" x2="92.23" y2="330.78"/><path class="cls-2" d="M627.33,554.18,607.81,440.93A67.62,67.62,0,0,0,603.42,426h0" transform="translate(-448.84 -200.61)"/><line class="cls-2" x1="137.29" y1="225.37" x2="174.56" y2="330.78"/><path class="cls-2" d="M525.78,423.12h-11l.59-2.46a9.2,9.2,0,0,1,5.89-6.55h0l29.58-1.47V387.17a13,13,0,0,1,11.33-12.48h0" transform="translate(-448.84 -200.61)"/><line class="cls-2" x1="80.18" y1="213.11" x2="80.57" y2="257.2"/><rect class="cls-2" x="20.66" y="337.44" width="42.73" height="16.13"/><rect class="cls-2" x="22.05" y="323.64" width="39.47" height="6.81" rx="3.33"/><line class="cls-2" x1="22.05" y1="337.44" x2="27.16" y2="330.45"/><line class="cls-2" x1="61.97" y1="337.44" x2="58.12" y2="330.45"/><rect class="cls-2" x="20.66" y="52.41" width="42.73" height="16.13"/><rect class="cls-2" x="22.05" y="75.52" width="39.47" height="6.81" rx="3.33"/><line class="cls-2" x1="22.05" y1="68.54" x2="27.16" y2="75.52"/><line class="cls-2" x1="61.97" y1="68.54" x2="58.12" y2="75.52"/><line class="cls-2" x1="26.42" y1="82.34" x2="26.42" y2="323.64"/><line class="cls-2" x1="31.83" y1="119.27" x2="31.83" y2="82.34"/><path class="cls-2" d="M480.68,336.73" transform="translate(-448.84 -200.61)"/><line class="cls-2" x1="31.83" y1="323.64" x2="31.83" y2="142.47"/><line class="cls-2" x1="36.74" y1="116.28" x2="36.74" y2="82.34"/><path class="cls-2" d="M485.59,324.67" transform="translate(-448.84 -200.61)"/><path class="cls-2" d="M485.59,338.47" transform="translate(-448.84 -200.61)"/><line class="cls-2" x1="36.74" y1="323.64" x2="36.74" y2="145.38"/><line class="cls-2" x1="42.2" y1="115.39" x2="42.2" y2="82.38"/><path class="cls-2" d="M491,341.31" transform="translate(-448.84 -200.61)"/><line class="cls-2" x1="42.2" y1="323.64" x2="42.2" y2="146.25"/><line class="cls-2" x1="47.57" y1="145.21" x2="47.57" y2="323.64"/><path class="cls-2" d="M496.42,339.86" transform="translate(-448.84 -200.61)"/><path class="cls-2" d="M496.42,323.85" transform="translate(-448.84 -200.61)"/><line class="cls-2" x1="47.57" y1="82.38" x2="47.57" y2="116.43"/><line class="cls-2" x1="57.71" y1="155.05" x2="57.71" y2="82.41"/><line class="cls-2" x1="57.71" y1="323.67" x2="57.71" y2="201.27"/><circle class="cls-2" cx="41.98" cy="130.81" r="15.53"/><path class="cls-2" d="M659.35,332.13l2.24,2.24a29.94,29.94,0,0,0,8.06,5.74h0a11.63,11.63,0,0,0,8.88.26h0a22.77,22.77,0,0,0,9.18-6.44l1.68-2v-.1l-1.68-1.95a22.7,22.7,0,0,0-9.18-6.45h0a11.68,11.68,0,0,0-8.88.26h0a31.62,31.62,0,0,0-8.47,5.59l-1.78,2-.41.42Z" transform="translate(-448.84 -200.61)"/><ellipse class="cls-2" cx="225.53" cy="131.03" rx="5.08" ry="5.14"/><ellipse class="cls-2" cx="225.53" cy="131.03" rx="8.8" ry="8.89"/><rect class="cls-2" x="653.12" y="538.11" width="42.73" height="16.13" transform="translate(900.12 891.73) rotate(-180)"/><rect class="cls-2" x="654.98" y="524.31" width="39.47" height="6.81" rx="3.33" transform="translate(900.59 854.81) rotate(-180)"/><line class="cls-2" x1="245.61" y1="337.49" x2="240.5" y2="330.51"/><line class="cls-2" x1="205.69" y1="337.49" x2="209.54" y2="330.51"/><rect class="cls-2" x="653.12" y="253.08" width="42.73" height="16.13" transform="translate(900.12 321.66) rotate(-180)"/><rect class="cls-2" x="654.98" y="276.19" width="39.47" height="6.81" rx="3.33" transform="translate(900.59 358.58) rotate(180)"/><line class="cls-2" x1="245.61" y1="68.59" x2="240.5" y2="75.57"/><line class="cls-2" x1="205.69" y1="68.59" x2="209.54" y2="75.57"/><line class="cls-2" x1="241.24" y1="82.39" x2="241.24" y2="323.69"/><line class="cls-2" x1="235.83" y1="119.32" x2="235.83" y2="82.39"/><path class="cls-2" d="M684.67,336.78" transform="translate(-448.84 -200.61)"/><line class="cls-2" x1="235.83" y1="323.69" x2="235.83" y2="142.45"/><line class="cls-2" x1="230.92" y1="116.39" x2="230.92" y2="82.39"/><path class="cls-2" d="M679.76,324.73" transform="translate(-448.84 -200.61)"/><path class="cls-2" d="M679.76,338.52" transform="translate(-448.84 -200.61)"/><line class="cls-2" x1="230.92" y1="194.71" x2="230.92" y2="145.32"/><line class="cls-2" x1="230.92" y1="323.69" x2="230.92" y2="214.65"/><line class="cls-2" x1="225.46" y1="115.48" x2="225.46" y2="82.43"/><path class="cls-2" d="M674.31,341.36" transform="translate(-448.84 -200.61)"/><line class="cls-2" x1="225.46" y1="210.97" x2="225.46" y2="146.27"/><line class="cls-2" x1="225.46" y1="323.69" x2="225.46" y2="214.65"/><line class="cls-2" x1="220.09" y1="214.34" x2="220.09" y2="323.69"/><path class="cls-2" d="M668.93,415" transform="translate(-448.84 -200.61)"/><line class="cls-2" x1="220.09" y1="145.23" x2="220.09" y2="188.9"/><path class="cls-2" d="M668.93,339.92" transform="translate(-448.84 -200.61)"/><path class="cls-2" d="M668.93,323.91" transform="translate(-448.84 -200.61)"/><line class="cls-2" x1="220.09" y1="82.43" x2="220.09" y2="116.49"/><line class="cls-2" x1="209.95" y1="184.97" x2="209.95" y2="82.46"/><line class="cls-2" x1="209.95" y1="323.72" x2="209.95" y2="214.34"/><circle class="cls-2" cx="225.68" cy="130.86" r="15.53"/><polyline class="cls-2" points="73.86 154.21 65.93 145.38 55.18 158.31 55.18 198.13 65.93 210.7 77.65 198.59 77.65 169.31"/><line class="cls-2" x1="55.18" y1="198.13" x2="77.65" y2="198.13"/><path class="cls-2" d="M526.49,358.92" transform="translate(-448.84 -200.61)"/><line class="cls-2" x1="55.18" y1="158.31" x2="68.66" y2="158.31"/><line class="cls-2" x1="70.3" y1="157.12" x2="66.04" y2="145.82"/><polyline class="cls-2" points="65.89 145.82 61.87 158.31 61.87 198.13 65.89 210.12 70.74 198.13 70.74 160.39"/><path class="cls-2" d="M526.75,369.2h0a13.29,13.29,0,0,1,6.27-8.64l2.21-1.17-.22-.09c-4-1.71-7.14-5.58-8.65-10.57h0l-.24-.6-.19.6h0c-1.51,5-4.68,8.86-8.65,10.57l-.22.09,2.21,1.17a13.29,13.29,0,0,1,6.27,8.64h0l.6,1.33Z" transform="translate(-448.84 -200.61)"/><circle class="cls-2" cx="134.11" cy="93.91" r="15.54"/><line class="cls-2" x1="134.11" y1="146.74" x2="134.11" y2="153.42"/><path class="cls-2" d="M586.22,358.24c0,1-1.52,1.85-3.41,1.85s-3.42-.83-3.42-1.85" transform="translate(-448.84 -200.61)"/><path class="cls-2" d="M575.32,345.07c0,1-1.53,1.85-3.42,1.85s-3.41-.83-3.41-1.85" transform="translate(-448.84 -200.61)"/><path class="cls-2" d="M597.41,345.07c0,1-1.53,1.85-3.42,1.85s-3.41-.83-3.41-1.85" transform="translate(-448.84 -200.61)"/><line class="cls-2" x1="128.65" y1="139.79" x2="119.89" y2="139.79"/><line class="cls-2" x1="138.6" y1="139.79" x2="147.39" y2="139.79"/><path class="cls-2" d="M583,339.09h0a6.92,6.92,0,0,1,3.81-4.32l1.33-.58-.13-.05a8.76,8.76,0,0,1-5.25-5.29h0l-.14-.29-.12.29h0a8.73,8.73,0,0,1-5.25,5.29l-.13.05,1.34.58a6.92,6.92,0,0,1,3.81,4.32h0l.36.66Z" transform="translate(-448.84 -200.61)"/><path class="cls-2" d="M550.83,406.08l-7.64-6.17h0a22.82,22.82,0,0,1-1.78-16.53l9-33.19a82.12,82.12,0,0,0,2.79-18h0a32.31,32.31,0,0,1,9.14-21.13l.25-.26" transform="translate(-448.84 -200.61)"/><path class="cls-2" d="M623.81,389.25a22.44,22.44,0,0,0-.66-5.51L615,350.35a82.54,82.54,0,0,1-2.36-18h0A32.25,32.25,0,0,0,604,311l-.24-.26" transform="translate(-448.84 -200.61)"/><path class="cls-2" d="M576,320a10.07,10.07,0,0,0-2-2.48,11.81,11.81,0,0,0-4.74-2.41,20.09,20.09,0,0,1-8.47-6.21c-.55-.7-1.39-1.9-3.18-8.92-1.57-6.18-2.87-12.87-3.26-14.91-.9-4.73-1.26-7.06-3-10a36.75,36.75,0,0,0-3.41-4.5,26.73,26.73,0,0,1,6.21,6.75,38.77,38.77,0,0,1,4.58,9.55c.65,1.88.42,1.59,1.63,5.51,1.4,4.54,2.13,6.85,3,8.3a14.77,14.77,0,0,0,5.74,5.75c1.45.74,1.95.61,5,2a21.94,21.94,0,0,1,4.11,2.17,10.41,10.41,0,0,1,4,4.5,8.88,8.88,0,0,1,.54,4.43" transform="translate(-448.84 -200.61)"/><path class="cls-2" d="M589.86,320a10.07,10.07,0,0,1,2-2.48,11.81,11.81,0,0,1,4.74-2.41,20,20,0,0,0,8.46-6.21c.56-.7,1.4-1.9,3.19-8.92,1.57-6.18,2.87-12.87,3.26-14.91.9-4.73,1.26-7.06,3-10a36.18,36.18,0,0,1,3.42-4.5,26.73,26.73,0,0,0-6.21,6.75,38.77,38.77,0,0,0-4.58,9.55c-.65,1.88-.42,1.59-1.63,5.51-1.41,4.54-2.13,6.85-3,8.3a14.77,14.77,0,0,1-5.74,5.75c-1.46.74-1.95.61-5,2a21.94,21.94,0,0,0-4.11,2.17,10.41,10.41,0,0,0-4,4.5,8.77,8.77,0,0,0-.54,4.43" transform="translate(-448.84 -200.61)"/><polyline class="cls-2" points="190.85 214.34 191.15 262.47 155.84 224.4"/><path class="cls-2" d="M614.69,395.43v-7.18c0-6.19-4.33-12.17-10.48-12.87l-1.55-.26" transform="translate(-448.84 -200.61)"/><path class="cls-2" d="M639.75,424.19h11l-.58-2.45a9.23,9.23,0,0,0-5.9-6.55h0l-.64,0" transform="translate(-448.84 -200.61)"/><line class="cls-2" x1="187.66" y1="214.19" x2="187.27" y2="258.28"/><path class="cls-2" d="M629.77,414.47" transform="translate(-448.84 -200.61)"/><path class="cls-2" d="M618.3,395.43" transform="translate(-448.84 -200.61)"/><polyline class="cls-2" points="228.55 194.81 232.39 194.81 232.39 214.54 162.69 214.54 162.69 194.81 166.39 194.81"/><line class="cls-2" x1="197.54" y1="186.41" x2="197.54" y2="211.09"/><path class="cls-2" d="M646.38,387.83a10.1,10.1,0,0,0-1.86-2.49,7.38,7.38,0,0,0-2.8-1.94,6.83,6.83,0,0,0-4.19-.08c-1.14.33-1.51.74-3.57,2.09a35.76,35.76,0,0,1-4.11,2.49,20.59,20.59,0,0,1-6.29,1.78,26.7,26.7,0,0,1-5.12.31v18.38a28.43,28.43,0,0,0,5.12-.31,20.94,20.94,0,0,0,6.29-1.79,37,37,0,0,0,4.11-2.48c2.06-1.36,2.43-1.77,3.57-2.1a6.83,6.83,0,0,1,4.19.08,7.38,7.38,0,0,1,2.8,1.94,10.29,10.29,0,0,1,1.86,2.49" transform="translate(-448.84 -200.61)"/><path class="cls-2" d="M618.32,393.34c-.9.05-1.88.07-3,0v18.37a32.88,32.88,0,0,0,5.69-.31,24.79,24.79,0,0,0,7-1.78,41.53,41.53,0,0,0,4.57-2.48c2.28-1.36,2.7-1.77,4-2.1a8.38,8.38,0,0,1,4.65.08,8.22,8.22,0,0,1,3.1,1.94,10.57,10.57,0,0,1,2.07,2.49" transform="translate(-448.84 -200.61)"/><path class="cls-2" d="M646.38,387.83a10.19,10.19,0,0,1,1.87-2.49A7.34,7.34,0,0,1,651,383.4a6.83,6.83,0,0,1,4.19-.08c1.14.33,1.52.74,3.57,2.09a34.94,34.94,0,0,0,4.12,2.49,20.54,20.54,0,0,0,6.28,1.78,26.81,26.81,0,0,0,5.13.31v18.38a28.55,28.55,0,0,1-5.13-.31,20.89,20.89,0,0,1-6.28-1.79,36.1,36.1,0,0,1-4.12-2.48c-2-1.36-2.43-1.77-3.57-2.1a6.83,6.83,0,0,0-4.19.08,7.34,7.34,0,0,0-2.79,1.94,10.38,10.38,0,0,0-1.87,2.49" transform="translate(-448.84 -200.61)"/><path class="cls-2" d="M674.44,393.34c.9.05,1.89.07,2.95,0v18.37a32.82,32.82,0,0,1-5.68-.31,24.84,24.84,0,0,1-7-1.78,42.46,42.46,0,0,1-4.57-2.48c-2.28-1.36-2.69-1.77-4-2.1a8.37,8.37,0,0,0-4.65.08,8.22,8.22,0,0,0-3.1,1.94,10.57,10.57,0,0,0-2.07,2.49" transform="translate(-448.84 -200.61)"/><line class="cls-2" x1="113.75" y1="216.93" x2="107.31" y2="176.49"/><line class="cls-2" x1="117.53" y1="216.93" x2="110.87" y2="174.83"/><line class="cls-2" x1="150.31" y1="216.93" x2="156.68" y2="175"/><line class="cls-2" x1="153.74" y1="216.93" x2="160.04" y2="176.48"/><path class="cls-2" d="M599.39,359.06c3.17,2.68,5.08,6.13,5.08,9.9,0,8.55-9.82,15.47-21.93,15.47s-21.93-6.92-21.93-15.47c0-3.94,2.09-7.54,5.52-10.27" transform="translate(-448.84 -200.61)"/><path class="cls-2" d="M563.11,328.56l-.11,11.5-2,.86a3.22,3.22,0,0,0-.06,5.87l1.68.78c.86,11.75,9.58,21,20.21,21s19.25-9.13,20.19-20.79l1.29-.67a3.71,3.71,0,0,0,.06-6.57l-1.85-1V329.23" transform="translate(-448.84 -200.61)"/><line class="cls-2" x1="127.68" y1="202.43" x2="139.44" y2="202.43"/><line class="cls-2" x1="133.56" y1="212.64" x2="133.56" y2="196.57"/><ellipse class="cls-2" cx="133.6" cy="192.23" rx="3.75" ry="4.35"/><path class="cls-2" d="M563.08,334.43c3.17-4.65,10.78-7.92,19.66-7.92s16.7,3.36,19.79,8.11" transform="translate(-448.84 -200.61)"/><path class="cls-2" d="M563.11,329.2c0-5.64,8.8-9.17,19.69-9.17s19.76,3.86,19.76,9.49" transform="translate(-448.84 -200.61)"/><path class="cls-3" d="M501.41,596.5v8.86h-1.65v-3.87h-4.17v3.87h-1.65V596.5h1.65v3.81h4.17V596.5Z" transform="translate(-448.84 -200.61)"/><path class="cls-3" d="M515.89,605.36h-1.27a.49.49,0,0,1-.35-.11.67.67,0,0,1-.21-.26l-.66-1.81h-3.67l-.66,1.81a.75.75,0,0,1-.19.26.58.58,0,0,1-.35.11h-1.29l3.49-8.86h1.68ZM513,602l-1.08-3c0-.13-.11-.28-.17-.46l-.17-.58c-.05.2-.11.4-.16.58s-.12.34-.17.48L510.16,602Z" transform="translate(-448.84 -200.61)"/><path class="cls-3" d="M525.29,604a2.11,2.11,0,0,0,.85-.16,1.69,1.69,0,0,0,.64-.45,1.94,1.94,0,0,0,.39-.69,3,3,0,0,0,.14-.92V596.5H529v5.31a4.11,4.11,0,0,1-.26,1.46,3.29,3.29,0,0,1-.72,1.16,3.44,3.44,0,0,1-1.16.76,4.5,4.5,0,0,1-3.07,0,3.24,3.24,0,0,1-1.89-1.92,4.11,4.11,0,0,1-.25-1.46V596.5h1.65v5.3a2.92,2.92,0,0,0,.13.92,2.17,2.17,0,0,0,.4.7,1.69,1.69,0,0,0,.64.45A2.13,2.13,0,0,0,525.29,604Z" transform="translate(-448.84 -200.61)"/><path class="cls-3" d="M541.92,597.85h-2.67v7.51H537.6v-7.51h-2.67V596.5h7Z" transform="translate(-448.84 -200.61)"/><path class="cls-3" d="M549.65,597.81v2.46h3.1v1.27h-3.1V604h3.94v1.32H548V596.5h5.6v1.31Z" transform="translate(-448.84 -200.61)"/><path class="cls-3" d="M570.72,596.5a5.09,5.09,0,0,1,1.54.2,3,3,0,0,1,1.07.59,2.34,2.34,0,0,1,.63.89,3,3,0,0,1,.21,1.14,3.18,3.18,0,0,1-.22,1.18,2.5,2.5,0,0,1-.64.93,3.3,3.3,0,0,1-1.08.6,4.87,4.87,0,0,1-1.51.21h-1.23v3.12h-1.65V596.5Zm0,4.45a2.36,2.36,0,0,0,.79-.11,1.35,1.35,0,0,0,.9-.84,2.06,2.06,0,0,0,.11-.68,1.87,1.87,0,0,0-.11-.64,1.31,1.31,0,0,0-.34-.49,1.34,1.34,0,0,0-.55-.31,2.71,2.71,0,0,0-.8-.11h-1.23V601Z" transform="translate(-448.84 -200.61)"/><path class="cls-3" d="M587.26,605.36h-1.49a.66.66,0,0,1-.62-.33l-1.86-2.84a.68.68,0,0,0-.23-.22.74.74,0,0,0-.37-.07H582v3.46h-1.65V596.5H583a5.84,5.84,0,0,1,1.55.18,3,3,0,0,1,1.06.53,2.06,2.06,0,0,1,.61.8,2.71,2.71,0,0,1,.19,1,2.55,2.55,0,0,1-.13.84,2.42,2.42,0,0,1-.38.73,2.78,2.78,0,0,1-.61.57,3,3,0,0,1-.83.38,2,2,0,0,1,.29.22,1.53,1.53,0,0,1,.25.3ZM583,600.71a2.54,2.54,0,0,0,.82-.11,1.73,1.73,0,0,0,.57-.32,1.25,1.25,0,0,0,.33-.49,1.8,1.8,0,0,0,.11-.62,1.28,1.28,0,0,0-.44-1,2.15,2.15,0,0,0-1.36-.36H582v2.94Z" transform="translate(-448.84 -200.61)"/><path class="cls-3" d="M594.78,597.81v2.46h3.1v1.27h-3.1V604h3.94v1.32h-5.59V596.5h5.59v1.31Zm3.42-1.95h-1.09l-.23,0a.53.53,0,0,1-.27-.2l-.5-.65-.1-.13-.09.13-.5.65a.57.57,0,0,1-.27.2l-.23,0h-1l1.48-1.68h1.38Z" transform="translate(-448.84 -200.61)"/><path class="cls-3" d="M611.28,597.85H608.6v7.51H607v-7.51h-2.67V596.5h7Z" transform="translate(-448.84 -200.61)"/><path class="cls-3" d="M624.27,605.36h-1.49a.64.64,0,0,1-.61-.33l-1.87-2.84a.6.6,0,0,0-.23-.22.71.71,0,0,0-.37-.07H619v3.46h-1.65V596.5h2.7a5.84,5.84,0,0,1,1.55.18,2.93,2.93,0,0,1,1.06.53,2,2,0,0,1,.61.8,2.71,2.71,0,0,1,.2,1,2.84,2.84,0,0,1-.13.84,2.67,2.67,0,0,1-.38.73,2.84,2.84,0,0,1-.62.57,3,3,0,0,1-.83.38,1.66,1.66,0,0,1,.3.22,1.22,1.22,0,0,1,.24.3ZM620,600.71a2.48,2.48,0,0,0,.81-.11,1.73,1.73,0,0,0,.57-.32,1.25,1.25,0,0,0,.33-.49,1.59,1.59,0,0,0,.11-.62,1.25,1.25,0,0,0-.44-1,2.15,2.15,0,0,0-1.36-.36h-1v2.94Z" transform="translate(-448.84 -200.61)"/><path class="cls-3" d="M631.8,597.81v2.46h3.1v1.27h-3.1V604h3.93v1.32h-5.59V596.5h5.59v1.31Z" transform="translate(-448.84 -200.61)"/><path class="cls-3" d="M646.82,598.11a.62.62,0,0,1-.16.19.39.39,0,0,1-.2.05.54.54,0,0,1-.28-.09c-.1-.06-.22-.14-.36-.21a2.49,2.49,0,0,0-.49-.21,1.83,1.83,0,0,0-.66-.1,2.13,2.13,0,0,0-.6.08,1.36,1.36,0,0,0-.43.23.93.93,0,0,0-.26.36,1.06,1.06,0,0,0-.09.45.78.78,0,0,0,.18.52,1.28,1.28,0,0,0,.46.35,4.11,4.11,0,0,0,.66.27l.75.25a7.05,7.05,0,0,1,.76.3,3,3,0,0,1,.65.44,2,2,0,0,1,.46.66,2.19,2.19,0,0,1,.18.94,3,3,0,0,1-.21,1.12,2.41,2.41,0,0,1-.6.91,2.79,2.79,0,0,1-1,.62,3.56,3.56,0,0,1-1.31.22,4.58,4.58,0,0,1-.83-.08,4.84,4.84,0,0,1-.79-.24,3.68,3.68,0,0,1-.71-.37,3.48,3.48,0,0,1-.59-.47l.49-.8a.56.56,0,0,1,.16-.14.36.36,0,0,1,.2-.06.56.56,0,0,1,.34.13l.42.28a3.79,3.79,0,0,0,.57.28,2.3,2.3,0,0,0,.79.12,1.63,1.63,0,0,0,1.09-.33,1.2,1.2,0,0,0,.39-1,.86.86,0,0,0-.18-.57,1.32,1.32,0,0,0-.46-.37,3.36,3.36,0,0,0-.66-.26l-.74-.22a6.17,6.17,0,0,1-.75-.3,2.15,2.15,0,0,1-.66-.45,2,2,0,0,1-.46-.69,2.52,2.52,0,0,1-.18-1,2.37,2.37,0,0,1,.2-.94,2.4,2.4,0,0,1,.56-.82,2.77,2.77,0,0,1,.91-.57,3.37,3.37,0,0,1,1.23-.21,4.2,4.2,0,0,1,1.45.24,3.3,3.3,0,0,1,1.13.69Z" transform="translate(-448.84 -200.61)"/><path class="cls-3" d="M658.45,598.11a.79.79,0,0,1-.15.19.46.46,0,0,1-.21.05.54.54,0,0,1-.28-.09c-.1-.06-.22-.14-.36-.21a2.67,2.67,0,0,0-.48-.21,1.91,1.91,0,0,0-.66-.1,2.25,2.25,0,0,0-.61.08,1.36,1.36,0,0,0-.43.23,1,1,0,0,0-.26.36,1.25,1.25,0,0,0-.08.45.78.78,0,0,0,.17.52,1.37,1.37,0,0,0,.46.35,5,5,0,0,0,.66.27c.25.07.5.16.75.25a7.05,7.05,0,0,1,.76.3,3,3,0,0,1,.65.44,2,2,0,0,1,.47.66,2.36,2.36,0,0,1,.17.94,3.18,3.18,0,0,1-.2,1.12,2.67,2.67,0,0,1-.6.91,2.93,2.93,0,0,1-1,.62,3.56,3.56,0,0,1-1.31.22,4.58,4.58,0,0,1-.83-.08,5.16,5.16,0,0,1-.79-.24,3.68,3.68,0,0,1-.71-.37,3.93,3.93,0,0,1-.59-.47l.49-.8a.56.56,0,0,1,.16-.14.37.37,0,0,1,.21-.06.56.56,0,0,1,.33.13l.42.28a5,5,0,0,0,.57.28,2.34,2.34,0,0,0,.79.12,1.61,1.61,0,0,0,1.09-.33,1.2,1.2,0,0,0,.39-1,.92.92,0,0,0-.17-.57,1.36,1.36,0,0,0-.47-.37,3.52,3.52,0,0,0-.65-.26l-.75-.22a6.9,6.9,0,0,1-.75-.3,2.42,2.42,0,0,1-.66-.45,2,2,0,0,1-.46-.69,2.53,2.53,0,0,1-.17-1,2.36,2.36,0,0,1,.19-.94,2.55,2.55,0,0,1,.56-.82,2.88,2.88,0,0,1,.91-.57,3.39,3.39,0,0,1,1.24-.21,4.18,4.18,0,0,1,1.44.24,3.21,3.21,0,0,1,1.13.69Z" transform="translate(-448.84 -200.61)"/><path class="cls-3" d="M667,597.81v2.46h3.1v1.27H667V604H671v1.32h-5.6V596.5H671v1.31Z" transform="translate(-448.84 -200.61)"/></svg>