<svg id="Calque_12" data-name="Calque 12" xmlns="http://www.w3.org/2000/svg" viewBox="0 0 267.21 444.13"><defs><style>.cls-1{fill:#292b3f;}.cls-2{fill:none;stroke:#34e89e;stroke-miterlimit:10;stroke-width:2px;}.cls-3{fill:#34e89e;}</style></defs><title>3-en</title><rect class="cls-1" width="267.21" height="444.13" rx="15.57"/><path class="cls-2" d="M412.34,449.71V227.29a2.39,2.39,0,0,0-2.38-2.38H202.31a2.39,2.39,0,0,0-2.38,2.38v223.2" transform="translate(-172.62 -201.3)"/><path class="cls-2" d="M199.93,464.82V617.73a2.38,2.38,0,0,0,2.38,2.38H410a2.38,2.38,0,0,0,2.38-2.38V464" transform="translate(-172.62 -201.3)"/><path class="cls-2" d="M228.68,507.76c.83-.62,3.74-2.93,3.78-6.21,0-1.54-.59-2.82-1.74-5.24a29.78,29.78,0,0,0-2.39-4.14h-.44a29.78,29.78,0,0,0-2.39,4.14c-1.15,2.42-1.77,3.7-1.75,5.24.05,3.28,2.95,5.59,3.79,6.21" transform="translate(-172.62 -201.3)"/><path class="cls-2" d="M234.5,520.51c1,.2,4.52.81,6.61-1.49,1-1.08,1.36-2.48,2.06-5.1a33.92,33.92,0,0,0,.91-4.81l-.32-.35a24,24,0,0,0-4.31,1.1c-2.35.82-3.6,1.26-4.55,2.38-2,2.37-1.42,6.29-1.22,7.38" transform="translate(-172.62 -201.3)"/><path class="cls-2" d="M234.5,535c1,.2,4.52.81,6.61-1.49,1-1.08,1.36-2.48,2.06-5.1a33.76,33.76,0,0,0,.91-4.82l-.32-.34a24.76,24.76,0,0,0-4.31,1.09c-2.35.83-3.6,1.27-4.55,2.39-2,2.37-1.42,6.28-1.22,7.38" transform="translate(-172.62 -201.3)"/><path class="cls-2" d="M234.5,550.19c1,.21,4.52.82,6.61-1.48,1-1.08,1.36-2.48,2.06-5.11a33.67,33.67,0,0,0,.91-4.81l-.32-.35a25.9,25.9,0,0,0-4.31,1.1c-2.35.83-3.6,1.27-4.55,2.38-2,2.38-1.42,6.29-1.22,7.38" transform="translate(-172.62 -201.3)"/><path class="cls-2" d="M222.37,519c.23-1.09,1-5-1-7.42-.92-1.15-2.15-1.64-4.47-2.55a25,25,0,0,0-4.28-1.26l-.33.34a33.39,33.39,0,0,0,.76,4.84c.62,2.65,1,4.06,1.91,5.18,2,2.37,5.57,1.9,6.57,1.73" transform="translate(-172.62 -201.3)"/><path class="cls-2" d="M222.37,534.35c.23-1.08,1-5-1-7.42-.92-1.15-2.15-1.64-4.47-2.55a25.73,25.73,0,0,0-4.28-1.25l-.33.33a33.49,33.49,0,0,0,.76,4.85c.62,2.64,1,4.05,1.91,5.17,2,2.38,5.57,1.9,6.57,1.73" transform="translate(-172.62 -201.3)"/><path class="cls-2" d="M222.37,549.54c.23-1.09,1-5-1-7.42-.92-1.15-2.15-1.64-4.47-2.55a25,25,0,0,0-4.28-1.26l-.33.34a33.39,33.39,0,0,0,.76,4.84c.62,2.65,1,4.06,1.91,5.18,2,2.37,5.57,1.9,6.57,1.73" transform="translate(-172.62 -201.3)"/><line class="cls-2" x1="55.49" y1="300.02" x2="55.49" y2="361.64"/><polyline class="cls-2" points="44.88 344.03 55.49 355.25 66.14 344.03"/><polyline class="cls-2" points="44.88 328.67 55.49 339.89 66.14 328.67"/><polyline class="cls-2" points="45.37 313.45 55.49 325.09 66.14 313.45"/><path class="cls-2" d="M387.42,506.6c.83-.62,3.73-2.93,3.78-6.21,0-1.54-.59-2.82-1.75-5.24a29.9,29.9,0,0,0-2.38-4.14h-.45a29.9,29.9,0,0,0-2.38,4.14c-1.16,2.42-1.77,3.7-1.75,5.24.05,3.28,2.95,5.59,3.79,6.21" transform="translate(-172.62 -201.3)"/><path class="cls-2" d="M393.24,519.35c1,.2,4.51.81,6.61-1.49,1-1.08,1.36-2.48,2.06-5.1a33.92,33.92,0,0,0,.91-4.81l-.32-.35a24,24,0,0,0-4.31,1.1c-2.35.82-3.6,1.26-4.55,2.38-2,2.37-1.42,6.29-1.22,7.38" transform="translate(-172.62 -201.3)"/><path class="cls-2" d="M393.24,533.85c1,.2,4.51.81,6.61-1.49,1-1.08,1.36-2.48,2.06-5.1a34,34,0,0,0,.91-4.82l-.32-.34a24.76,24.76,0,0,0-4.31,1.09c-2.35.83-3.6,1.27-4.55,2.39-2,2.37-1.42,6.28-1.22,7.38" transform="translate(-172.62 -201.3)"/><path class="cls-2" d="M393.24,549c1,.21,4.51.82,6.61-1.48,1-1.09,1.36-2.48,2.06-5.11a33.67,33.67,0,0,0,.91-4.81l-.32-.35a25.9,25.9,0,0,0-4.31,1.1c-2.35.83-3.6,1.27-4.55,2.38-2,2.38-1.42,6.29-1.22,7.38" transform="translate(-172.62 -201.3)"/><path class="cls-2" d="M381.1,517.83c.24-1.09,1-5-1-7.42-.92-1.15-2.16-1.64-4.48-2.55a24.66,24.66,0,0,0-4.27-1.26l-.33.34a33.39,33.39,0,0,0,.76,4.84c.62,2.65.95,4.06,1.9,5.18,2,2.37,5.58,1.9,6.57,1.73" transform="translate(-172.62 -201.3)"/><path class="cls-2" d="M381.1,533.19c.24-1.08,1-5-1-7.42-.92-1.15-2.16-1.64-4.48-2.55a24.48,24.48,0,0,0-4.27-1.25l-.33.33a33.19,33.19,0,0,0,.76,4.84c.62,2.65.95,4.06,1.9,5.18,2,2.38,5.58,1.9,6.57,1.73" transform="translate(-172.62 -201.3)"/><path class="cls-2" d="M381.1,548.38c.24-1.09,1-5-1-7.42-.92-1.15-2.16-1.64-4.48-2.55a24.66,24.66,0,0,0-4.27-1.26l-.33.34a33.39,33.39,0,0,0,.76,4.84c.62,2.65.95,4.06,1.9,5.18,2,2.37,5.58,1.9,6.57,1.73" transform="translate(-172.62 -201.3)"/><line class="cls-2" x1="214.23" y1="298.86" x2="214.23" y2="360.48"/><polyline class="cls-2" points="203.61 342.87 214.23 354.09 224.88 342.87"/><polyline class="cls-2" points="203.61 327.51 214.23 338.73 224.88 327.51"/><polyline class="cls-2" points="204.1 312.29 214.23 323.93 224.88 312.29"/><line class="cls-2" x1="218.36" y1="300.02" x2="239.72" y2="300.02"/><line class="cls-2" x1="173.28" y1="300.02" x2="210.09" y2="300.02"/><line class="cls-2" x1="59.84" y1="300.02" x2="95.76" y2="300.02"/><line class="cls-2" x1="27.31" y1="300.02" x2="51.14" y2="300.02"/><path class="cls-2" d="M330.49,553.8V378.46a13.49,13.49,0,0,0-9.31-12.82h0" transform="translate(-172.62 -201.3)"/><path class="cls-2" d="M284.19,553.8V378.46a13.49,13.49,0,0,1,9.31-12.82h0" transform="translate(-172.62 -201.3)"/><path class="cls-2" d="M268.78,470.2l-.91,71.37a9.92,9.92,0,0,0,7.32,9.71l22.47,6.13V375.73l3.26-1.24v-3.8" transform="translate(-172.62 -201.3)"/><path class="cls-2" d="M345.62,470l.91,71.38a9.94,9.94,0,0,1-7.31,9.71l-21,5.68v-181l-4.22-.93v-4.09" transform="translate(-172.62 -201.3)"/><line class="cls-2" x1="125.04" y1="348.48" x2="145.62" y2="348.48"/><line class="cls-2" x1="134.97" y1="322.54" x2="134.97" y2="348.48"/><path class="cls-2" d="M312.79,549.78" transform="translate(-172.62 -201.3)"/><line class="cls-2" x1="139.94" y1="284.97" x2="139.94" y2="293.12"/><line class="cls-2" x1="139.94" y1="298.01" x2="140.18" y2="348.48"/><path class="cls-2" d="M317.62,287.93l-1.46,1.53a19.29,19.29,0,0,1-5.24,3.91h0a7.2,7.2,0,0,1-5.77.18h0a14.73,14.73,0,0,1-6-4.39l-1.09-1.33v-.08l1.09-1.33a14.73,14.73,0,0,1,6-4.39h0a7.24,7.24,0,0,1,5.77.18h0a20.13,20.13,0,0,1,5.51,3.81l1.16,1.38.27.28Z" transform="translate(-172.62 -201.3)"/><ellipse class="cls-2" cx="135.23" cy="86.3" rx="3.31" ry="3.5"/><ellipse class="cls-2" cx="135.23" cy="86.3" rx="5.72" ry="6.06"/><path class="cls-2" d="M346,370.69" transform="translate(-172.62 -201.3)"/><path class="cls-2" d="M267.86,286.62" transform="translate(-172.62 -201.3)"/><path class="cls-2" d="M346,287.6" transform="translate(-172.62 -201.3)"/><path class="cls-2" d="M267.86,370.69" transform="translate(-172.62 -201.3)"/><path class="cls-2" d="M320.83,350.56a4.28,4.28,0,0,1-3.2,1.87h-5.07" transform="translate(-172.62 -201.3)"/><path class="cls-2" d="M294.87,350.56a4.21,4.21,0,0,0,1.68,1.46,4.28,4.28,0,0,0,1.52.41h5.06" transform="translate(-172.62 -201.3)"/><circle class="cls-2" cx="122.84" cy="156.09" r="0.82"/><circle class="cls-2" cx="147.39" cy="156.09" r="0.82"/><circle class="cls-2" cx="135.15" cy="140.24" r="0.82"/><line class="cls-2" x1="140.72" y1="145.75" x2="149.45" y2="144.2"/><line class="cls-2" x1="129.62" y1="145.75" x2="120.89" y2="144.2"/><line class="cls-2" x1="145.62" y1="224.25" x2="125.04" y2="224.25"/><line class="cls-2" x1="125.04" y1="228.15" x2="145.62" y2="228.15"/><line class="cls-2" x1="125.04" y1="243.75" x2="145.62" y2="243.75"/><line class="cls-2" x1="125.04" y1="247.89" x2="145.62" y2="247.89"/><polyline class="cls-2" points="125.04 195.75 135.03 202.47 145.62 196.31"/><path class="cls-2" d="M301.15,391.93l.84.27a10.51,10.51,0,0,1,5.57,4.21h0l.08,7.36" transform="translate(-172.62 -201.3)"/><path class="cls-2" d="M313.21,392.26a10.59,10.59,0,0,0-5.65,4.15" transform="translate(-172.62 -201.3)"/><path class="cls-2" d="M330.49,471.83c1.29.06,2.64.07,4,0a45.5,45.5,0,0,0,18-4.72l-8.53-75a13.57,13.57,0,0,0-13.48-12h0" transform="translate(-172.62 -201.3)"/><path class="cls-2" d="M330.28,467.07c1.28.06,2.63.06,4,0a45.5,45.5,0,0,0,18-4.72" transform="translate(-172.62 -201.3)"/><path class="cls-2" d="M284.72,471.4c-1.29.06-2.63.06-4,0a45.5,45.5,0,0,1-18-4.72l8.53-75a13.57,13.57,0,0,1,13.48-12h0" transform="translate(-172.62 -201.3)"/><path class="cls-2" d="M284.94,466.64c-1.29.06-2.64.06-4,0a45.67,45.67,0,0,1-18-4.72" transform="translate(-172.62 -201.3)"/><path class="cls-2" d="M198.13,464.05h15.68a5,5,0,0,0,5-5h0a5,5,0,0,0-5-5h-.69a4.84,4.84,0,0,0-4.84-4.84h-4.77a5.18,5.18,0,0,0-5.18,5.18h0a4.55,4.55,0,0,0-4.54,4.55v.81h0A4.33,4.33,0,0,0,198.13,464.05Z" transform="translate(-172.62 -201.3)"/><path class="cls-2" d="M200.86,464.05h0a3.06,3.06,0,0,0,3.07,3.06h49.93a6.77,6.77,0,0,0,6.77-6.77h0a6.67,6.67,0,0,0-6.67-6.67h-2.49a7.15,7.15,0,0,0-7.14-7.15h-.25a7.29,7.29,0,0,0-7.3-7.29h-6.29A7.79,7.79,0,0,0,222.7,447v.13h-9a2.93,2.93,0,0,0-2.94,2.91h0" transform="translate(-172.62 -201.3)"/><path class="cls-2" d="M218,467.11c-2.42,0-4.39,2.61-4.39,5v2.26a9.41,9.41,0,0,0,9.41,9.41h26.45v17.5" transform="translate(-172.62 -201.3)"/><path class="cls-2" d="M256.56,501.32V488.6h2.34a8.37,8.37,0,0,0,8.37-8.37v-4.09" transform="translate(-172.62 -201.3)"/><path class="cls-2" d="M268.38,476.14H260A2.94,2.94,0,0,1,257,473.2h0a2.59,2.59,0,0,1,2.59-2.59h.67v-.16a3.35,3.35,0,0,1,3.34-3.34h0" transform="translate(-172.62 -201.3)"/><path class="cls-2" d="M239.67,467.11h0a5.47,5.47,0,0,1-5.47,5.48h-9.9a2.32,2.32,0,0,0-2.32,2.33h0a2.27,2.27,0,0,0,2.27,2.27h26.83a3.26,3.26,0,0,1,3.26,3.26h0a2.68,2.68,0,0,0,2.68,2.67h1a3.91,3.91,0,0,0,3.92-3.92v-3.06" transform="translate(-172.62 -201.3)"/><line class="cls-2" x1="133.27" y1="157.86" x2="136.53" y2="157.86"/><path class="cls-2" d="M304.53,364.88l.68-.45a4.63,4.63,0,0,1,5.11,0l.73.47" transform="translate(-172.62 -201.3)"/><path class="cls-2" d="M344.51,334.43c.39.67,1.84,3,3.89,3,1,0,1.77-.48,3.29-1.4a17.76,17.76,0,0,0,2.6-1.91v-.35a19.36,19.36,0,0,0-2.6-1.91c-1.51-.92-2.32-1.41-3.28-1.4-2.06,0-3.51,2.72-3.9,3.38" transform="translate(-172.62 -201.3)"/><path class="cls-2" d="M270.67,333.53c-.38-.67-1.83-3-3.88-3-1,0-1.77.47-3.29,1.39a18.78,18.78,0,0,0-2.61,1.9v.35a18.89,18.89,0,0,0,2.59,1.92c1.51.93,2.32,1.42,3.28,1.41,2.06,0,3.52-2.35,3.91-3" transform="translate(-172.62 -201.3)"/><line class="cls-2" x1="135.15" y1="111.79" x2="135.15" y2="118.31"/><line class="cls-2" x1="138.54" y1="115.05" x2="131.93" y2="115.05"/><circle class="cls-2" cx="135.15" cy="115.05" r="4.98"/><path class="cls-2" d="M305.8,311.78l-3.54-7.64h0a4.93,4.93,0,0,0-7.17-.39l-.87.82h0a4.46,4.46,0,0,0,1.44,6.53l7.28,4" transform="translate(-172.62 -201.3)"/><path class="cls-2" d="M310,311.33l2.76-8h0a4.93,4.93,0,0,0-4.88-5.26h-1.2a4.46,4.46,0,0,0-3.5,5.69l2.42,8" transform="translate(-172.62 -201.3)"/><path class="cls-2" d="M313.05,314.24l7.56-3.71h0a4.93,4.93,0,0,0,.23-7.17l-.84-.85h0a4.47,4.47,0,0,0-6.5,1.58l-3.88,7.37" transform="translate(-172.62 -201.3)"/><path class="cls-2" d="M313,318.79l7.83,3.11h0a4.94,4.94,0,0,0,5.47-4.65l.06-1.2h0a4.46,4.46,0,0,0-5.54-3.74l-8.07,2.07" transform="translate(-172.62 -201.3)"/><path class="cls-2" d="M309.86,321.66l3.11,7.83h0a4.92,4.92,0,0,0,7.13.79l.92-.77h0a4.47,4.47,0,0,0-1.07-6.6l-7-4.45" transform="translate(-172.62 -201.3)"/><path class="cls-2" d="M305.48,321.39l-2.86,7.92h0a4.94,4.94,0,0,0,4.81,5.33l1.2,0h0A4.46,4.46,0,0,0,312.2,329l-2.31-8" transform="translate(-172.62 -201.3)"/><path class="cls-2" d="M302.23,318l-7.62,3.57h0a4.94,4.94,0,0,0-.37,7.17l.83.87h0a4.46,4.46,0,0,0,6.52-1.46l4-7.3" transform="translate(-172.62 -201.3)"/><path class="cls-2" d="M302.37,314.06l-7.82-3.14h0a4.94,4.94,0,0,0-5.48,4.63l-.07,1.2h0a4.46,4.46,0,0,0,5.52,3.76l8.08-2" transform="translate(-172.62 -201.3)"/><circle class="cls-2" cx="134.9" cy="127.98" r="1.56"/><circle class="cls-2" cx="144.52" cy="124.98" r="1.56"/><circle class="cls-2" cx="148.21" cy="115.75" r="1.56"/><circle class="cls-2" cx="144.52" cy="105.91" r="1.56"/><circle class="cls-2" cx="135.16" cy="101.97" r="1.56"/><circle class="cls-2" cx="125.74" cy="105.91" r="1.56"/><circle class="cls-2" cx="121.62" cy="114.51" r="1.56"/><circle class="cls-2" cx="125.47" cy="124.17" r="1.56"/><path class="cls-2" d="M335,342.33A28.35,28.35,0,0,1,329.74,354" transform="translate(-172.62 -201.3)"/><path class="cls-2" d="M282.79,327.4c4.52-8.4,13.93-14.18,24.8-14.18,10.68,0,19.94,5.57,24.55,13.73" transform="translate(-172.62 -201.3)"/><path class="cls-2" d="M284.81,353.16a24.23,24.23,0,0,1-4.63-11" transform="translate(-172.62 -201.3)"/><path class="cls-2" d="M351.58,331.75c-1.09-6.24-4.88-11.09-6.18-12.76a34.08,34.08,0,0,0-8.15-7.37,35.91,35.91,0,0,0-14.85-5.45" transform="translate(-172.62 -201.3)"/><path class="cls-2" d="M329.72,355a37.14,37.14,0,0,0,6.13-1.56,33.77,33.77,0,0,0,7.61-3.72,18.65,18.65,0,0,0,5.74-5.2,16,16,0,0,0,2.48-6.75c.09-.6.15-1.18.18-1.76" transform="translate(-172.62 -201.3)"/><path class="cls-2" d="M263.78,331.64c1.09-6.24,4.88-11.09,6.18-12.76a34.08,34.08,0,0,1,8.15-7.37A35.91,35.91,0,0,1,293,306.06" transform="translate(-172.62 -201.3)"/><path class="cls-2" d="M285.64,354.9a36.65,36.65,0,0,1-6.13-1.56,33.77,33.77,0,0,1-7.61-3.72,18.65,18.65,0,0,1-5.74-5.2,16,16,0,0,1-2.49-6.76c-.08-.59-.14-1.17-.17-1.75" transform="translate(-172.62 -201.3)"/><path class="cls-2" d="M288.13,307v-14.1a19.59,19.59,0,0,1,19.62-19.59h0a19.58,19.58,0,0,1,19.56,19.59v14.28" transform="translate(-172.62 -201.3)"/><line class="cls-2" x1="116.19" y1="86.49" x2="125.97" y2="86.49"/><line class="cls-2" x1="145.53" y1="86.3" x2="153.73" y2="86.3"/><path class="cls-2" d="M324.12,373.37a9.88,9.88,0,0,1,1.89,1.86,5.56,5.56,0,0,1,1.17,3.16c0,2.47-2.26,4.11-2.68,4.42a6.55,6.55,0,0,1-1.9-1.65c-2.05-2.72-.47-5.22.16-6.24Z" transform="translate(-172.62 -201.3)"/><path class="cls-2" d="M324.12,389.17A9.5,9.5,0,0,1,326,391a5.6,5.6,0,0,1,1.17,3.17c0,2.47-2.26,4.11-2.68,4.41a6.26,6.26,0,0,1-1.9-1.65c-2.05-2.72-.47-5.21.16-6.24Z" transform="translate(-172.62 -201.3)"/><path class="cls-2" d="M324.12,403.77a9.59,9.59,0,0,1,1.89,1.86,5.56,5.56,0,0,1,1.17,3.16c0,2.47-2.26,4.11-2.68,4.41a6.26,6.26,0,0,1-1.9-1.65c-2.05-2.71-.47-5.21.16-6.23Z" transform="translate(-172.62 -201.3)"/><path class="cls-2" d="M324.12,419.22a9.88,9.88,0,0,1,1.89,1.86,5.56,5.56,0,0,1,1.17,3.16c0,2.47-2.26,4.11-2.68,4.41a6.26,6.26,0,0,1-1.9-1.65c-2.05-2.71-.47-5.21.16-6.23Z" transform="translate(-172.62 -201.3)"/><path class="cls-2" d="M324.12,434.51a9.88,9.88,0,0,1,1.89,1.86,5.56,5.56,0,0,1,1.17,3.16c0,2.47-2.26,4.11-2.68,4.41a6.36,6.36,0,0,1-1.9-1.64c-2.05-2.72-.47-5.22.16-6.24Z" transform="translate(-172.62 -201.3)"/><path class="cls-2" d="M324.12,450.29a9.59,9.59,0,0,1,1.89,1.86,5.53,5.53,0,0,1,1.17,3.16c0,2.47-2.26,4.11-2.68,4.41a6.26,6.26,0,0,1-1.9-1.65c-2.05-2.72-.47-5.21.16-6.24Z" transform="translate(-172.62 -201.3)"/><path class="cls-2" d="M324.12,464.73a9.88,9.88,0,0,1,1.89,1.86,5.56,5.56,0,0,1,1.17,3.16c0,2.47-2.26,4.11-2.68,4.41a6.36,6.36,0,0,1-1.9-1.64c-2.05-2.72-.47-5.22.16-6.24Z" transform="translate(-172.62 -201.3)"/><path class="cls-2" d="M324.12,480.39a9.88,9.88,0,0,1,1.89,1.86,5.56,5.56,0,0,1,1.17,3.16c0,2.47-2.26,4.11-2.68,4.41a6.26,6.26,0,0,1-1.9-1.65c-2.05-2.71-.47-5.21.16-6.23Z" transform="translate(-172.62 -201.3)"/><path class="cls-2" d="M324.12,495.15A9.5,9.5,0,0,1,326,497a5.6,5.6,0,0,1,1.17,3.17c0,2.46-2.26,4.11-2.68,4.41a6.41,6.41,0,0,1-1.9-1.65c-2.05-2.72-.47-5.21.16-6.24Z" transform="translate(-172.62 -201.3)"/><path class="cls-2" d="M324.12,510.79a9.5,9.5,0,0,1,1.89,1.85,5.6,5.6,0,0,1,1.17,3.17c0,2.46-2.26,4.11-2.68,4.41a6.41,6.41,0,0,1-1.9-1.65c-2.05-2.72-.47-5.21.16-6.24Z" transform="translate(-172.62 -201.3)"/><path class="cls-2" d="M324.12,525.5a9.88,9.88,0,0,1,1.89,1.86,5.56,5.56,0,0,1,1.17,3.16c0,2.47-2.26,4.11-2.68,4.42a6.55,6.55,0,0,1-1.9-1.65c-2.05-2.72-.47-5.22.16-6.24Z" transform="translate(-172.62 -201.3)"/><path class="cls-2" d="M324.12,540.71a9.5,9.5,0,0,1,1.89,1.85,5.6,5.6,0,0,1,1.17,3.17c0,2.46-2.26,4.11-2.68,4.41a6.41,6.41,0,0,1-1.9-1.65c-2.05-2.72-.47-5.21.16-6.24Z" transform="translate(-172.62 -201.3)"/><path class="cls-2" d="M291,374a9.57,9.57,0,0,1,1.88,1.86A5.45,5.45,0,0,1,294.1,379c0,2.47-2.26,4.11-2.69,4.41a6.38,6.38,0,0,1-1.9-1.65c-2.05-2.72-.46-5.21.17-6.24Z" transform="translate(-172.62 -201.3)"/><path class="cls-2" d="M291,389.76a9.86,9.86,0,0,1,1.88,1.86,5.48,5.48,0,0,1,1.18,3.16c0,2.47-2.26,4.11-2.69,4.41a6.49,6.49,0,0,1-1.9-1.64c-2.05-2.72-.46-5.22.17-6.24Z" transform="translate(-172.62 -201.3)"/><path class="cls-2" d="M291,404.37a9.48,9.48,0,0,1,1.88,1.85,5.52,5.52,0,0,1,1.18,3.17c0,2.46-2.26,4.11-2.69,4.41a6.53,6.53,0,0,1-1.9-1.65c-2.05-2.72-.46-5.21.17-6.24Z" transform="translate(-172.62 -201.3)"/><path class="cls-2" d="M291,419.82a9.48,9.48,0,0,1,1.88,1.85,5.52,5.52,0,0,1,1.18,3.17c0,2.47-2.26,4.11-2.69,4.41a6.38,6.38,0,0,1-1.9-1.65c-2.05-2.72-.46-5.21.17-6.24Z" transform="translate(-172.62 -201.3)"/><path class="cls-2" d="M291,435.11a9.48,9.48,0,0,1,1.88,1.85,5.52,5.52,0,0,1,1.18,3.17c0,2.47-2.26,4.11-2.69,4.41a6.38,6.38,0,0,1-1.9-1.65c-2.05-2.72-.46-5.21.17-6.24Z" transform="translate(-172.62 -201.3)"/><path class="cls-2" d="M291,450.88a9.86,9.86,0,0,1,1.88,1.86,5.48,5.48,0,0,1,1.18,3.16c0,2.47-2.26,4.11-2.69,4.42a6.68,6.68,0,0,1-1.9-1.65c-2.05-2.72-.46-5.22.17-6.24Z" transform="translate(-172.62 -201.3)"/><path class="cls-2" d="M291,465.33a9.48,9.48,0,0,1,1.88,1.85,5.52,5.52,0,0,1,1.18,3.17c0,2.47-2.26,4.11-2.69,4.41a6.38,6.38,0,0,1-1.9-1.65c-2.05-2.72-.46-5.21.17-6.24Z" transform="translate(-172.62 -201.3)"/><path class="cls-2" d="M291,481a9.48,9.48,0,0,1,1.88,1.85A5.52,5.52,0,0,1,294.1,486c0,2.47-2.26,4.11-2.69,4.41a6.38,6.38,0,0,1-1.9-1.65c-2.05-2.72-.46-5.21.17-6.24Z" transform="translate(-172.62 -201.3)"/><path class="cls-2" d="M291,495.74a9.86,9.86,0,0,1,1.88,1.86,5.48,5.48,0,0,1,1.18,3.16c0,2.47-2.26,4.11-2.69,4.41a6.38,6.38,0,0,1-1.9-1.65c-2.05-2.71-.46-5.21.17-6.23Z" transform="translate(-172.62 -201.3)"/><path class="cls-2" d="M291,511.38a9.86,9.86,0,0,1,1.88,1.86,5.48,5.48,0,0,1,1.18,3.16c0,2.47-2.26,4.11-2.69,4.41a6.38,6.38,0,0,1-1.9-1.65c-2.05-2.71-.46-5.21.17-6.23Z" transform="translate(-172.62 -201.3)"/><path class="cls-2" d="M291,526.1a9.57,9.57,0,0,1,1.88,1.86,5.45,5.45,0,0,1,1.18,3.16c0,2.47-2.26,4.11-2.69,4.41a6.38,6.38,0,0,1-1.9-1.65c-2.05-2.72-.46-5.21.17-6.24Z" transform="translate(-172.62 -201.3)"/><path class="cls-2" d="M291,541.3a9.86,9.86,0,0,1,1.88,1.86,5.48,5.48,0,0,1,1.18,3.16c0,2.47-2.26,4.11-2.69,4.41a6.38,6.38,0,0,1-1.9-1.65c-2.05-2.71-.46-5.21.17-6.23Z" transform="translate(-172.62 -201.3)"/><path class="cls-2" d="M332.3,335.91l-1.15,2a4.56,4.56,0,0,1-1.81,1.7h0a2.28,2.28,0,0,1-3.16-1.18h0a2.28,2.28,0,0,1,1.62-3.07l.54-.13h3" transform="translate(-172.62 -201.3)"/><path class="cls-2" d="M331.13,334.94,329,334.1a4.44,4.44,0,0,1-1.95-1.53h0a2.27,2.27,0,0,1,.69-3.3h0A2.29,2.29,0,0,1,331,330.4l.2.52.44,2.94" transform="translate(-172.62 -201.3)"/><path class="cls-2" d="M333.29,332.53l-.88-2.1a4.5,4.5,0,0,1-.29-2.46h0a2.28,2.28,0,0,1,2.84-1.82h0a2.28,2.28,0,0,1,1.5,3.13l-.23.5-1.78,2.38" transform="translate(-172.62 -201.3)"/><path class="cls-2" d="M335.53,332.89l1.23-1.91a4.45,4.45,0,0,1,1.87-1.62h0a2.28,2.28,0,0,1,3.11,1.3h0a2.29,2.29,0,0,1-1.73,3l-.55.1-3-.12" transform="translate(-172.62 -201.3)"/><path class="cls-2" d="M336.89,334.93l2.26-.24a4.38,4.38,0,0,1,2.44.43h0a2.28,2.28,0,0,1,.94,3.24h0a2.28,2.28,0,0,1-3.42.54l-.43-.36-1.77-2.39" transform="translate(-172.62 -201.3)"/><path class="cls-2" d="M333.81,334.66l2.21,2.8a4.42,4.42,0,0,1,1.05,2.25h0a2.28,2.28,0,0,1-2.12,2.62h0a2.29,2.29,0,0,1-2.41-2.5l.06-.55.94-2.82" transform="translate(-172.62 -201.3)"/><circle class="cls-2" cx="161.53" cy="133.36" r="1.7"/><ellipse class="cls-2" cx="161.66" cy="134.19" rx="2.52" ry="1.72"/><path class="cls-2" d="M278.43,335.73l-1.15,2a4.53,4.53,0,0,1-1.8,1.7h0a2.27,2.27,0,0,1-3.16-1.18h0a2.28,2.28,0,0,1,1.61-3.07l.54-.12h3" transform="translate(-172.62 -201.3)"/><path class="cls-2" d="M277.26,334.76l-2.11-.84a4.37,4.37,0,0,1-1.95-1.53h0a2.27,2.27,0,0,1,.69-3.3h0a2.28,2.28,0,0,1,3.28,1.14l.2.51.45,2.94" transform="translate(-172.62 -201.3)"/><path class="cls-2" d="M281.1,326a2.28,2.28,0,0,1,1.49,3.13l-.22.51L280.59,332" transform="translate(-172.62 -201.3)"/><path class="cls-2" d="M279.42,332.35l-.88-2.1a4.49,4.49,0,0,1-.28-2.46h0A2.28,2.28,0,0,1,281.1,326" transform="translate(-172.62 -201.3)"/><path class="cls-2" d="M281.67,332.72l1.23-1.91a4.38,4.38,0,0,1,1.86-1.63h0a2.27,2.27,0,0,1,3.11,1.31h0a2.27,2.27,0,0,1-1.73,3l-.55.1-3-.12" transform="translate(-172.62 -201.3)"/><path class="cls-2" d="M288.67,338.18a2.29,2.29,0,0,1-3.43.54l-.42-.36L283.05,336" transform="translate(-172.62 -201.3)"/><path class="cls-2" d="M283,334.75l2.26-.24a4.49,4.49,0,0,1,2.44.43h0a2.29,2.29,0,0,1,.94,3.24" transform="translate(-172.62 -201.3)"/><path class="cls-2" d="M281.08,342.15a2.27,2.27,0,0,1-2.4-2.5l.05-.55.94-2.82" transform="translate(-172.62 -201.3)"/><path class="cls-2" d="M279.94,334.48l2.22,2.8a4.53,4.53,0,0,1,1,2.25h0a2.27,2.27,0,0,1-2.12,2.62" transform="translate(-172.62 -201.3)"/><circle class="cls-2" cx="107.66" cy="133.18" r="1.7"/><ellipse class="cls-2" cx="107.79" cy="134.01" rx="2.52" ry="1.72"/><line class="cls-2" x1="94.39" y1="132.68" x2="101.95" y2="132.59"/><line class="cls-2" x1="174.87" y1="132.91" x2="167.96" y2="132.91"/><rect class="cls-2" x="116.46" y="126.54" width="36.78" height="43.2" rx="17.99"/><path class="cls-2" d="M289,355.36h-1a2.91,2.91,0,0,1-2.91-2.91h0a2.92,2.92,0,0,1,2.91-2.91h1" transform="translate(-172.62 -201.3)"/><path class="cls-2" d="M326.31,355.64h1a2.91,2.91,0,0,0,2.91-2.91h0a2.91,2.91,0,0,0-2.91-2.91h-1" transform="translate(-172.62 -201.3)"/><path class="cls-2" d="M284.84,354c.67,1,1.4,2,2.2,3,1.27,1.6,3.4,3.8,4.62,5.07" transform="translate(-172.62 -201.3)"/><path class="cls-2" d="M329.43,354.9c-.67,1-1.4,2-2.2,3-1.27,1.6-3.4,3.8-4.62,5.08" transform="translate(-172.62 -201.3)"/><line class="cls-2" x1="158.72" y1="153.6" x2="173.4" y2="169.39"/><path class="cls-2" d="M331.34,354.9" transform="translate(-172.62 -201.3)"/><line class="cls-2" x1="95.25" y1="85.32" x2="114.49" y2="106.03"/><line class="cls-2" x1="154.95" y1="105.91" x2="173.4" y2="86.3"/><line class="cls-2" x1="95.25" y1="169.39" x2="110.43" y2="153.25"/><path class="cls-2" d="M350.4,342.53c24.7,7.38,46.13,20.91,61.89,38.5" transform="translate(-172.62 -201.3)"/><path class="cls-2" d="M200.07,383.38c16.11-18.95,38.67-33.48,64.83-41.12" transform="translate(-172.62 -201.3)"/><path class="cls-2" d="M357.85,501.32V488.6h-2a8.33,8.33,0,0,1-8.32-8.33v-3.55" transform="translate(-172.62 -201.3)"/><path class="cls-2" d="M353.25,476.72v3.67a2.74,2.74,0,0,0,2.74,2.73h0a6.7,6.7,0,0,0,4.76-2l1.58-1.6a9.57,9.57,0,0,1,6.78-2.82h21.4a2.21,2.21,0,0,0,2.22-2.21h0a2.21,2.21,0,0,0-2.22-2.21H379.84a3.61,3.61,0,0,1-3.61-3.61h0" transform="translate(-172.62 -201.3)"/><path class="cls-2" d="M397.49,468.34a3.48,3.48,0,0,1,3.17,3.51v2.23a10.93,10.93,0,0,1-11,10.93l-23.82-.22v16.53" transform="translate(-172.62 -201.3)"/><path class="cls-2" d="M346,476.53h8.71a3.47,3.47,0,0,0,3.47-3.48h0a2.58,2.58,0,0,0-2.58-2.58h-1.34v-.85a2.16,2.16,0,0,0-2.16-2.14h0" transform="translate(-172.62 -201.3)"/><path class="cls-2" d="M401.89,463.86l13.41.31a5.26,5.26,0,0,0,5.39-5.25h0a5.74,5.74,0,0,0-5.74-5.75h0a4.15,4.15,0,0,0-4.15-4h-6.15a4,4,0,0,0-4,4h0a4.66,4.66,0,0,0-4.65,4.66h0A6,6,0,0,0,401.89,463.86Z" transform="translate(-172.62 -201.3)"/><path class="cls-2" d="M401.9,450.29h0a4.08,4.08,0,0,0-4.08-4.08h-5.09a6.4,6.4,0,0,0-6.39-6.39H378a6.4,6.4,0,0,0-6.4,6.39v1h-3.14a5,5,0,0,0-5,5h0a2.13,2.13,0,0,1-2.13,2.13h-1.21a6.81,6.81,0,0,0-6.81,6.81h0a7.18,7.18,0,0,0,7.18,7.17h47.81a3.61,3.61,0,0,0,3.6-3.61h0" transform="translate(-172.62 -201.3)"/><path class="cls-2" d="M367.29,463.72H378a2.84,2.84,0,0,0,2.83-2.84v-.73a2.84,2.84,0,0,0-2.83-2.84h-1.55v-1.08a2.84,2.84,0,0,0-2.84-2.84h-3.45a2.83,2.83,0,0,0-2.83,2.84v1.32h0a2.84,2.84,0,0,0-2.84,2.83v.5A2.84,2.84,0,0,0,367.29,463.72Z" transform="translate(-172.62 -201.3)"/><line class="cls-2" x1="125.71" y1="38.25" x2="125.71" y2="48.9"/><line class="cls-2" x1="136.04" y1="38.25" x2="136.04" y2="48.9"/><line class="cls-2" x1="146.38" y1="38.25" x2="146.38" y2="48.9"/><path class="cls-3" d="M236,596.73h-2.68v7.51h-1.65v-7.51H229v-1.36h7Z" transform="translate(-172.62 -201.3)"/><path class="cls-3" d="M252,595.37v8.87h-1.66v-3.88h-4.16v3.88h-1.66v-8.87h1.66v3.81h4.16v-3.81Z" transform="translate(-172.62 -201.3)"/><path class="cls-3" d="M263,596.68v2.46h3.1v1.27H263v2.51h3.93v1.32h-5.59v-8.87h5.59v1.31Z" transform="translate(-172.62 -201.3)"/><path class="cls-3" d="M287.75,596.68v2.46h3.1v1.27h-3.1v2.51h3.93v1.32h-5.59v-8.87h5.59v1.31Z" transform="translate(-172.62 -201.3)"/><path class="cls-3" d="M310.12,595.37v8.87h-1.46v-5.73a6.46,6.46,0,0,1,0-.74l-2.68,5a.62.62,0,0,1-.58.36h-.24a.62.62,0,0,1-.58-.36l-2.71-5,0,.4c0,.13,0,.25,0,.36v5.73H300.5v-8.87h1.44a.32.32,0,0,1,.14,0,.28.28,0,0,1,.12.08,1,1,0,0,1,.1.14l2.65,4.93c.07.13.14.26.2.4s.11.28.17.43l.18-.44c.06-.14.13-.27.19-.4l2.62-4.92a.57.57,0,0,1,.11-.14.2.2,0,0,1,.12-.08.32.32,0,0,1,.14,0h1.44Z" transform="translate(-172.62 -201.3)"/><path class="cls-3" d="M322.33,595.37a5,5,0,0,1,1.54.21,3,3,0,0,1,1.07.58,2.17,2.17,0,0,1,.63.9,3,3,0,0,1,.21,1.14,3,3,0,0,1-.22,1.18,2.36,2.36,0,0,1-.64.92,3,3,0,0,1-1.08.6,4.86,4.86,0,0,1-1.51.22H321.1v3.12h-1.65v-8.87Zm0,4.46a2.34,2.34,0,0,0,.79-.12,1.4,1.4,0,0,0,.56-.32,1.35,1.35,0,0,0,.34-.52,2,2,0,0,0,.11-.67,1.93,1.93,0,0,0-.11-.65,1.51,1.51,0,0,0-.33-.49,1.59,1.59,0,0,0-.56-.31,2.73,2.73,0,0,0-.8-.1H321.1v3.18Z" transform="translate(-172.62 -201.3)"/><path class="cls-3" d="M341.32,604.24h-1.49a.65.65,0,0,1-.61-.33l-1.86-2.84a.65.65,0,0,0-.24-.23.71.71,0,0,0-.37-.07h-.7v3.47H334.4v-8.87h2.7a5.43,5.43,0,0,1,1.55.19,2.92,2.92,0,0,1,1.06.52,2,2,0,0,1,.61.81,2.79,2.79,0,0,1,.07,1.88,2.76,2.76,0,0,1-.38.72,2.42,2.42,0,0,1-.62.57,3.35,3.35,0,0,1-.83.39,1.61,1.61,0,0,1,.3.21,1.76,1.76,0,0,1,.24.3Zm-4.24-4.65a2.47,2.47,0,0,0,.81-.12,1.44,1.44,0,0,0,.57-.32,1.39,1.39,0,0,0,.34-.49,1.75,1.75,0,0,0,.11-.62,1.24,1.24,0,0,0-.45-1,2.13,2.13,0,0,0-1.36-.36h-1.05v2.94Z" transform="translate(-172.62 -201.3)"/><path class="cls-3" d="M351.3,596.68v2.46h3.1v1.27h-3.1v2.51h3.94v1.32h-5.6v-8.87h5.6v1.31Z" transform="translate(-172.62 -201.3)"/><path class="cls-3" d="M368.78,597a.64.64,0,0,1-.16.19.35.35,0,0,1-.21.06.53.53,0,0,1-.28-.1l-.35-.21a2.49,2.49,0,0,0-.49-.21,2.18,2.18,0,0,0-.66-.1,1.8,1.8,0,0,0-.6.09,1.11,1.11,0,0,0-.43.23.81.81,0,0,0-.26.35,1.13,1.13,0,0,0-.09.45.77.77,0,0,0,.18.52,1.42,1.42,0,0,0,.46.36,4.4,4.4,0,0,0,.65.26l.76.25a6.21,6.21,0,0,1,.75.31,2.31,2.31,0,0,1,.66.44,1.92,1.92,0,0,1,.46.65,2.22,2.22,0,0,1,.18.94,3,3,0,0,1-.21,1.12,2.71,2.71,0,0,1-.6.92,2.81,2.81,0,0,1-1,.61,3.51,3.51,0,0,1-1.3.23,4,4,0,0,1-.84-.09,4.12,4.12,0,0,1-.78-.23,4.75,4.75,0,0,1-.71-.37,3.09,3.09,0,0,1-.59-.48l.48-.79a.57.57,0,0,1,.16-.15.54.54,0,0,1,.21-.05.61.61,0,0,1,.33.12,4.62,4.62,0,0,0,.43.28,3,3,0,0,0,.57.28,2.29,2.29,0,0,0,.79.13,1.63,1.63,0,0,0,1.09-.34,1.18,1.18,0,0,0,.38-1,.88.88,0,0,0-.17-.57,1.56,1.56,0,0,0-.46-.37,3.37,3.37,0,0,0-.66-.25l-.75-.23A7.71,7.71,0,0,1,365,600a2.69,2.69,0,0,1-.65-.45,2.09,2.09,0,0,1-.46-.69,2.71,2.71,0,0,1,0-2,2.51,2.51,0,0,1,.56-.81,2.71,2.71,0,0,1,.91-.57,3.23,3.23,0,0,1,1.24-.22,4,4,0,0,1,1.45.25,3.28,3.28,0,0,1,1.13.68Z" transform="translate(-172.62 -201.3)"/><path class="cls-3" d="M382.86,597a.63.63,0,0,1-.15.19.37.37,0,0,1-.21.06.48.48,0,0,1-.28-.1l-.36-.21a2.49,2.49,0,0,0-.49-.21,2.06,2.06,0,0,0-.65-.1,1.91,1.91,0,0,0-.61.09,1.18,1.18,0,0,0-.43.23,1,1,0,0,0-.26.35,1.12,1.12,0,0,0-.08.45.76.76,0,0,0,.17.52,1.54,1.54,0,0,0,.46.36,4.54,4.54,0,0,0,.66.26l.75.25a7.12,7.12,0,0,1,.76.31,2.4,2.4,0,0,1,.65.44,1.94,1.94,0,0,1,.47.65,2.39,2.39,0,0,1,.17.94,3.18,3.18,0,0,1-.2,1.12,2.71,2.71,0,0,1-.6.92,2.91,2.91,0,0,1-1,.61,3.56,3.56,0,0,1-1.31.23,3.84,3.84,0,0,1-.83-.09,4.22,4.22,0,0,1-.79-.23,5.29,5.29,0,0,1-.71-.37,3.44,3.44,0,0,1-.59-.48l.49-.79a.42.42,0,0,1,.37-.2.61.61,0,0,1,.33.12l.42.28a3.36,3.36,0,0,0,.57.28,2.33,2.33,0,0,0,.79.13,1.62,1.62,0,0,0,1.09-.34,1.19,1.19,0,0,0,.39-1,.94.94,0,0,0-.17-.57,1.49,1.49,0,0,0-.47-.37,3.52,3.52,0,0,0-.65-.25l-.75-.23a6.83,6.83,0,0,1-.75-.29,3,3,0,0,1-.66-.45,2.25,2.25,0,0,1-.46-.69,2.79,2.79,0,0,1-.17-1,2.41,2.41,0,0,1,.19-1,2.51,2.51,0,0,1,.56-.81,2.71,2.71,0,0,1,.91-.57,3.19,3.19,0,0,1,1.24-.22,4,4,0,0,1,1.44.25,3.19,3.19,0,0,1,1.13.68Z" transform="translate(-172.62 -201.3)"/></svg>