<svg id="Calque_13" data-name="Calque 13" xmlns="http://www.w3.org/2000/svg" viewBox="0 0 267.21 444.13"><defs><style>.cls-1{fill:#292b3f;}.cls-2{fill:none;stroke:#34e89e;stroke-miterlimit:10;stroke-width:2px;}.cls-3{fill:#34e89e;}</style></defs><title>3-fr</title><rect class="cls-1" width="267.21" height="444.13" rx="15.57"/><path class="cls-2" d="M688.79,447.73v-222a2.39,2.39,0,0,0-2.38-2.38H478.76a2.38,2.38,0,0,0-2.38,2.38v223.2" transform="translate(-449.07 -199.73)"/><path class="cls-2" d="M476.38,463.25V616.16a2.37,2.37,0,0,0,2.38,2.38H686.41a2.38,2.38,0,0,0,2.38-2.38V463" transform="translate(-449.07 -199.73)"/><path class="cls-2" d="M505.13,506.19c.83-.62,3.73-2.93,3.78-6.21,0-1.54-.59-2.82-1.74-5.24a30.84,30.84,0,0,0-2.39-4.14h-.45a29.9,29.9,0,0,0-2.38,4.14c-1.16,2.42-1.77,3.7-1.75,5.24.05,3.28,2.95,5.59,3.79,6.21" transform="translate(-449.07 -199.73)"/><path class="cls-2" d="M511,518.94c1,.2,4.51.81,6.61-1.49,1-1.08,1.36-2.48,2.06-5.1a33.92,33.92,0,0,0,.91-4.81l-.32-.35a24,24,0,0,0-4.31,1.1c-2.35.82-3.6,1.26-4.55,2.38-2,2.37-1.42,6.29-1.22,7.38" transform="translate(-449.07 -199.73)"/><path class="cls-2" d="M511,533.44c1,.2,4.51.81,6.61-1.49,1-1.08,1.36-2.48,2.06-5.1a33.76,33.76,0,0,0,.91-4.82l-.32-.34a24.76,24.76,0,0,0-4.31,1.09c-2.35.83-3.6,1.27-4.55,2.39-2,2.37-1.42,6.28-1.22,7.38" transform="translate(-449.07 -199.73)"/><path class="cls-2" d="M511,548.62c1,.21,4.51.82,6.61-1.48,1-1.08,1.36-2.48,2.06-5.11a33.67,33.67,0,0,0,.91-4.81l-.32-.35a25.9,25.9,0,0,0-4.31,1.1c-2.35.83-3.6,1.27-4.55,2.38-2,2.38-1.42,6.29-1.22,7.38" transform="translate(-449.07 -199.73)"/><path class="cls-2" d="M498.81,517.42c.24-1.09,1-5-1-7.42-.92-1.15-2.16-1.64-4.48-2.55a24.66,24.66,0,0,0-4.27-1.26l-.33.34a33.39,33.39,0,0,0,.76,4.84c.62,2.65.95,4.06,1.9,5.18,2,2.37,5.58,1.9,6.57,1.73" transform="translate(-449.07 -199.73)"/><path class="cls-2" d="M498.81,532.78c.24-1.08,1-5-1-7.42-.92-1.15-2.16-1.64-4.48-2.55a25.39,25.39,0,0,0-4.27-1.25l-.33.33a33.49,33.49,0,0,0,.76,4.85c.62,2.64.95,4,1.9,5.17,2,2.38,5.58,1.9,6.57,1.73" transform="translate(-449.07 -199.73)"/><path class="cls-2" d="M498.81,548c.24-1.09,1-5-1-7.42-.92-1.15-2.16-1.64-4.48-2.55a24.66,24.66,0,0,0-4.27-1.26l-.33.34a33.39,33.39,0,0,0,.76,4.84c.62,2.65.95,4.06,1.9,5.18,2,2.37,5.58,1.9,6.57,1.73" transform="translate(-449.07 -199.73)"/><line class="cls-2" x1="55.49" y1="300.02" x2="55.49" y2="361.64"/><polyline class="cls-2" points="44.88 344.03 55.49 355.25 66.14 344.03"/><polyline class="cls-2" points="44.88 328.67 55.49 339.89 66.14 328.67"/><polyline class="cls-2" points="45.37 313.45 55.49 325.09 66.14 313.45"/><path class="cls-2" d="M663.86,505c.84-.62,3.74-2.93,3.79-6.21,0-1.54-.59-2.82-1.75-5.24a28.8,28.8,0,0,0-2.39-4.14h-.44a30.84,30.84,0,0,0-2.39,4.14c-1.15,2.42-1.76,3.7-1.74,5.24,0,3.28,2.95,5.59,3.78,6.21" transform="translate(-449.07 -199.73)"/><path class="cls-2" d="M669.68,517.78c1,.2,4.52.81,6.62-1.49,1-1.08,1.36-2.48,2.06-5.1a33.66,33.66,0,0,0,.9-4.81L679,506a24.12,24.12,0,0,0-4.32,1.1c-2.34.82-3.59,1.26-4.55,2.38-2,2.37-1.42,6.29-1.21,7.38" transform="translate(-449.07 -199.73)"/><path class="cls-2" d="M669.68,532.28c1,.2,4.52.81,6.62-1.49,1-1.08,1.36-2.48,2.06-5.1a33.75,33.75,0,0,0,.9-4.82l-.31-.34a24.83,24.83,0,0,0-4.32,1.09c-2.34.83-3.59,1.27-4.55,2.39-2,2.37-1.42,6.28-1.21,7.38" transform="translate(-449.07 -199.73)"/><path class="cls-2" d="M669.68,547.46c1,.21,4.52.82,6.62-1.48,1-1.09,1.36-2.48,2.06-5.11a33.41,33.41,0,0,0,.9-4.81l-.31-.35a26,26,0,0,0-4.32,1.1c-2.34.83-3.59,1.27-4.55,2.38-2,2.38-1.42,6.29-1.21,7.38" transform="translate(-449.07 -199.73)"/><path class="cls-2" d="M657.55,516.26c.24-1.09,1-5-1-7.42-.92-1.15-2.16-1.64-4.48-2.55A24.47,24.47,0,0,0,647.8,505l-.32.34a32.05,32.05,0,0,0,.76,4.84c.62,2.65,1,4.06,1.9,5.18,2,2.37,5.58,1.9,6.57,1.73" transform="translate(-449.07 -199.73)"/><path class="cls-2" d="M657.55,531.62c.24-1.08,1-5-1-7.42-.92-1.15-2.16-1.64-4.48-2.55a24.3,24.3,0,0,0-4.28-1.25l-.32.33a31.86,31.86,0,0,0,.76,4.84c.62,2.65,1,4.06,1.9,5.18,2,2.38,5.58,1.9,6.57,1.73" transform="translate(-449.07 -199.73)"/><path class="cls-2" d="M657.55,546.81c.24-1.09,1-5-1-7.42-.92-1.15-2.16-1.64-4.48-2.55a24.47,24.47,0,0,0-4.28-1.26l-.32.34a32.05,32.05,0,0,0,.76,4.84c.62,2.65,1,4.06,1.9,5.18,2,2.37,5.58,1.9,6.57,1.73" transform="translate(-449.07 -199.73)"/><line class="cls-2" x1="214.23" y1="298.86" x2="214.23" y2="360.48"/><polyline class="cls-2" points="203.61 342.87 214.23 354.09 224.88 342.87"/><polyline class="cls-2" points="203.61 327.51 214.23 338.73 224.88 327.51"/><polyline class="cls-2" points="204.1 312.29 214.23 323.93 224.88 312.29"/><line class="cls-2" x1="218.36" y1="300.02" x2="239.72" y2="300.02"/><line class="cls-2" x1="173.28" y1="300.02" x2="210.09" y2="300.02"/><line class="cls-2" x1="59.84" y1="300.02" x2="95.76" y2="300.02"/><line class="cls-2" x1="27.31" y1="300.02" x2="51.14" y2="300.02"/><path class="cls-2" d="M606.94,552.23V376.89a13.48,13.48,0,0,0-9.32-12.82h0" transform="translate(-449.07 -199.73)"/><path class="cls-2" d="M560.64,552.23V376.89A13.49,13.49,0,0,1,570,364.07h0" transform="translate(-449.07 -199.73)"/><path class="cls-2" d="M545.23,468.63,544.31,540a9.92,9.92,0,0,0,7.32,9.71l22.47,6.13V374.16l3.26-1.24v-3.8" transform="translate(-449.07 -199.73)"/><path class="cls-2" d="M622.07,468.41l.91,71.38a9.93,9.93,0,0,1-7.32,9.71l-21,5.68v-181l-4.22-.93v-4.09" transform="translate(-449.07 -199.73)"/><line class="cls-2" x1="125.04" y1="348.48" x2="145.62" y2="348.48"/><line class="cls-2" x1="134.97" y1="322.54" x2="134.97" y2="348.48"/><path class="cls-2" d="M589.24,548.21" transform="translate(-449.07 -199.73)"/><line class="cls-2" x1="139.94" y1="284.97" x2="139.94" y2="293.12"/><line class="cls-2" x1="139.94" y1="298.01" x2="140.18" y2="348.48"/><path class="cls-2" d="M594.07,286.36l-1.46,1.53a19.44,19.44,0,0,1-5.24,3.91h0a7.2,7.2,0,0,1-5.77.18h0a14.67,14.67,0,0,1-6-4.39l-1.1-1.33v-.08l1.1-1.33a14.67,14.67,0,0,1,6-4.39h0a7.24,7.24,0,0,1,5.77.18h0a19.93,19.93,0,0,1,5.5,3.81l1.16,1.38.27.28Z" transform="translate(-449.07 -199.73)"/><ellipse class="cls-2" cx="135.23" cy="86.3" rx="3.31" ry="3.5"/><ellipse class="cls-2" cx="135.23" cy="86.3" rx="5.72" ry="6.06"/><path class="cls-2" d="M622.46,369.12" transform="translate(-449.07 -199.73)"/><path class="cls-2" d="M544.31,285.05" transform="translate(-449.07 -199.73)"/><path class="cls-2" d="M622.46,286" transform="translate(-449.07 -199.73)"/><path class="cls-2" d="M544.31,369.12" transform="translate(-449.07 -199.73)"/><path class="cls-2" d="M597.28,349a4.33,4.33,0,0,1-1.69,1.46,4.28,4.28,0,0,1-1.52.41H589" transform="translate(-449.07 -199.73)"/><path class="cls-2" d="M571.31,349a4.28,4.28,0,0,0,3.2,1.87h5.07" transform="translate(-449.07 -199.73)"/><circle class="cls-2" cx="122.84" cy="156.09" r="0.82"/><circle class="cls-2" cx="147.39" cy="156.09" r="0.82"/><circle class="cls-2" cx="135.15" cy="140.24" r="0.82"/><line class="cls-2" x1="140.72" y1="145.75" x2="149.45" y2="144.2"/><line class="cls-2" x1="129.62" y1="145.75" x2="120.89" y2="144.2"/><line class="cls-2" x1="145.62" y1="224.25" x2="125.04" y2="224.25"/><line class="cls-2" x1="125.04" y1="228.15" x2="145.62" y2="228.15"/><line class="cls-2" x1="125.04" y1="243.75" x2="145.62" y2="243.75"/><line class="cls-2" x1="125.04" y1="247.89" x2="145.62" y2="247.89"/><polyline class="cls-2" points="125.04 195.75 135.03 202.47 145.62 196.31"/><path class="cls-2" d="M577.6,390.36l.84.27a10.54,10.54,0,0,1,5.57,4.21h0l.08,7.36" transform="translate(-449.07 -199.73)"/><path class="cls-2" d="M589.66,390.69a10.59,10.59,0,0,0-5.65,4.15" transform="translate(-449.07 -199.73)"/><path class="cls-2" d="M606.94,470.26c1.29.06,2.63.07,4,0a45.5,45.5,0,0,0,18-4.72l-8.53-75a13.57,13.57,0,0,0-13.48-12h0" transform="translate(-449.07 -199.73)"/><path class="cls-2" d="M606.72,465.5c1.29.06,2.64.06,4,0a45.5,45.5,0,0,0,18-4.72" transform="translate(-449.07 -199.73)"/><path class="cls-2" d="M561.17,469.83c-1.29.06-2.64.06-4,0a45.5,45.5,0,0,1-18-4.72l8.53-75a13.57,13.57,0,0,1,13.48-12h0" transform="translate(-449.07 -199.73)"/><path class="cls-2" d="M561.38,465.07c-1.28.06-2.63.06-4,0a45.67,45.67,0,0,1-18-4.72" transform="translate(-449.07 -199.73)"/><path class="cls-2" d="M474.57,462.48h15.68a5,5,0,0,0,5-5h0a5,5,0,0,0-5-5h-.7a4.84,4.84,0,0,0-4.83-4.84H480a5.18,5.18,0,0,0-5.18,5.18h0a4.55,4.55,0,0,0-4.54,4.55v.81h0A4.32,4.32,0,0,0,474.57,462.48Z" transform="translate(-449.07 -199.73)"/><path class="cls-2" d="M477.31,462.48h0a3.06,3.06,0,0,0,3.07,3.06h49.93a6.77,6.77,0,0,0,6.77-6.77h0a6.67,6.67,0,0,0-6.68-6.67h-2.48a7.15,7.15,0,0,0-7.14-7.15h-.25a7.29,7.29,0,0,0-7.3-7.29h-6.3a7.79,7.79,0,0,0-7.79,7.79v.13h-9a2.93,2.93,0,0,0-2.94,2.91h0" transform="translate(-449.07 -199.73)"/><path class="cls-2" d="M494.43,466.18l0-.64c-2.42,0-4.36,2.61-4.36,5v2.26a9.41,9.41,0,0,0,9.41,9.41H525.9v17.5" transform="translate(-449.07 -199.73)"/><path class="cls-2" d="M533,499.75V487h2.35a8.37,8.37,0,0,0,8.37-8.37v-4.09" transform="translate(-449.07 -199.73)"/><path class="cls-2" d="M544.83,474.57h-8.42a2.94,2.94,0,0,1-2.94-2.94h0a2.59,2.59,0,0,1,2.59-2.59h.67v-.16a3.34,3.34,0,0,1,3.33-3.34h0" transform="translate(-449.07 -199.73)"/><path class="cls-2" d="M516.12,465.54h0a5.47,5.47,0,0,1-5.47,5.48h-9.9a2.33,2.33,0,0,0-2.33,2.33h0a2.27,2.27,0,0,0,2.27,2.27h26.84a3.26,3.26,0,0,1,3.26,3.26h0a2.68,2.68,0,0,0,2.68,2.67h1a3.92,3.92,0,0,0,3.92-3.92v-3.06" transform="translate(-449.07 -199.73)"/><line class="cls-2" x1="133.27" y1="157.86" x2="136.53" y2="157.86"/><path class="cls-2" d="M581,363.31l.69-.45a4.63,4.63,0,0,1,5.11,0l.72.47" transform="translate(-449.07 -199.73)"/><path class="cls-2" d="M621,332.86c.39.67,1.84,3,3.89,3,1,0,1.77-.48,3.29-1.4a17.59,17.59,0,0,0,2.59-1.91v-.35a20,20,0,0,0-2.6-1.91c-1.52-.92-2.32-1.41-3.29-1.4-2.05,0-3.5,2.72-3.89,3.38" transform="translate(-449.07 -199.73)"/><path class="cls-2" d="M547.12,332c-.39-.67-1.83-3-3.88-3-1,0-1.78.47-3.3,1.39a19.22,19.22,0,0,0-2.6,1.9v.35a18.89,18.89,0,0,0,2.59,1.92c1.51.93,2.32,1.42,3.28,1.41,2.06,0,3.52-2.35,3.91-3" transform="translate(-449.07 -199.73)"/><line class="cls-2" x1="135.15" y1="111.79" x2="135.15" y2="118.31"/><line class="cls-2" x1="138.54" y1="115.05" x2="131.93" y2="115.05"/><circle class="cls-2" cx="135.15" cy="115.05" r="4.98"/><path class="cls-2" d="M582.25,310.21l-3.55-7.64h0a4.92,4.92,0,0,0-7.16-.39l-.87.82h0a4.46,4.46,0,0,0,1.44,6.53l7.28,4.05" transform="translate(-449.07 -199.73)"/><path class="cls-2" d="M586.42,309.76l2.76-8h0a4.93,4.93,0,0,0-4.88-5.26h-1.2a4.46,4.46,0,0,0-3.5,5.69l2.42,8" transform="translate(-449.07 -199.73)"/><path class="cls-2" d="M589.5,312.67l7.56-3.71h0a4.93,4.93,0,0,0,.23-7.17l-.85-.85h0a4.46,4.46,0,0,0-6.49,1.58l-3.89,7.37" transform="translate(-449.07 -199.73)"/><path class="cls-2" d="M589.44,317.22l7.83,3.11h0a4.93,4.93,0,0,0,5.46-4.65l.07-1.2h0a4.46,4.46,0,0,0-5.54-3.74l-8.07,2.07" transform="translate(-449.07 -199.73)"/><path class="cls-2" d="M586.31,320.09l3.11,7.83h0a4.92,4.92,0,0,0,7.13.79l.91-.77h0a4.47,4.47,0,0,0-1.06-6.6l-7-4.45" transform="translate(-449.07 -199.73)"/><path class="cls-2" d="M581.93,319.82l-2.87,7.92h0a5,5,0,0,0,4.82,5.33l1.2,0h0a4.46,4.46,0,0,0,3.57-5.64l-2.32-8" transform="translate(-449.07 -199.73)"/><path class="cls-2" d="M578.68,316.47,571.05,320h0a4.94,4.94,0,0,0-.36,7.17l.83.87h0a4.47,4.47,0,0,0,6.52-1.46l4-7.3" transform="translate(-449.07 -199.73)"/><path class="cls-2" d="M578.82,312.49,571,309.35h0a4.94,4.94,0,0,0-5.48,4.63l-.07,1.2h0a4.46,4.46,0,0,0,5.52,3.76l8.08-2" transform="translate(-449.07 -199.73)"/><circle class="cls-2" cx="134.9" cy="127.98" r="1.56"/><circle class="cls-2" cx="144.52" cy="124.98" r="1.56"/><circle class="cls-2" cx="148.21" cy="115.75" r="1.56"/><circle class="cls-2" cx="144.52" cy="105.91" r="1.56"/><circle class="cls-2" cx="135.16" cy="101.97" r="1.56"/><circle class="cls-2" cx="125.74" cy="105.91" r="1.56"/><circle class="cls-2" cx="121.62" cy="114.51" r="1.56"/><circle class="cls-2" cx="125.47" cy="124.17" r="1.56"/><path class="cls-2" d="M611.39,340.76a28.1,28.1,0,0,1-5.21,11.65" transform="translate(-449.07 -199.73)"/><path class="cls-2" d="M559.24,325.83c4.52-8.4,13.92-14.18,24.8-14.18,10.67,0,19.94,5.57,24.55,13.73" transform="translate(-449.07 -199.73)"/><path class="cls-2" d="M561.25,351.59a24.21,24.21,0,0,1-4.62-11" transform="translate(-449.07 -199.73)"/><path class="cls-2" d="M628,330.18c-1.09-6.24-4.89-11.09-6.19-12.76a33.65,33.65,0,0,0-8.15-7.37,35.93,35.93,0,0,0-14.84-5.45" transform="translate(-449.07 -199.73)"/><path class="cls-2" d="M606.16,353.44a37,37,0,0,0,6.14-1.56,33.34,33.34,0,0,0,7.6-3.72,18.79,18.79,0,0,0,5.75-5.2,16,16,0,0,0,2.48-6.75c.09-.6.14-1.18.17-1.76" transform="translate(-449.07 -199.73)"/><path class="cls-2" d="M540.22,330.07c1.1-6.24,4.89-11.09,6.19-12.76a33.65,33.65,0,0,1,8.15-7.37,35.93,35.93,0,0,1,14.84-5.45" transform="translate(-449.07 -199.73)"/><path class="cls-2" d="M562.09,353.33a36.65,36.65,0,0,1-6.13-1.56,33.77,33.77,0,0,1-7.61-3.72,18.65,18.65,0,0,1-5.74-5.2,15.87,15.87,0,0,1-2.49-6.76,17.55,17.55,0,0,1-.17-1.75" transform="translate(-449.07 -199.73)"/><path class="cls-2" d="M564.58,305.46v-14.1a19.59,19.59,0,0,1,19.62-19.59h0a19.59,19.59,0,0,1,19.56,19.59v14.28" transform="translate(-449.07 -199.73)"/><line class="cls-2" x1="116.19" y1="86.49" x2="125.97" y2="86.49"/><line class="cls-2" x1="145.53" y1="86.3" x2="153.73" y2="86.3"/><path class="cls-2" d="M600.57,371.8a9.58,9.58,0,0,1,1.88,1.86,5.48,5.48,0,0,1,1.18,3.16c0,2.47-2.26,4.11-2.69,4.42a6.82,6.82,0,0,1-1.9-1.65c-2-2.72-.46-5.22.17-6.24Z" transform="translate(-449.07 -199.73)"/><path class="cls-2" d="M600.57,387.6a9.22,9.22,0,0,1,1.88,1.85,5.52,5.52,0,0,1,1.18,3.17c0,2.47-2.26,4.11-2.69,4.41a6.51,6.51,0,0,1-1.9-1.65c-2-2.72-.46-5.21.17-6.24Z" transform="translate(-449.07 -199.73)"/><path class="cls-2" d="M600.57,402.2a9.31,9.31,0,0,1,1.88,1.86,5.48,5.48,0,0,1,1.18,3.16c0,2.47-2.26,4.11-2.69,4.41A6.51,6.51,0,0,1,599,410c-2-2.71-.46-5.21.17-6.23Z" transform="translate(-449.07 -199.73)"/><path class="cls-2" d="M600.57,417.65a9.58,9.58,0,0,1,1.88,1.86,5.48,5.48,0,0,1,1.18,3.16c0,2.47-2.26,4.11-2.69,4.41a6.51,6.51,0,0,1-1.9-1.65c-2-2.71-.46-5.21.17-6.23Z" transform="translate(-449.07 -199.73)"/><path class="cls-2" d="M600.57,432.94a9.58,9.58,0,0,1,1.88,1.86,5.48,5.48,0,0,1,1.18,3.16c0,2.47-2.26,4.11-2.69,4.41a6.61,6.61,0,0,1-1.9-1.64c-2-2.72-.46-5.22.17-6.24Z" transform="translate(-449.07 -199.73)"/><path class="cls-2" d="M600.57,448.72a9.31,9.31,0,0,1,1.88,1.86,5.45,5.45,0,0,1,1.18,3.16c0,2.47-2.26,4.11-2.69,4.41a6.51,6.51,0,0,1-1.9-1.65c-2-2.72-.46-5.21.17-6.24Z" transform="translate(-449.07 -199.73)"/><path class="cls-2" d="M600.57,463.16a9.58,9.58,0,0,1,1.88,1.86,5.48,5.48,0,0,1,1.18,3.16c0,2.47-2.26,4.11-2.69,4.41A6.61,6.61,0,0,1,599,471c-2-2.72-.46-5.22.17-6.24Z" transform="translate(-449.07 -199.73)"/><path class="cls-2" d="M600.57,478.82a9.58,9.58,0,0,1,1.88,1.86,5.48,5.48,0,0,1,1.18,3.16c0,2.47-2.26,4.11-2.69,4.41a6.51,6.51,0,0,1-1.9-1.65c-2-2.71-.46-5.21.17-6.23Z" transform="translate(-449.07 -199.73)"/><path class="cls-2" d="M600.57,493.58a9.22,9.22,0,0,1,1.88,1.85,5.52,5.52,0,0,1,1.18,3.17c0,2.46-2.26,4.11-2.69,4.41a6.66,6.66,0,0,1-1.9-1.65c-2-2.72-.46-5.21.17-6.24Z" transform="translate(-449.07 -199.73)"/><path class="cls-2" d="M600.57,509.22a9.22,9.22,0,0,1,1.88,1.85,5.52,5.52,0,0,1,1.18,3.17c0,2.46-2.26,4.11-2.69,4.41A6.66,6.66,0,0,1,599,517c-2-2.72-.46-5.21.17-6.24Z" transform="translate(-449.07 -199.73)"/><path class="cls-2" d="M600.57,523.93a9.58,9.58,0,0,1,1.88,1.86,5.48,5.48,0,0,1,1.18,3.16c0,2.47-2.26,4.11-2.69,4.42a6.82,6.82,0,0,1-1.9-1.65c-2-2.72-.46-5.22.17-6.24Z" transform="translate(-449.07 -199.73)"/><path class="cls-2" d="M600.57,539.14a9.22,9.22,0,0,1,1.88,1.85,5.52,5.52,0,0,1,1.18,3.17c0,2.46-2.26,4.11-2.69,4.41a6.66,6.66,0,0,1-1.9-1.65c-2-2.72-.46-5.21.17-6.24Z" transform="translate(-449.07 -199.73)"/><path class="cls-2" d="M567.49,372.4a9.85,9.85,0,0,1,1.88,1.86,5.53,5.53,0,0,1,1.17,3.16c0,2.47-2.25,4.11-2.68,4.41a6.38,6.38,0,0,1-1.9-1.65c-2.05-2.72-.47-5.21.17-6.24Z" transform="translate(-449.07 -199.73)"/><path class="cls-2" d="M567.49,388.19a10.16,10.16,0,0,1,1.88,1.86,5.56,5.56,0,0,1,1.17,3.16c0,2.47-2.25,4.11-2.68,4.41A6.49,6.49,0,0,1,566,396c-2.05-2.72-.47-5.22.17-6.24Z" transform="translate(-449.07 -199.73)"/><path class="cls-2" d="M567.49,402.8a9.76,9.76,0,0,1,1.88,1.85,5.6,5.6,0,0,1,1.17,3.17c0,2.46-2.25,4.11-2.68,4.41a6.53,6.53,0,0,1-1.9-1.65c-2.05-2.72-.47-5.21.17-6.24Z" transform="translate(-449.07 -199.73)"/><path class="cls-2" d="M567.49,418.25a9.76,9.76,0,0,1,1.88,1.85,5.6,5.6,0,0,1,1.17,3.17c0,2.47-2.25,4.11-2.68,4.41A6.38,6.38,0,0,1,566,426c-2.05-2.72-.47-5.21.17-6.24Z" transform="translate(-449.07 -199.73)"/><path class="cls-2" d="M567.49,433.54a9.76,9.76,0,0,1,1.88,1.85,5.6,5.6,0,0,1,1.17,3.17c0,2.47-2.25,4.11-2.68,4.41a6.38,6.38,0,0,1-1.9-1.65c-2.05-2.72-.47-5.21.17-6.24Z" transform="translate(-449.07 -199.73)"/><path class="cls-2" d="M567.49,449.31a10.16,10.16,0,0,1,1.88,1.86,5.56,5.56,0,0,1,1.17,3.16c0,2.47-2.25,4.11-2.68,4.42a6.68,6.68,0,0,1-1.9-1.65c-2.05-2.72-.47-5.22.17-6.24Z" transform="translate(-449.07 -199.73)"/><path class="cls-2" d="M567.49,463.76a9.76,9.76,0,0,1,1.88,1.85,5.6,5.6,0,0,1,1.17,3.17c0,2.47-2.25,4.11-2.68,4.41a6.38,6.38,0,0,1-1.9-1.65c-2.05-2.72-.47-5.21.17-6.24Z" transform="translate(-449.07 -199.73)"/><path class="cls-2" d="M567.49,479.42a9.76,9.76,0,0,1,1.88,1.85,5.6,5.6,0,0,1,1.17,3.17c0,2.47-2.25,4.11-2.68,4.41a6.38,6.38,0,0,1-1.9-1.65c-2.05-2.72-.47-5.21.17-6.24Z" transform="translate(-449.07 -199.73)"/><path class="cls-2" d="M567.49,494.17a10.16,10.16,0,0,1,1.88,1.86,5.56,5.56,0,0,1,1.17,3.16c0,2.47-2.25,4.11-2.68,4.41A6.38,6.38,0,0,1,566,502c-2.05-2.71-.47-5.21.17-6.23Z" transform="translate(-449.07 -199.73)"/><path class="cls-2" d="M567.49,509.81a10.16,10.16,0,0,1,1.88,1.86,5.56,5.56,0,0,1,1.17,3.16c0,2.47-2.25,4.11-2.68,4.41a6.38,6.38,0,0,1-1.9-1.65c-2.05-2.71-.47-5.21.17-6.23Z" transform="translate(-449.07 -199.73)"/><path class="cls-2" d="M567.49,524.53a9.85,9.85,0,0,1,1.88,1.86,5.53,5.53,0,0,1,1.17,3.16c0,2.47-2.25,4.11-2.68,4.41a6.38,6.38,0,0,1-1.9-1.65c-2.05-2.72-.47-5.21.17-6.24Z" transform="translate(-449.07 -199.73)"/><path class="cls-2" d="M567.49,539.73a10.16,10.16,0,0,1,1.88,1.86,5.56,5.56,0,0,1,1.17,3.16c0,2.47-2.25,4.11-2.68,4.41a6.38,6.38,0,0,1-1.9-1.65c-2.05-2.71-.47-5.21.17-6.23Z" transform="translate(-449.07 -199.73)"/><path class="cls-2" d="M608.74,334.34l-1.15,2a4.47,4.47,0,0,1-1.8,1.7h0a2.28,2.28,0,0,1-3.16-1.18h0a2.28,2.28,0,0,1,1.61-3.07l.55-.13h3" transform="translate(-449.07 -199.73)"/><path class="cls-2" d="M607.57,333.37l-2.1-.84a4.47,4.47,0,0,1-2-1.53h0a2.28,2.28,0,0,1,.7-3.3h0a2.28,2.28,0,0,1,3.27,1.13l.21.52.44,2.94" transform="translate(-449.07 -199.73)"/><path class="cls-2" d="M609.74,331l-.88-2.1a4.41,4.41,0,0,1-.29-2.46h0a2.28,2.28,0,0,1,2.84-1.82h0a2.28,2.28,0,0,1,1.49,3.13l-.22.5-1.78,2.38" transform="translate(-449.07 -199.73)"/><path class="cls-2" d="M612,331.32l1.23-1.91a4.39,4.39,0,0,1,1.87-1.62h0a2.28,2.28,0,0,1,3.11,1.3h0a2.3,2.3,0,0,1-1.74,3l-.54.1-3-.12" transform="translate(-449.07 -199.73)"/><path class="cls-2" d="M613.34,333.36l2.26-.24a4.38,4.38,0,0,1,2.44.43h0a2.28,2.28,0,0,1,.94,3.24h0a2.29,2.29,0,0,1-3.43.54l-.42-.36-1.77-2.39" transform="translate(-449.07 -199.73)"/><path class="cls-2" d="M610.26,333.09l2.21,2.8a4.41,4.41,0,0,1,1,2.25h0a2.27,2.27,0,0,1-2.12,2.62h0a2.28,2.28,0,0,1-2.4-2.5l.06-.55.94-2.82" transform="translate(-449.07 -199.73)"/><circle class="cls-2" cx="161.53" cy="133.36" r="1.7"/><ellipse class="cls-2" cx="161.66" cy="134.19" rx="2.52" ry="1.72"/><path class="cls-2" d="M554.88,334.16l-1.15,2a4.53,4.53,0,0,1-1.8,1.7h0a2.27,2.27,0,0,1-3.16-1.18h0a2.28,2.28,0,0,1,1.61-3.07l.54-.12h3" transform="translate(-449.07 -199.73)"/><path class="cls-2" d="M553.71,333.19l-2.11-.84a4.37,4.37,0,0,1-2-1.53h0a2.27,2.27,0,0,1,.69-3.3h0a2.28,2.28,0,0,1,3.28,1.14l.2.51.45,2.94" transform="translate(-449.07 -199.73)"/><path class="cls-2" d="M557.54,324.4a2.28,2.28,0,0,1,1.5,3.13l-.23.51L557,330.41" transform="translate(-449.07 -199.73)"/><path class="cls-2" d="M555.87,330.78l-.88-2.1a4.49,4.49,0,0,1-.28-2.46h0a2.27,2.27,0,0,1,2.83-1.82" transform="translate(-449.07 -199.73)"/><path class="cls-2" d="M558.11,331.15l1.23-1.91a4.47,4.47,0,0,1,1.87-1.63h0a2.28,2.28,0,0,1,3.11,1.31h0a2.27,2.27,0,0,1-1.73,3l-.55.1-3-.12" transform="translate(-449.07 -199.73)"/><path class="cls-2" d="M565.11,336.61a2.28,2.28,0,0,1-3.42.54l-.42-.36-1.78-2.38" transform="translate(-449.07 -199.73)"/><path class="cls-2" d="M559.48,333.18l2.25-.24a4.45,4.45,0,0,1,2.44.43h0a2.27,2.27,0,0,1,.94,3.24" transform="translate(-449.07 -199.73)"/><path class="cls-2" d="M557.53,340.58a2.27,2.27,0,0,1-2.4-2.5l0-.55.94-2.82" transform="translate(-449.07 -199.73)"/><path class="cls-2" d="M556.39,332.91l2.21,2.8a4.46,4.46,0,0,1,1,2.25h0a2.28,2.28,0,0,1-2.12,2.62" transform="translate(-449.07 -199.73)"/><circle class="cls-2" cx="107.66" cy="133.18" r="1.7"/><ellipse class="cls-2" cx="107.79" cy="134.01" rx="2.52" ry="1.72"/><line class="cls-2" x1="94.39" y1="132.68" x2="101.95" y2="132.59"/><line class="cls-2" x1="174.87" y1="132.91" x2="167.96" y2="132.91"/><rect class="cls-2" x="116.46" y="126.54" width="36.78" height="43.2" rx="17.99"/><path class="cls-2" d="M565.43,353.79h-1a2.91,2.91,0,0,1-2.91-2.91h0a2.91,2.91,0,0,1,2.91-2.91h1" transform="translate(-449.07 -199.73)"/><path class="cls-2" d="M602.76,354.07h1a2.91,2.91,0,0,0,2.91-2.91h0a2.91,2.91,0,0,0-2.91-2.91h-1" transform="translate(-449.07 -199.73)"/><path class="cls-2" d="M561.28,352.41c.67,1,1.41,2,2.21,3,1.26,1.6,3.4,3.8,4.62,5.07" transform="translate(-449.07 -199.73)"/><path class="cls-2" d="M605.88,353.33c-.67,1-1.4,2-2.21,3-1.26,1.6-3.39,3.8-4.61,5.08" transform="translate(-449.07 -199.73)"/><line class="cls-2" x1="158.72" y1="153.6" x2="173.4" y2="169.39"/><path class="cls-2" d="M607.78,353.33" transform="translate(-449.07 -199.73)"/><line class="cls-2" x1="95.25" y1="85.32" x2="114.49" y2="106.03"/><line class="cls-2" x1="154.95" y1="105.91" x2="173.4" y2="86.3"/><line class="cls-2" x1="95.25" y1="169.39" x2="110.43" y2="153.25"/><path class="cls-2" d="M626.85,341c24.69,7.38,46.12,20.91,61.89,38.5" transform="translate(-449.07 -199.73)"/><path class="cls-2" d="M476.51,381.81c16.12-18.95,38.67-33.48,64.84-41.12" transform="translate(-449.07 -199.73)"/><path class="cls-2" d="M634.3,499.75V487h-2A8.32,8.32,0,0,1,624,478.7v-3.55" transform="translate(-449.07 -199.73)"/><path class="cls-2" d="M629.7,475.15v3.67a2.74,2.74,0,0,0,2.74,2.73h0a6.7,6.7,0,0,0,4.76-2l1.58-1.6a9.57,9.57,0,0,1,6.78-2.82H667a2.21,2.21,0,0,0,2.21-2.21h0a2.21,2.21,0,0,0-2.21-2.21H656.29a3.61,3.61,0,0,1-3.61-3.61h0" transform="translate(-449.07 -199.73)"/><path class="cls-2" d="M673.94,467.12v-.35a3.48,3.48,0,0,1,3.17,3.51v2.23a10.94,10.94,0,0,1-11,10.93l-23.82-.22v16.53" transform="translate(-449.07 -199.73)"/><path class="cls-2" d="M622.46,475h8.72a3.47,3.47,0,0,0,3.47-3.48h0a2.59,2.59,0,0,0-2.58-2.58h-1.34v-.85a2.17,2.17,0,0,0-2.16-2.14h0" transform="translate(-449.07 -199.73)"/><path class="cls-2" d="M678.34,462.29l13.41.31a5.26,5.26,0,0,0,5.39-5.25h0a5.74,5.74,0,0,0-5.75-5.75h0a4.14,4.14,0,0,0-4.14-4H681.1a4,4,0,0,0-4,4h0a4.66,4.66,0,0,0-4.66,4.66h0A6,6,0,0,0,678.34,462.29Z" transform="translate(-449.07 -199.73)"/><path class="cls-2" d="M678.35,448.72h0a4.08,4.08,0,0,0-4.08-4.08h-5.1a6.39,6.39,0,0,0-6.39-6.39h-8.39a6.39,6.39,0,0,0-6.39,6.39v1h-3.14a5,5,0,0,0-5,5h0a2.13,2.13,0,0,1-2.13,2.13H636.5a6.81,6.81,0,0,0-6.8,6.81h0a7.17,7.17,0,0,0,7.17,7.17h47.81a3.61,3.61,0,0,0,3.61-3.61h0" transform="translate(-449.07 -199.73)"/><path class="cls-2" d="M643.73,462.15h10.68a2.84,2.84,0,0,0,2.83-2.84v-.73a2.84,2.84,0,0,0-2.83-2.84h-1.56v-1.08a2.84,2.84,0,0,0-2.83-2.84h-3.45a2.84,2.84,0,0,0-2.84,2.84V456h0a2.83,2.83,0,0,0-2.83,2.83v.5A2.84,2.84,0,0,0,643.73,462.15Z" transform="translate(-449.07 -199.73)"/><line class="cls-2" x1="125.71" y1="38.25" x2="125.71" y2="48.9"/><line class="cls-2" x1="136.04" y1="38.25" x2="136.04" y2="48.9"/><line class="cls-2" x1="146.38" y1="38.25" x2="146.38" y2="48.9"/><path class="cls-3" d="M499.74,603.16v1.36h-5.19v-8.87h1.65v7.51Z" transform="translate(-449.07 -199.73)"/><path class="cls-3" d="M509.07,595.06a3,3,0,0,1,.4,1,3,3,0,0,1,0,1,2.9,2.9,0,0,1-.36,1,3.09,3.09,0,0,1-.73.85l-.48-.29a.26.26,0,0,1-.09-.09.36.36,0,0,1,0-.1.3.3,0,0,1,0-.1l.06-.09a1.71,1.71,0,0,0,.25-.41,1.84,1.84,0,0,0,.16-.56,2.16,2.16,0,0,0,0-.67,2,2,0,0,0-.28-.71.37.37,0,0,1-.06-.31.32.32,0,0,1,.2-.19Z" transform="translate(-449.07 -199.73)"/><path class="cls-3" d="M520,604.52h-1.66v-8.87H520Z" transform="translate(-449.07 -199.73)"/><path class="cls-3" d="M539,595.65v8.87H537.5v-5.73a6.58,6.58,0,0,1,0-.74l-2.68,5a.63.63,0,0,1-.59.36H534a.62.62,0,0,1-.58-.36L530.75,598l0,.4c0,.13,0,.25,0,.36v5.73h-1.45v-8.87h1.43a.37.37,0,0,1,.15,0,.28.28,0,0,1,.11.08.56.56,0,0,1,.1.15l2.66,4.92c.07.13.13.27.19.41l.18.42c.05-.15.11-.29.17-.43s.13-.28.2-.41l2.62-4.91a1,1,0,0,1,.1-.15.42.42,0,0,1,.12-.08.37.37,0,0,1,.15,0H539Z" transform="translate(-449.07 -199.73)"/><path class="cls-3" d="M551.17,595.65a5.08,5.08,0,0,1,1.54.21,3.12,3.12,0,0,1,1.07.58,2.37,2.37,0,0,1,.63.9,3,3,0,0,1,.2,1.14,3.22,3.22,0,0,1-.21,1.18,2.39,2.39,0,0,1-.64.92,3,3,0,0,1-1.08.6,4.62,4.62,0,0,1-1.51.22h-1.23v3.12h-1.65v-8.87Zm0,4.46A2.69,2.69,0,0,0,552,600a1.63,1.63,0,0,0,.56-.33,1.25,1.25,0,0,0,.33-.51,1.83,1.83,0,0,0,.12-.68,1.62,1.62,0,0,0-.12-.64,1.12,1.12,0,0,0-.33-.49A1.34,1.34,0,0,0,552,597a2.42,2.42,0,0,0-.8-.11h-1.23v3.18Z" transform="translate(-449.07 -199.73)"/><path class="cls-3" d="M564.89,597v2.45H568v1.27h-3.11v2.51h3.94v1.32h-5.59v-8.87h5.59V597Z" transform="translate(-449.07 -199.73)"/><path class="cls-3" d="M584.57,604.52h-1.49a.64.64,0,0,1-.61-.33l-1.87-2.84a.63.63,0,0,0-.23-.23.89.89,0,0,0-.37-.06h-.7v3.46h-1.65v-8.87h2.7a5.81,5.81,0,0,1,1.55.19,3,3,0,0,1,1.06.52,2.07,2.07,0,0,1,.61.81,2.66,2.66,0,0,1,.2,1,3,3,0,0,1-.13.85,2.28,2.28,0,0,1-.39.72,2.38,2.38,0,0,1-.61.57,2.76,2.76,0,0,1-.83.39,1.54,1.54,0,0,1,.3.22,1.5,1.5,0,0,1,.24.3Zm-4.24-4.65a2.78,2.78,0,0,0,.81-.11,1.59,1.59,0,0,0,.57-.33A1.22,1.22,0,0,0,582,599a1.59,1.59,0,0,0,.11-.62,1.25,1.25,0,0,0-.44-1,2.15,2.15,0,0,0-1.36-.36H579.3v2.94Z" transform="translate(-449.07 -199.73)"/><path class="cls-3" d="M600.49,604.52h-1.28a.56.56,0,0,1-.35-.11.73.73,0,0,1-.2-.26l-.66-1.81h-3.67l-.67,1.81a.5.5,0,0,1-.19.25.51.51,0,0,1-.35.12h-1.28l3.49-8.87H597Zm-2.91-3.35-1.08-2.95a4.6,4.6,0,0,1-.17-.46c-.06-.18-.11-.38-.17-.59,0,.21-.11.41-.17.59s-.11.34-.16.47l-1.07,2.94Z" transform="translate(-449.07 -199.73)"/><path class="cls-3" d="M615,597h-2.67v7.51h-1.65V597H608v-1.36h7Z" transform="translate(-449.07 -199.73)"/><path class="cls-3" d="M630.41,604.52h-1.49a.67.67,0,0,1-.62-.33l-1.86-2.84a.72.72,0,0,0-.23-.23.89.89,0,0,0-.37-.06h-.71v3.46h-1.65v-8.87h2.71a5.81,5.81,0,0,1,1.55.19,3,3,0,0,1,1.06.52,2.17,2.17,0,0,1,.61.81,2.87,2.87,0,0,1,.06,1.88,2.26,2.26,0,0,1-.38.72,2.38,2.38,0,0,1-.61.57,2.76,2.76,0,0,1-.83.39,1.48,1.48,0,0,1,.29.22,1.53,1.53,0,0,1,.25.3Zm-4.25-4.65a2.86,2.86,0,0,0,.82-.11,1.59,1.59,0,0,0,.57-.33,1.22,1.22,0,0,0,.33-.48,1.8,1.8,0,0,0,.11-.62,1.28,1.28,0,0,0-.44-1,2.15,2.15,0,0,0-1.36-.36h-1.06v2.94Z" transform="translate(-449.07 -199.73)"/><path class="cls-3" d="M640.38,604.52h-1.65v-8.87h1.65Z" transform="translate(-449.07 -199.73)"/><path class="cls-3" d="M655.81,602.43a.33.33,0,0,1,.24.1l.65.71a3.56,3.56,0,0,1-1.32,1,4.57,4.57,0,0,1-1.9.36,4.37,4.37,0,0,1-1.77-.34,3.82,3.82,0,0,1-1.35-.94,4,4,0,0,1-.85-1.43,5.39,5.39,0,0,1-.3-1.82,4.89,4.89,0,0,1,.32-1.83,4.18,4.18,0,0,1,.9-1.44,3.91,3.91,0,0,1,1.38-.93,4.63,4.63,0,0,1,1.78-.34,4.43,4.43,0,0,1,1.72.32,4.24,4.24,0,0,1,1.28.84l-.56.76a.37.37,0,0,1-.12.13.33.33,0,0,1-.21.06.45.45,0,0,1-.19,0l-.22-.13-.27-.17a2.28,2.28,0,0,0-.35-.17,3.9,3.9,0,0,0-.47-.13,3.8,3.8,0,0,0-.62,0,2.75,2.75,0,0,0-1.09.21,2.46,2.46,0,0,0-.85.61,3,3,0,0,0-.55,1,4.07,4.07,0,0,0-.2,1.32,3.9,3.9,0,0,0,.22,1.33,2.94,2.94,0,0,0,.57,1,2.56,2.56,0,0,0,.85.61,2.67,2.67,0,0,0,1.06.21,3.82,3.82,0,0,0,.61,0,2.45,2.45,0,0,0,.5-.11,2.53,2.53,0,0,0,.44-.21,2.7,2.7,0,0,0,.4-.31l.13-.09A.35.35,0,0,1,655.81,602.43Z" transform="translate(-449.07 -199.73)"/><path class="cls-3" d="M666.85,597v2.45H670v1.27h-3.1v2.51h3.94v1.32H665.2v-8.87h5.59V597Z" transform="translate(-449.07 -199.73)"/></svg>